G04 MADE WITH FRITZING*
G04 WWW.FRITZING.ORG*
G04 DOUBLE SIDED*
G04 HOLES PLATED*
G04 CONTOUR ON CENTER OF CONTOUR VECTOR*
%ASAXBY*%
%FSLAX23Y23*%
%MOIN*%
%OFA0B0*%
%SFA1.0B1.0*%
%ADD10C,0.008*%
%LNCONTOUR*%
G90*
G70*
G54D10*
X1357Y1739D02*
X1358Y1739D01*
X1359Y1739D01*
X1360Y1739D01*
X1361Y1739D01*
X1362Y1739D01*
X1363Y1739D01*
X1364Y1739D01*
X1365Y1739D01*
X1366Y1739D01*
X1367Y1739D01*
X1368Y1739D01*
X1369Y1739D01*
X1370Y1739D01*
X1371Y1739D01*
X1372Y1739D01*
X1373Y1739D01*
X1374Y1739D01*
X1375Y1739D01*
X1376Y1739D01*
X1377Y1739D01*
X1378Y1739D01*
X1379Y1739D01*
X1380Y1739D01*
X1381Y1739D01*
X1382Y1739D01*
X1383Y1739D01*
X1384Y1739D01*
X1385Y1739D01*
X1386Y1739D01*
X1387Y1739D01*
X1388Y1739D01*
X1389Y1739D01*
X1390Y1739D01*
X1391Y1739D01*
X1392Y1739D01*
X1393Y1739D01*
X1394Y1739D01*
X1395Y1739D01*
X1396Y1739D01*
X1397Y1739D01*
X1398Y1739D01*
X1399Y1739D01*
X1400Y1739D01*
X1401Y1739D01*
X1402Y1739D01*
X1403Y1739D01*
X1404Y1739D01*
X1405Y1739D01*
X1406Y1739D01*
X1407Y1739D01*
X1408Y1739D01*
X1409Y1739D01*
X1410Y1739D01*
X1411Y1739D01*
X1412Y1739D01*
X1413Y1739D01*
X1414Y1739D01*
X1415Y1739D01*
X1416Y1739D01*
X1417Y1739D01*
X1418Y1739D01*
X1419Y1739D01*
X1420Y1739D01*
X1421Y1739D01*
X1422Y1739D01*
X1423Y1739D01*
X1424Y1739D01*
X1425Y1739D01*
X1426Y1738D01*
X1427Y1738D01*
X1428Y1738D01*
X1429Y1738D01*
X1430Y1738D01*
X1431Y1738D01*
X1432Y1738D01*
X1433Y1738D01*
X1434Y1738D01*
X1435Y1738D01*
X1436Y1738D01*
X1437Y1738D01*
X1438Y1738D01*
X1439Y1738D01*
X1440Y1738D01*
X1441Y1738D01*
X1442Y1738D01*
X1443Y1738D01*
X1444Y1738D01*
X1445Y1738D01*
X1446Y1738D01*
X1447Y1738D01*
X1448Y1738D01*
X1449Y1738D01*
X1450Y1738D01*
X1451Y1738D01*
X1452Y1738D01*
X1453Y1738D01*
X1454Y1738D01*
X1455Y1737D01*
X1456Y1737D01*
X1457Y1737D01*
X1458Y1737D01*
X1459Y1737D01*
X1460Y1737D01*
X1461Y1737D01*
X1462Y1737D01*
X1463Y1737D01*
X1464Y1737D01*
X1465Y1737D01*
X1466Y1737D01*
X1467Y1737D01*
X1468Y1737D01*
X1469Y1737D01*
X1470Y1737D01*
X1471Y1737D01*
X1472Y1737D01*
X1473Y1737D01*
X1474Y1737D01*
X1475Y1736D01*
X1476Y1736D01*
X1477Y1736D01*
X1478Y1736D01*
X1479Y1736D01*
X1480Y1736D01*
X1481Y1736D01*
X1482Y1736D01*
X1483Y1736D01*
X1484Y1736D01*
X1485Y1736D01*
X1486Y1736D01*
X1487Y1736D01*
X1488Y1736D01*
X1489Y1736D01*
X1490Y1735D01*
X1491Y1735D01*
X1492Y1735D01*
X1493Y1735D01*
X1494Y1735D01*
X1495Y1735D01*
X1496Y1735D01*
X1497Y1735D01*
X1498Y1735D01*
X1499Y1735D01*
X1500Y1735D01*
X1501Y1735D01*
X1502Y1735D01*
X1503Y1735D01*
X1504Y1734D01*
X1505Y1734D01*
X1506Y1734D01*
X1507Y1734D01*
X1508Y1734D01*
X1509Y1734D01*
X1510Y1734D01*
X1511Y1734D01*
X1512Y1734D01*
X1513Y1734D01*
X1514Y1734D01*
X1515Y1733D01*
X1516Y1733D01*
X1517Y1733D01*
X1518Y1733D01*
X1519Y1733D01*
X1520Y1733D01*
X1521Y1733D01*
X1522Y1733D01*
X1523Y1733D01*
X1524Y1733D01*
X1525Y1733D01*
X1526Y1732D01*
X1527Y1732D01*
X1528Y1732D01*
X1529Y1732D01*
X1530Y1732D01*
X1531Y1732D01*
X1532Y1732D01*
X1533Y1732D01*
X1534Y1732D01*
X1535Y1732D01*
X1536Y1731D01*
X1537Y1731D01*
X1538Y1731D01*
X1539Y1731D01*
X1540Y1731D01*
X1541Y1731D01*
X1542Y1731D01*
X1543Y1731D01*
X1544Y1731D01*
X1545Y1730D01*
X1546Y1730D01*
X1547Y1730D01*
X1548Y1730D01*
X1549Y1730D01*
X1550Y1730D01*
X1551Y1730D01*
X1552Y1730D01*
X1553Y1730D01*
X1554Y1729D01*
X1555Y1729D01*
X1556Y1729D01*
X1557Y1729D01*
X1558Y1729D01*
X1559Y1729D01*
X1560Y1729D01*
X1561Y1729D01*
X1562Y1728D01*
X1563Y1728D01*
X1564Y1728D01*
X1565Y1728D01*
X1566Y1728D01*
X1567Y1728D01*
X1568Y1728D01*
X1569Y1727D01*
X1570Y1727D01*
X1571Y1727D01*
X1572Y1727D01*
X1573Y1727D01*
X1574Y1727D01*
X1575Y1727D01*
X1576Y1727D01*
X1577Y1726D01*
X1578Y1726D01*
X1579Y1726D01*
X1580Y1726D01*
X1581Y1726D01*
X1582Y1726D01*
X1583Y1726D01*
X1584Y1725D01*
X1585Y1725D01*
X1586Y1725D01*
X1587Y1725D01*
X1588Y1725D01*
X1589Y1725D01*
X1590Y1725D01*
X1591Y1724D01*
X1592Y1724D01*
X1593Y1724D01*
X1594Y1724D01*
X1595Y1724D01*
X1596Y1724D01*
X1597Y1723D01*
X1598Y1723D01*
X1599Y1723D01*
X1600Y1723D01*
X1601Y1723D01*
X1602Y1723D01*
X1603Y1723D01*
X1604Y1722D01*
X1605Y1722D01*
X1606Y1722D01*
X1607Y1722D01*
X1608Y1722D01*
X1609Y1722D01*
X1610Y1721D01*
X1611Y1721D01*
X1612Y1721D01*
X1613Y1721D01*
X1614Y1721D01*
X1615Y1721D01*
X1616Y1720D01*
X1617Y1720D01*
X1618Y1720D01*
X1619Y1720D01*
X1620Y1720D01*
X1621Y1719D01*
X1622Y1719D01*
X1623Y1719D01*
X1624Y1719D01*
X1625Y1719D01*
X1626Y1719D01*
X1627Y1718D01*
X1628Y1718D01*
X1629Y1718D01*
X1630Y1718D01*
X1631Y1718D01*
X1632Y1717D01*
X1633Y1717D01*
X1634Y1717D01*
X1635Y1717D01*
X1636Y1717D01*
X1637Y1717D01*
X1638Y1716D01*
X1639Y1716D01*
X1640Y1716D01*
X1641Y1716D01*
X1642Y1716D01*
X1643Y1715D01*
X1644Y1715D01*
X1645Y1715D01*
X1646Y1715D01*
X1647Y1715D01*
X1648Y1714D01*
X1649Y1714D01*
X1650Y1714D01*
X1651Y1714D01*
X1652Y1714D01*
X1653Y1713D01*
X1654Y1713D01*
X1655Y1713D01*
X1656Y1713D01*
X1657Y1713D01*
X1658Y1712D01*
X1659Y1712D01*
X1660Y1712D01*
X1661Y1712D01*
X1662Y1711D01*
X1663Y1711D01*
X1664Y1711D01*
X1665Y1711D01*
X1666Y1711D01*
X1667Y1710D01*
X1668Y1710D01*
X1669Y1710D01*
X1670Y1710D01*
X1671Y1710D01*
X1672Y1709D01*
X1673Y1709D01*
X1674Y1709D01*
X1675Y1709D01*
X1676Y1708D01*
X1677Y1708D01*
X1678Y1708D01*
X1679Y1708D01*
X1680Y1707D01*
X1681Y1707D01*
X1682Y1707D01*
X1683Y1707D01*
X1684Y1707D01*
X1685Y1706D01*
X1686Y1706D01*
X1687Y1706D01*
X1688Y1706D01*
X1689Y1705D01*
X1690Y1705D01*
X1691Y1705D01*
X1692Y1705D01*
X1693Y1704D01*
X1694Y1704D01*
X1695Y1704D01*
X1696Y1704D01*
X1697Y1703D01*
X1698Y1703D01*
X1699Y1703D01*
X1700Y1703D01*
X1701Y1702D01*
X1702Y1702D01*
X1703Y1702D01*
X1704Y1702D01*
X1705Y1701D01*
X1706Y1701D01*
X1707Y1701D01*
X1708Y1701D01*
X1709Y1700D01*
X1710Y1700D01*
X1711Y1700D01*
X1712Y1700D01*
X1713Y1699D01*
X1714Y1699D01*
X1715Y1699D01*
X1716Y1699D01*
X1717Y1698D01*
X1718Y1698D01*
X1719Y1698D01*
X1720Y1698D01*
X1721Y1697D01*
X1722Y1697D01*
X1723Y1697D01*
X1724Y1696D01*
X1725Y1696D01*
X1726Y1696D01*
X1727Y1696D01*
X1728Y1695D01*
X1729Y1695D01*
X1730Y1695D01*
X1731Y1695D01*
X1732Y1694D01*
X1733Y1694D01*
X1734Y1694D01*
X1735Y1693D01*
X1736Y1693D01*
X1737Y1693D01*
X1738Y1693D01*
X1739Y1692D01*
X1740Y1692D01*
X1741Y1692D01*
X1742Y1691D01*
X1743Y1691D01*
X1744Y1691D01*
X1745Y1691D01*
X1746Y1690D01*
X1747Y1690D01*
X1748Y1690D01*
X1749Y1689D01*
X1750Y1689D01*
X1751Y1689D01*
X1752Y1688D01*
X1753Y1688D01*
X1754Y1688D01*
X1755Y1688D01*
X1756Y1687D01*
X1757Y1687D01*
X1758Y1687D01*
X1759Y1686D01*
X1760Y1686D01*
X1761Y1686D01*
X1762Y1685D01*
X1763Y1685D01*
X1764Y1685D01*
X1765Y1684D01*
X1766Y1684D01*
X1767Y1684D01*
X1768Y1684D01*
X1769Y1683D01*
X1770Y1683D01*
X1771Y1683D01*
X1772Y1682D01*
X1773Y1682D01*
X1774Y1682D01*
X1775Y1681D01*
X1776Y1681D01*
X1777Y1681D01*
X1778Y1680D01*
X1779Y1680D01*
X1780Y1680D01*
X1781Y1679D01*
X1782Y1679D01*
X1783Y1679D01*
X1784Y1678D01*
X1785Y1678D01*
X1786Y1678D01*
X1787Y1677D01*
X1788Y1677D01*
X1789Y1677D01*
X1790Y1676D01*
X1791Y1676D01*
X1792Y1676D01*
X1793Y1675D01*
X1794Y1675D01*
X1795Y1675D01*
X1796Y1674D01*
X1797Y1674D01*
X1798Y1674D01*
X1799Y1673D01*
X1800Y1673D01*
X1801Y1672D01*
X1802Y1672D01*
X1803Y1672D01*
X1804Y1671D01*
X1805Y1671D01*
X1806Y1671D01*
X1807Y1670D01*
X1808Y1670D01*
X1809Y1670D01*
X1810Y1669D01*
X1811Y1669D01*
X1812Y1668D01*
X1813Y1668D01*
X1814Y1668D01*
X1815Y1667D01*
X1816Y1667D01*
X1817Y1667D01*
X1818Y1666D01*
X1819Y1666D01*
X1820Y1666D01*
X1821Y1665D01*
X1822Y1665D01*
X1823Y1664D01*
X1824Y1664D01*
X1825Y1664D01*
X1826Y1663D01*
X1827Y1663D01*
X1828Y1663D01*
X1829Y1662D01*
X1830Y1662D01*
X1831Y1661D01*
X1832Y1661D01*
X1833Y1661D01*
X1834Y1660D01*
X1835Y1660D01*
X1836Y1659D01*
X1837Y1659D01*
X1838Y1659D01*
X1839Y1658D01*
X1840Y1658D01*
X1841Y1657D01*
X1842Y1657D01*
X1843Y1657D01*
X1844Y1656D01*
X1845Y1656D01*
X1846Y1655D01*
X1847Y1655D01*
X1848Y1655D01*
X1849Y1654D01*
X1850Y1654D01*
X1851Y1653D01*
X1852Y1653D01*
X1853Y1653D01*
X1854Y1652D01*
X1855Y1652D01*
X1856Y1651D01*
X1857Y1651D01*
X1858Y1651D01*
X1859Y1650D01*
X1860Y1650D01*
X1861Y1649D01*
X1862Y1649D01*
X1863Y1648D01*
X1864Y1648D01*
X1865Y1648D01*
X1866Y1647D01*
X1867Y1647D01*
X1868Y1646D01*
X1869Y1646D01*
X1870Y1645D01*
X1871Y1645D01*
X1872Y1645D01*
X1873Y1644D01*
X1874Y1644D01*
X1875Y1643D01*
X1876Y1643D01*
X1877Y1642D01*
X1878Y1642D01*
X1879Y1641D01*
X1880Y1641D01*
X1881Y1641D01*
X1882Y1640D01*
X1883Y1640D01*
X1884Y1639D01*
X1885Y1639D01*
X1886Y1638D01*
X1887Y1638D01*
X1888Y1637D01*
X1889Y1637D01*
X1890Y1636D01*
X1891Y1636D01*
X1892Y1636D01*
X1893Y1635D01*
X1894Y1635D01*
X1895Y1634D01*
X1896Y1634D01*
X1897Y1633D01*
X1898Y1633D01*
X1899Y1632D01*
X1900Y1632D01*
X1901Y1631D01*
X1902Y1631D01*
X1903Y1630D01*
X1904Y1630D01*
X1905Y1630D01*
X1906Y1629D01*
X1907Y1629D01*
X1908Y1628D01*
X1909Y1628D01*
X1910Y1627D01*
X1911Y1627D01*
X1912Y1626D01*
X1913Y1626D01*
X1914Y1625D01*
X1915Y1625D01*
X1916Y1624D01*
X1917Y1624D01*
X1918Y1623D01*
X1919Y1623D01*
X1920Y1622D01*
X1921Y1622D01*
X1922Y1621D01*
X1923Y1621D01*
X1924Y1620D01*
X1925Y1620D01*
X1926Y1619D01*
X1927Y1619D01*
X1928Y1618D01*
X1929Y1618D01*
X1930Y1617D01*
X1931Y1617D01*
X1932Y1616D01*
X1933Y1616D01*
X1934Y1615D01*
X1935Y1615D01*
X1936Y1614D01*
X1937Y1614D01*
X1938Y1613D01*
X1939Y1613D01*
X1940Y1612D01*
X1941Y1612D01*
X1942Y1611D01*
X1943Y1611D01*
X1944Y1610D01*
X1945Y1609D01*
X1946Y1609D01*
X1947Y1608D01*
X1948Y1608D01*
X1949Y1607D01*
X1950Y1607D01*
X1951Y1606D01*
X1952Y1606D01*
X1953Y1605D01*
X1954Y1605D01*
X1955Y1604D01*
X1956Y1604D01*
X1957Y1603D01*
X1958Y1603D01*
X1959Y1602D01*
X1960Y1601D01*
X1961Y1601D01*
X1962Y1600D01*
X1963Y1600D01*
X1964Y1599D01*
X1965Y1599D01*
X1966Y1598D01*
X1967Y1598D01*
X1968Y1597D01*
X1969Y1596D01*
X1970Y1596D01*
X1971Y1595D01*
X1972Y1595D01*
X1973Y1594D01*
X1974Y1594D01*
X1975Y1593D01*
X1976Y1592D01*
X1977Y1592D01*
X1978Y1591D01*
X1979Y1591D01*
X1980Y1590D01*
X1981Y1590D01*
X1982Y1589D01*
X1983Y1588D01*
X1984Y1588D01*
X1985Y1587D01*
X1986Y1587D01*
X1987Y1586D01*
X1988Y1585D01*
X1989Y1585D01*
X1990Y1584D01*
X1991Y1584D01*
X1992Y1583D01*
X1993Y1582D01*
X1994Y1582D01*
X1995Y1581D01*
X1996Y1581D01*
X1997Y1580D01*
X1998Y1579D01*
X1999Y1579D01*
X2000Y1578D01*
X2001Y1578D01*
X2002Y1577D01*
X2003Y1576D01*
X2004Y1576D01*
X2005Y1575D01*
X2006Y1574D01*
X2007Y1574D01*
X2008Y1573D01*
X2009Y1573D01*
X2010Y1572D01*
X2011Y1571D01*
X2012Y1571D01*
X2013Y1570D01*
X2014Y1569D01*
X2015Y1569D01*
X2016Y1568D01*
X2017Y1567D01*
X2018Y1567D01*
X2019Y1566D01*
X2020Y1566D01*
X2021Y1565D01*
X2022Y1564D01*
X2023Y1564D01*
X2024Y1563D01*
X2025Y1562D01*
X2026Y1562D01*
X2027Y1561D01*
X2028Y1560D01*
X2029Y1560D01*
X2030Y1559D01*
X2031Y1558D01*
X2032Y1558D01*
X2033Y1557D01*
X2034Y1556D01*
X2035Y1556D01*
X2036Y1555D01*
X2037Y1554D01*
X2038Y1553D01*
X2039Y1553D01*
X2040Y1552D01*
X2041Y1551D01*
X2042Y1551D01*
X2043Y1550D01*
X2044Y1549D01*
X2045Y1549D01*
X2046Y1548D01*
X2047Y1547D01*
X2048Y1546D01*
X2049Y1546D01*
X2050Y1545D01*
X2051Y1544D01*
X2052Y1544D01*
X2053Y1543D01*
X2054Y1542D01*
X2055Y1541D01*
X2056Y1541D01*
X2057Y1540D01*
X2058Y1539D01*
X2059Y1539D01*
X2060Y1538D01*
X2061Y1537D01*
X2062Y1536D01*
X2063Y1536D01*
X2064Y1535D01*
X2065Y1534D01*
X2066Y1533D01*
X2067Y1533D01*
X2068Y1532D01*
X2069Y1531D01*
X2070Y1530D01*
X2071Y1530D01*
X2072Y1529D01*
X2073Y1528D01*
X2074Y1527D01*
X2075Y1526D01*
X2076Y1526D01*
X2077Y1525D01*
X2078Y1524D01*
X2079Y1523D01*
X2080Y1523D01*
X2081Y1522D01*
X2082Y1521D01*
X2083Y1520D01*
X2084Y1519D01*
X2085Y1519D01*
X2086Y1518D01*
X2087Y1517D01*
X2088Y1516D01*
X2089Y1515D01*
X2090Y1514D01*
X2091Y1514D01*
X2092Y1513D01*
X2093Y1512D01*
X2094Y1511D01*
X2095Y1510D01*
X2096Y1510D01*
X2097Y1509D01*
X2098Y1508D01*
X2099Y1507D01*
X2100Y1506D01*
X2101Y1505D01*
X2102Y1504D01*
X2103Y1504D01*
X2104Y1503D01*
X2105Y1502D01*
X2106Y1501D01*
X2107Y1500D01*
X2108Y1499D01*
X2109Y1498D01*
X2110Y1498D01*
X2111Y1497D01*
X2112Y1496D01*
X2113Y1495D01*
X2114Y1494D01*
X2115Y1493D01*
X2116Y1492D01*
X2117Y1491D01*
X2118Y1490D01*
X2119Y1489D01*
X2120Y1489D01*
X2121Y1488D01*
X2122Y1487D01*
X2123Y1486D01*
X2124Y1485D01*
X2125Y1484D01*
X2126Y1483D01*
X2127Y1482D01*
X2128Y1481D01*
X2129Y1480D01*
X2130Y1479D01*
X2131Y1478D01*
X2132Y1477D01*
X2133Y1476D01*
X2134Y1475D01*
X2135Y1474D01*
X2136Y1473D01*
X2137Y1472D01*
X2138Y1471D01*
X2139Y1470D01*
X2140Y1470D01*
X2141Y1469D01*
X2142Y1468D01*
X2143Y1467D01*
X2144Y1466D01*
X2144Y1465D01*
X2145Y1464D01*
X2146Y1463D01*
X2147Y1462D01*
X2148Y1461D01*
X2149Y1460D01*
X2150Y1459D01*
X2151Y1458D01*
X2152Y1457D01*
X2153Y1456D01*
X2154Y1455D01*
X2155Y1454D01*
X2156Y1453D01*
X2157Y1452D01*
X2158Y1451D01*
X2159Y1450D01*
X2160Y1449D01*
X2161Y1448D01*
X2162Y1447D01*
X2163Y1446D01*
X2163Y1445D01*
X2164Y1444D01*
X2165Y1443D01*
X2166Y1442D01*
X2167Y1441D01*
X2168Y1440D01*
X2169Y1439D01*
X2170Y1438D01*
X2171Y1437D01*
X2171Y1436D01*
X2172Y1435D01*
X2173Y1434D01*
X2174Y1433D01*
X2175Y1432D01*
X2176Y1431D01*
X2177Y1430D01*
X2177Y1429D01*
X2178Y1428D01*
X2179Y1427D01*
X2180Y1426D01*
X2181Y1425D01*
X2182Y1424D01*
X2182Y1423D01*
X2183Y1422D01*
X2184Y1421D01*
X2185Y1420D01*
X2186Y1419D01*
X2187Y1418D01*
X2187Y1417D01*
X2188Y1416D01*
X2189Y1415D01*
X2190Y1414D01*
X2191Y1413D01*
X2191Y1412D01*
X2192Y1411D01*
X2193Y1410D01*
X2194Y1409D01*
X2194Y1408D01*
X2195Y1407D01*
X2196Y1406D01*
X2197Y1405D01*
X2198Y1404D01*
X2198Y1403D01*
X2199Y1402D01*
X2200Y1401D01*
X2201Y1400D01*
X2201Y1399D01*
X2202Y1398D01*
X2203Y1397D01*
X2204Y1396D01*
X2204Y1395D01*
X2205Y1394D01*
X2206Y1393D01*
X2206Y1392D01*
X2207Y1391D01*
X2208Y1390D01*
X2209Y1389D01*
X2209Y1388D01*
X2210Y1387D01*
X2211Y1386D01*
X2211Y1385D01*
X2212Y1384D01*
X2213Y1383D01*
X2214Y1382D01*
X2214Y1381D01*
X2215Y1380D01*
X2216Y1379D01*
X2216Y1378D01*
X2217Y1377D01*
X2218Y1376D01*
X2218Y1375D01*
X2219Y1374D01*
X2220Y1373D01*
X2220Y1372D01*
X2221Y1371D01*
X2222Y1370D01*
X2222Y1369D01*
X2223Y1368D01*
X2224Y1367D01*
X2224Y1366D01*
X2225Y1365D01*
X2226Y1364D01*
X2226Y1363D01*
X2227Y1362D01*
X2227Y1361D01*
X2228Y1360D01*
X2229Y1359D01*
X2229Y1358D01*
X2230Y1357D01*
X2231Y1356D01*
X2231Y1355D01*
X2232Y1354D01*
X2232Y1353D01*
X2233Y1352D01*
X2234Y1351D01*
X2235Y1351D01*
X2236Y1352D01*
X2237Y1353D01*
X2238Y1353D01*
X2239Y1354D01*
X2240Y1354D01*
X2241Y1355D01*
X2242Y1355D01*
X2243Y1356D01*
X2244Y1357D01*
X2245Y1357D01*
X2246Y1358D01*
X2247Y1358D01*
X2248Y1359D01*
X2249Y1359D01*
X2250Y1360D01*
X2251Y1361D01*
X2252Y1361D01*
X2253Y1362D01*
X2254Y1362D01*
X2255Y1363D01*
X2256Y1363D01*
X2257Y1364D01*
X2258Y1364D01*
X2259Y1365D01*
X2260Y1365D01*
X2261Y1366D01*
X2262Y1366D01*
X2263Y1367D01*
X2264Y1368D01*
X2265Y1368D01*
X2266Y1369D01*
X2267Y1369D01*
X2268Y1370D01*
X2269Y1370D01*
X2270Y1371D01*
X2271Y1371D01*
X2272Y1372D01*
X2273Y1372D01*
X2274Y1373D01*
X2275Y1373D01*
X2276Y1373D01*
X2277Y1374D01*
X2278Y1374D01*
X2279Y1375D01*
X2280Y1375D01*
X2281Y1376D01*
X2282Y1376D01*
X2283Y1377D01*
X2284Y1377D01*
X2285Y1378D01*
X2286Y1378D01*
X2287Y1379D01*
X2288Y1379D01*
X2289Y1379D01*
X2290Y1380D01*
X2291Y1380D01*
X2292Y1381D01*
X2293Y1381D01*
X2294Y1382D01*
X2295Y1382D01*
X2296Y1383D01*
X2297Y1383D01*
X2298Y1383D01*
X2299Y1384D01*
X2300Y1384D01*
X2301Y1385D01*
X2302Y1385D01*
X2303Y1385D01*
X2304Y1386D01*
X2305Y1386D01*
X2306Y1387D01*
X2307Y1387D01*
X2308Y1387D01*
X2309Y1388D01*
X2310Y1388D01*
X2311Y1389D01*
X2312Y1389D01*
X2313Y1389D01*
X2314Y1390D01*
X2315Y1390D01*
X2316Y1391D01*
X2317Y1391D01*
X2318Y1391D01*
X2319Y1392D01*
X2320Y1392D01*
X2321Y1392D01*
X2322Y1393D01*
X2323Y1393D01*
X2324Y1393D01*
X2325Y1394D01*
X2326Y1394D01*
X2327Y1395D01*
X2328Y1395D01*
X2329Y1395D01*
X2330Y1396D01*
X2331Y1396D01*
X2332Y1396D01*
X2333Y1397D01*
X2334Y1397D01*
X2335Y1397D01*
X2336Y1398D01*
X2337Y1398D01*
X2338Y1398D01*
X2339Y1399D01*
X2340Y1399D01*
X2341Y1399D01*
X2342Y1399D01*
X2343Y1400D01*
X2344Y1400D01*
X2345Y1400D01*
X2346Y1401D01*
X2347Y1401D01*
X2348Y1401D01*
X2349Y1402D01*
X2350Y1402D01*
X2351Y1402D01*
X2352Y1403D01*
X2353Y1403D01*
X2354Y1403D01*
X2355Y1403D01*
X2356Y1404D01*
X2357Y1404D01*
X2358Y1404D01*
X2359Y1405D01*
X2360Y1405D01*
X2361Y1405D01*
X2362Y1405D01*
X2363Y1406D01*
X2364Y1406D01*
X2365Y1406D01*
X2366Y1406D01*
X2367Y1407D01*
X2368Y1407D01*
X2369Y1407D01*
X2370Y1407D01*
X2371Y1408D01*
X2372Y1408D01*
X2373Y1408D01*
X2374Y1408D01*
X2375Y1409D01*
X2376Y1409D01*
X2377Y1409D01*
X2378Y1409D01*
X2379Y1410D01*
X2380Y1410D01*
X2381Y1410D01*
X2382Y1410D01*
X2383Y1411D01*
X2384Y1411D01*
X2385Y1411D01*
X2386Y1411D01*
X2387Y1412D01*
X2388Y1412D01*
X2389Y1412D01*
X2390Y1412D01*
X2391Y1412D01*
X2392Y1413D01*
X2393Y1413D01*
X2394Y1413D01*
X2395Y1413D01*
X2396Y1414D01*
X2397Y1414D01*
X2398Y1414D01*
X2399Y1414D01*
X2400Y1414D01*
X2401Y1415D01*
X2402Y1415D01*
X2403Y1415D01*
X2404Y1415D01*
X2405Y1415D01*
X2406Y1415D01*
X2407Y1416D01*
X2408Y1416D01*
X2409Y1416D01*
X2410Y1416D01*
X2411Y1416D01*
X2412Y1417D01*
X2413Y1417D01*
X2414Y1417D01*
X2415Y1417D01*
X2416Y1417D01*
X2417Y1417D01*
X2418Y1418D01*
X2419Y1418D01*
X2420Y1418D01*
X2421Y1418D01*
X2422Y1418D01*
X2423Y1418D01*
X2424Y1419D01*
X2425Y1419D01*
X2426Y1419D01*
X2427Y1419D01*
X2428Y1419D01*
X2429Y1419D01*
X2430Y1419D01*
X2431Y1420D01*
X2432Y1420D01*
X2433Y1420D01*
X2434Y1420D01*
X2435Y1420D01*
X2436Y1420D01*
X2437Y1420D01*
X2438Y1421D01*
X2439Y1421D01*
X2440Y1421D01*
X2441Y1421D01*
X2442Y1421D01*
X2443Y1421D01*
X2444Y1421D01*
X2445Y1421D01*
X2446Y1422D01*
X2447Y1422D01*
X2448Y1422D01*
X2449Y1422D01*
X2450Y1422D01*
X2451Y1422D01*
X2452Y1422D01*
X2453Y1422D01*
X2454Y1423D01*
X2455Y1423D01*
X2456Y1423D01*
X2457Y1423D01*
X2458Y1423D01*
X2459Y1423D01*
X2460Y1423D01*
X2461Y1423D01*
X2462Y1423D01*
X2463Y1423D01*
X2464Y1424D01*
X2465Y1424D01*
X2466Y1424D01*
X2467Y1424D01*
X2468Y1424D01*
X2469Y1424D01*
X2470Y1424D01*
X2471Y1424D01*
X2472Y1424D01*
X2473Y1424D01*
X2474Y1424D01*
X2475Y1424D01*
X2476Y1424D01*
X2477Y1425D01*
X2478Y1425D01*
X2479Y1425D01*
X2480Y1425D01*
X2481Y1425D01*
X2482Y1425D01*
X2483Y1425D01*
X2484Y1425D01*
X2485Y1425D01*
X2486Y1425D01*
X2487Y1425D01*
X2488Y1425D01*
X2489Y1425D01*
X2490Y1425D01*
X2491Y1425D01*
X2492Y1425D01*
X2493Y1426D01*
X2494Y1426D01*
X2495Y1426D01*
X2496Y1426D01*
X2497Y1426D01*
X2498Y1426D01*
X2499Y1426D01*
X2500Y1426D01*
X2501Y1426D01*
X2502Y1426D01*
X2503Y1426D01*
X2504Y1426D01*
X2505Y1426D01*
X2506Y1426D01*
X2507Y1426D01*
X2508Y1426D01*
X2509Y1426D01*
X2510Y1426D01*
X2511Y1426D01*
X2512Y1426D01*
X2513Y1426D01*
X2514Y1426D01*
X2515Y1426D01*
X2516Y1426D01*
X2517Y1426D01*
X2518Y1426D01*
X2519Y1426D01*
X2520Y1426D01*
X2521Y1426D01*
X2522Y1426D01*
X2523Y1426D01*
X2524Y1426D01*
X2525Y1426D01*
X2526Y1426D01*
X2527Y1426D01*
X2528Y1426D01*
X2529Y1426D01*
X2530Y1426D01*
X2531Y1426D01*
X2532Y1426D01*
X2533Y1426D01*
X2534Y1426D01*
X2535Y1426D01*
X2536Y1426D01*
X2537Y1426D01*
X2538Y1426D01*
X2539Y1426D01*
X2540Y1426D01*
X2541Y1426D01*
X2542Y1426D01*
X2543Y1426D01*
X2544Y1426D01*
X2545Y1426D01*
X2546Y1426D01*
X2547Y1426D01*
X2548Y1426D01*
X2549Y1426D01*
X2550Y1426D01*
X2551Y1426D01*
X2552Y1426D01*
X2553Y1426D01*
X2554Y1426D01*
X2555Y1426D01*
X2556Y1426D01*
X2557Y1426D01*
X2558Y1426D01*
X2559Y1426D01*
X2560Y1426D01*
X2561Y1426D01*
X2562Y1426D01*
X2563Y1426D01*
X2564Y1426D01*
X2565Y1426D01*
X2566Y1425D01*
X2567Y1425D01*
X2568Y1425D01*
X2569Y1425D01*
X2570Y1425D01*
X2571Y1425D01*
X2572Y1425D01*
X2573Y1425D01*
X2574Y1425D01*
X2575Y1425D01*
X2576Y1425D01*
X2577Y1425D01*
X2578Y1425D01*
X2579Y1425D01*
X2580Y1425D01*
X2581Y1425D01*
X2582Y1425D01*
X2583Y1424D01*
X2584Y1424D01*
X2585Y1424D01*
X2586Y1424D01*
X2587Y1424D01*
X2588Y1424D01*
X2589Y1424D01*
X2590Y1424D01*
X2591Y1424D01*
X2592Y1424D01*
X2593Y1424D01*
X2594Y1424D01*
X2595Y1423D01*
X2596Y1423D01*
X2597Y1423D01*
X2598Y1423D01*
X2599Y1423D01*
X2600Y1423D01*
X2601Y1423D01*
X2602Y1423D01*
X2603Y1423D01*
X2604Y1423D01*
X2605Y1422D01*
X2606Y1422D01*
X2607Y1422D01*
X2608Y1422D01*
X2609Y1422D01*
X2610Y1422D01*
X2611Y1422D01*
X2612Y1422D01*
X2613Y1422D01*
X2614Y1421D01*
X2615Y1421D01*
X2616Y1421D01*
X2617Y1421D01*
X2618Y1421D01*
X2619Y1421D01*
X2620Y1421D01*
X2621Y1420D01*
X2622Y1420D01*
X2623Y1420D01*
X2624Y1420D01*
X2625Y1420D01*
X2626Y1420D01*
X2627Y1420D01*
X2628Y1420D01*
X2629Y1419D01*
X2630Y1419D01*
X2631Y1419D01*
X2632Y1419D01*
X2633Y1419D01*
X2634Y1419D01*
X2635Y1418D01*
X2636Y1418D01*
X2637Y1418D01*
X2638Y1418D01*
X2639Y1418D01*
X2640Y1418D01*
X2641Y1418D01*
X2642Y1417D01*
X2643Y1417D01*
X2644Y1417D01*
X2645Y1417D01*
X2646Y1417D01*
X2647Y1416D01*
X2648Y1416D01*
X2649Y1416D01*
X2650Y1416D01*
X2651Y1416D01*
X2652Y1416D01*
X2653Y1415D01*
X2654Y1415D01*
X2655Y1415D01*
X2656Y1415D01*
X2657Y1415D01*
X2658Y1414D01*
X2659Y1414D01*
X2660Y1414D01*
X2661Y1414D01*
X2662Y1414D01*
X2663Y1413D01*
X2664Y1413D01*
X2665Y1413D01*
X2666Y1413D01*
X2667Y1413D01*
X2668Y1412D01*
X2669Y1412D01*
X2670Y1412D01*
X2671Y1412D01*
X2672Y1411D01*
X2673Y1411D01*
X2674Y1411D01*
X2675Y1411D01*
X2676Y1411D01*
X2677Y1410D01*
X2678Y1410D01*
X2679Y1410D01*
X2680Y1410D01*
X2681Y1409D01*
X2682Y1409D01*
X2683Y1409D01*
X2684Y1409D01*
X2685Y1408D01*
X2686Y1408D01*
X2687Y1408D01*
X2688Y1408D01*
X2689Y1407D01*
X2690Y1407D01*
X2691Y1407D01*
X2692Y1407D01*
X2693Y1406D01*
X2694Y1406D01*
X2695Y1406D01*
X2696Y1406D01*
X2697Y1405D01*
X2698Y1405D01*
X2699Y1405D01*
X2700Y1404D01*
X2701Y1404D01*
X2702Y1404D01*
X2703Y1404D01*
X2704Y1403D01*
X2705Y1403D01*
X2706Y1403D01*
X2707Y1403D01*
X2708Y1402D01*
X2709Y1402D01*
X2710Y1402D01*
X2711Y1401D01*
X2712Y1401D01*
X2713Y1401D01*
X2714Y1400D01*
X2715Y1400D01*
X2716Y1400D01*
X2717Y1399D01*
X2718Y1399D01*
X2719Y1399D01*
X2720Y1399D01*
X2721Y1398D01*
X2722Y1398D01*
X2723Y1398D01*
X2724Y1397D01*
X2725Y1397D01*
X2726Y1397D01*
X2727Y1396D01*
X2728Y1396D01*
X2729Y1396D01*
X2730Y1395D01*
X2731Y1395D01*
X2732Y1395D01*
X2733Y1394D01*
X2734Y1394D01*
X2735Y1393D01*
X2736Y1393D01*
X2737Y1393D01*
X2738Y1392D01*
X2739Y1392D01*
X2740Y1392D01*
X2741Y1391D01*
X2742Y1391D01*
X2743Y1391D01*
X2744Y1390D01*
X2745Y1390D01*
X2746Y1389D01*
X2747Y1389D01*
X2748Y1389D01*
X2749Y1388D01*
X2750Y1388D01*
X2751Y1388D01*
X2752Y1387D01*
X2753Y1387D01*
X2754Y1386D01*
X2755Y1386D01*
X2756Y1386D01*
X2757Y1385D01*
X2758Y1385D01*
X2759Y1384D01*
X2760Y1384D01*
X2761Y1383D01*
X2762Y1383D01*
X2763Y1383D01*
X2764Y1382D01*
X2765Y1382D01*
X2766Y1381D01*
X2767Y1381D01*
X2768Y1381D01*
X2769Y1380D01*
X2770Y1380D01*
X2771Y1379D01*
X2772Y1379D01*
X2773Y1378D01*
X2774Y1378D01*
X2775Y1377D01*
X2776Y1377D01*
X2777Y1376D01*
X2778Y1376D01*
X2779Y1376D01*
X2780Y1375D01*
X2781Y1375D01*
X2782Y1374D01*
X2783Y1374D01*
X2784Y1373D01*
X2785Y1373D01*
X2786Y1372D01*
X2787Y1372D01*
X2788Y1371D01*
X2789Y1371D01*
X2790Y1370D01*
X2791Y1370D01*
X2792Y1369D01*
X2793Y1369D01*
X2794Y1368D01*
X2795Y1368D01*
X2796Y1367D01*
X2797Y1367D01*
X2798Y1366D01*
X2799Y1366D01*
X2800Y1365D01*
X2801Y1365D01*
X2802Y1364D01*
X2803Y1364D01*
X2804Y1363D01*
X2805Y1363D01*
X2806Y1362D01*
X2807Y1362D01*
X2808Y1361D01*
X2809Y1360D01*
X2810Y1360D01*
X2811Y1359D01*
X2812Y1359D01*
X2813Y1358D01*
X2814Y1358D01*
X2815Y1357D01*
X2816Y1357D01*
X2817Y1356D01*
X2818Y1355D01*
X2819Y1355D01*
X2820Y1354D01*
X2821Y1354D01*
X2822Y1353D01*
X2823Y1352D01*
X2824Y1352D01*
X2825Y1351D01*
X2826Y1351D01*
X2827Y1350D01*
X2828Y1349D01*
X2829Y1349D01*
X2830Y1348D01*
X2831Y1348D01*
X2832Y1347D01*
X2833Y1346D01*
X2834Y1346D01*
X2835Y1345D01*
X2836Y1344D01*
X2837Y1344D01*
X2838Y1343D01*
X2839Y1343D01*
X2840Y1342D01*
X2841Y1341D01*
X2842Y1341D01*
X2843Y1340D01*
X2844Y1339D01*
X2845Y1339D01*
X2846Y1338D01*
X2847Y1337D01*
X2848Y1337D01*
X2849Y1336D01*
X2850Y1335D01*
X2851Y1335D01*
X2852Y1334D01*
X2853Y1333D01*
X2854Y1332D01*
X2855Y1332D01*
X2856Y1331D01*
X2857Y1330D01*
X2858Y1330D01*
X2859Y1329D01*
X2860Y1328D01*
X2861Y1327D01*
X2862Y1327D01*
X2863Y1326D01*
X2864Y1325D01*
X2865Y1324D01*
X2866Y1324D01*
X2867Y1323D01*
X2868Y1322D01*
X2869Y1321D01*
X2870Y1321D01*
X2871Y1320D01*
X2872Y1319D01*
X2873Y1318D01*
X2874Y1318D01*
X2875Y1317D01*
X2876Y1316D01*
X2877Y1315D01*
X2878Y1314D01*
X2879Y1314D01*
X2880Y1313D01*
X2881Y1312D01*
X2882Y1311D01*
X2883Y1310D01*
X2884Y1310D01*
X2885Y1309D01*
X2886Y1308D01*
X2887Y1307D01*
X2888Y1306D01*
X2889Y1305D01*
X2890Y1304D01*
X2891Y1303D01*
X2892Y1303D01*
X2893Y1302D01*
X2894Y1301D01*
X2895Y1300D01*
X2896Y1299D01*
X2897Y1298D01*
X2898Y1297D01*
X2899Y1296D01*
X2900Y1295D01*
X2901Y1294D01*
X2902Y1293D01*
X2903Y1292D01*
X2904Y1291D01*
X2905Y1291D01*
X2906Y1290D01*
X2907Y1289D01*
X2908Y1288D01*
X2909Y1287D01*
X2910Y1286D01*
X2910Y1285D01*
X2911Y1284D01*
X2912Y1283D01*
X2913Y1282D01*
X2914Y1281D01*
X2915Y1280D01*
X2916Y1279D01*
X2917Y1278D01*
X2918Y1277D01*
X2919Y1276D01*
X2920Y1275D01*
X2921Y1274D01*
X2922Y1273D01*
X2922Y1272D01*
X2923Y1271D01*
X2924Y1270D01*
X2925Y1269D01*
X2926Y1268D01*
X2927Y1267D01*
X2927Y1266D01*
X2928Y1265D01*
X2929Y1264D01*
X2930Y1263D01*
X2931Y1262D01*
X2932Y1261D01*
X2932Y1260D01*
X2933Y1259D01*
X2934Y1258D01*
X2935Y1257D01*
X2935Y1256D01*
X2936Y1255D01*
X2937Y1254D01*
X2938Y1253D01*
X2938Y1252D01*
X2939Y1251D01*
X2940Y1250D01*
X2940Y1249D01*
X2941Y1248D01*
X2942Y1247D01*
X2942Y1246D01*
X2943Y1245D01*
X2944Y1244D01*
X2945Y1243D01*
X2945Y1242D01*
X2946Y1241D01*
X2946Y1240D01*
X2947Y1239D01*
X2948Y1238D01*
X2948Y1237D01*
X2949Y1236D01*
X2950Y1235D01*
X2950Y1234D01*
X2951Y1233D01*
X2951Y1232D01*
X2952Y1231D01*
X2953Y1230D01*
X2953Y1229D01*
X2954Y1228D01*
X2954Y1227D01*
X2955Y1226D01*
X2955Y1225D01*
X2956Y1224D01*
X2956Y1223D01*
X2957Y1222D01*
X2957Y1221D01*
X2958Y1220D01*
X2958Y1219D01*
X2959Y1218D01*
X2960Y1217D01*
X2960Y1215D01*
X2961Y1214D01*
X2961Y1213D01*
X2962Y1212D01*
X2962Y1211D01*
X2963Y1210D01*
X2963Y1209D01*
X2964Y1208D01*
X2964Y1207D01*
X2965Y1206D01*
X2965Y1204D01*
X2966Y1203D01*
X2966Y1202D01*
X2967Y1201D01*
X2967Y1200D01*
X2968Y1199D01*
X2968Y1197D01*
X2969Y1196D01*
X2969Y1194D01*
X2970Y1193D01*
X2970Y1191D01*
X2971Y1190D01*
X2971Y1189D01*
X2972Y1188D01*
X2972Y1186D01*
X2973Y1185D01*
X2973Y1182D01*
X2974Y1181D01*
X2974Y1179D01*
X2975Y1178D01*
X2975Y1175D01*
X2976Y1174D01*
X2976Y1171D01*
X2977Y1170D01*
X2977Y1167D01*
X2978Y1166D01*
X2978Y1163D01*
X2979Y1162D01*
X2979Y1158D01*
X2980Y1157D01*
X2980Y1152D01*
X2981Y1151D01*
X2981Y1144D01*
X2982Y1143D01*
X2982Y1135D01*
X2983Y1134D01*
X2983Y1096D01*
X2982Y1095D01*
X2982Y1086D01*
X2981Y1085D01*
X2981Y1080D01*
X2980Y1079D01*
X2980Y1074D01*
X2979Y1073D01*
X2979Y1069D01*
X2978Y1068D01*
X2978Y1064D01*
X2977Y1063D01*
X2977Y1060D01*
X2976Y1059D01*
X2976Y1057D01*
X2975Y1056D01*
X2975Y1053D01*
X2974Y1052D01*
X2974Y1050D01*
X2973Y1049D01*
X2973Y1047D01*
X2972Y1046D01*
X2972Y1044D01*
X2971Y1043D01*
X2971Y1041D01*
X2970Y1040D01*
X2970Y1038D01*
X2969Y1037D01*
X2969Y1035D01*
X2968Y1034D01*
X2968Y1033D01*
X2967Y1032D01*
X2967Y1030D01*
X2966Y1029D01*
X2966Y1028D01*
X2965Y1027D01*
X2965Y1026D01*
X2964Y1025D01*
X2964Y1023D01*
X2963Y1022D01*
X2963Y1021D01*
X2962Y1020D01*
X2962Y1019D01*
X2961Y1018D01*
X2961Y1017D01*
X2960Y1016D01*
X2960Y1015D01*
X2959Y1014D01*
X2959Y1013D01*
X2958Y1012D01*
X2958Y1011D01*
X2957Y1010D01*
X2957Y1009D01*
X2956Y1008D01*
X2956Y1007D01*
X2955Y1006D01*
X2954Y1005D01*
X2954Y1004D01*
X2953Y1003D01*
X2953Y1002D01*
X2952Y1001D01*
X2952Y1000D01*
X2951Y999D01*
X2950Y998D01*
X2950Y997D01*
X2949Y996D01*
X2949Y995D01*
X2948Y994D01*
X2947Y993D01*
X2947Y992D01*
X2946Y991D01*
X2945Y990D01*
X2945Y989D01*
X2944Y988D01*
X2943Y987D01*
X2943Y986D01*
X2942Y985D01*
X2941Y984D01*
X2941Y983D01*
X2940Y982D01*
X2939Y981D01*
X2939Y980D01*
X2938Y979D01*
X2937Y978D01*
X2936Y977D01*
X2936Y976D01*
X2935Y975D01*
X2934Y974D01*
X2933Y973D01*
X2933Y972D01*
X2932Y971D01*
X2931Y970D01*
X2930Y969D01*
X2930Y968D01*
X2929Y967D01*
X2928Y966D01*
X2927Y965D01*
X2926Y964D01*
X2926Y963D01*
X2925Y962D01*
X2924Y961D01*
X2923Y960D01*
X2922Y959D01*
X2921Y958D01*
X2921Y957D01*
X2920Y956D01*
X2919Y955D01*
X2918Y954D01*
X2917Y953D01*
X2916Y952D01*
X2915Y951D01*
X2914Y950D01*
X2913Y949D01*
X2912Y948D01*
X2911Y947D01*
X2911Y946D01*
X2912Y945D01*
X2913Y945D01*
X2914Y945D01*
X2915Y945D01*
X2916Y945D01*
X2917Y944D01*
X2918Y944D01*
X2919Y944D01*
X2920Y944D01*
X2921Y944D01*
X2922Y944D01*
X2923Y943D01*
X2924Y943D01*
X2925Y943D01*
X2926Y943D01*
X2927Y943D01*
X2928Y943D01*
X2929Y942D01*
X2930Y942D01*
X2931Y942D01*
X2932Y942D01*
X2933Y942D01*
X2934Y941D01*
X2935Y941D01*
X2936Y941D01*
X2937Y941D01*
X2938Y941D01*
X2939Y941D01*
X2940Y940D01*
X2941Y940D01*
X2942Y940D01*
X2943Y940D01*
X2944Y940D01*
X2945Y939D01*
X2946Y939D01*
X2947Y939D01*
X2948Y939D01*
X2949Y939D01*
X2950Y938D01*
X2951Y938D01*
X2952Y938D01*
X2953Y938D01*
X2954Y938D01*
X2955Y937D01*
X2956Y937D01*
X2957Y937D01*
X2958Y937D01*
X2959Y937D01*
X2960Y936D01*
X2961Y936D01*
X2962Y936D01*
X2963Y936D01*
X2964Y936D01*
X2965Y935D01*
X2966Y935D01*
X2967Y935D01*
X2968Y935D01*
X2969Y934D01*
X2970Y934D01*
X2971Y934D01*
X2972Y934D01*
X2973Y934D01*
X2974Y933D01*
X2975Y933D01*
X2976Y933D01*
X2977Y933D01*
X2978Y932D01*
X2979Y932D01*
X2980Y932D01*
X2981Y932D01*
X2982Y931D01*
X2983Y931D01*
X2984Y931D01*
X2985Y931D01*
X2986Y930D01*
X2987Y930D01*
X2988Y930D01*
X2989Y930D01*
X2990Y930D01*
X2991Y929D01*
X2992Y929D01*
X2993Y929D01*
X2994Y929D01*
X2995Y928D01*
X2996Y928D01*
X2997Y928D01*
X2998Y928D01*
X2999Y927D01*
X3000Y927D01*
X3001Y927D01*
X3002Y926D01*
X3003Y926D01*
X3004Y926D01*
X3005Y926D01*
X3006Y925D01*
X3007Y925D01*
X3008Y925D01*
X3009Y925D01*
X3010Y924D01*
X3011Y924D01*
X3012Y924D01*
X3013Y924D01*
X3014Y923D01*
X3015Y923D01*
X3016Y923D01*
X3017Y922D01*
X3018Y922D01*
X3019Y922D01*
X3020Y922D01*
X3021Y921D01*
X3022Y921D01*
X3023Y921D01*
X3024Y920D01*
X3025Y920D01*
X3026Y920D01*
X3027Y920D01*
X3028Y919D01*
X3029Y919D01*
X3030Y919D01*
X3031Y918D01*
X3032Y918D01*
X3033Y918D01*
X3034Y918D01*
X3035Y917D01*
X3036Y917D01*
X3037Y917D01*
X3038Y916D01*
X3039Y916D01*
X3040Y916D01*
X3041Y915D01*
X3042Y915D01*
X3043Y915D01*
X3044Y914D01*
X3045Y914D01*
X3046Y914D01*
X3047Y913D01*
X3048Y913D01*
X3049Y913D01*
X3050Y913D01*
X3051Y912D01*
X3052Y912D01*
X3053Y912D01*
X3054Y911D01*
X3055Y911D01*
X3056Y911D01*
X3057Y910D01*
X3058Y910D01*
X3059Y910D01*
X3060Y909D01*
X3061Y909D01*
X3062Y909D01*
X3063Y908D01*
X3064Y908D01*
X3065Y907D01*
X3066Y907D01*
X3067Y907D01*
X3068Y906D01*
X3069Y906D01*
X3070Y906D01*
X3071Y905D01*
X3072Y905D01*
X3073Y905D01*
X3074Y904D01*
X3075Y904D01*
X3076Y904D01*
X3077Y903D01*
X3078Y903D01*
X3079Y903D01*
X3080Y902D01*
X3081Y902D01*
X3082Y901D01*
X3083Y901D01*
X3084Y901D01*
X3085Y900D01*
X3086Y900D01*
X3087Y900D01*
X3088Y899D01*
X3089Y899D01*
X3090Y898D01*
X3091Y898D01*
X3092Y898D01*
X3093Y897D01*
X3094Y897D01*
X3095Y896D01*
X3096Y896D01*
X3097Y896D01*
X3098Y895D01*
X3099Y895D01*
X3100Y894D01*
X3101Y894D01*
X3102Y894D01*
X3103Y893D01*
X3104Y893D01*
X3105Y892D01*
X3106Y892D01*
X3107Y892D01*
X3108Y891D01*
X3109Y891D01*
X3110Y890D01*
X3111Y890D01*
X3112Y890D01*
X3113Y889D01*
X3114Y889D01*
X3115Y888D01*
X3116Y888D01*
X3117Y887D01*
X3118Y887D01*
X3119Y887D01*
X3120Y886D01*
X3121Y886D01*
X3122Y885D01*
X3123Y885D01*
X3124Y884D01*
X3125Y884D01*
X3126Y884D01*
X3127Y883D01*
X3128Y883D01*
X3129Y882D01*
X3130Y882D01*
X3131Y881D01*
X3132Y881D01*
X3133Y880D01*
X3134Y880D01*
X3135Y879D01*
X3136Y879D01*
X3137Y879D01*
X3138Y878D01*
X3139Y878D01*
X3140Y877D01*
X3141Y877D01*
X3142Y876D01*
X3143Y876D01*
X3144Y875D01*
X3145Y875D01*
X3146Y874D01*
X3147Y874D01*
X3148Y873D01*
X3149Y873D01*
X3150Y872D01*
X3151Y872D01*
X3152Y871D01*
X3153Y871D01*
X3154Y870D01*
X3155Y870D01*
X3156Y869D01*
X3157Y869D01*
X3158Y868D01*
X3159Y868D01*
X3160Y867D01*
X3161Y867D01*
X3162Y866D01*
X3163Y866D01*
X3164Y865D01*
X3165Y865D01*
X3166Y864D01*
X3167Y864D01*
X3168Y863D01*
X3169Y863D01*
X3170Y862D01*
X3171Y862D01*
X3172Y861D01*
X3173Y861D01*
X3174Y860D01*
X3175Y859D01*
X3176Y859D01*
X3177Y858D01*
X3178Y858D01*
X3179Y857D01*
X3180Y857D01*
X3181Y856D01*
X3182Y856D01*
X3183Y855D01*
X3184Y855D01*
X3185Y854D01*
X3186Y853D01*
X3187Y853D01*
X3188Y852D01*
X3189Y852D01*
X3190Y851D01*
X3191Y851D01*
X3192Y850D01*
X3193Y849D01*
X3194Y849D01*
X3195Y848D01*
X3196Y848D01*
X3197Y847D01*
X3198Y846D01*
X3199Y846D01*
X3200Y845D01*
X3201Y845D01*
X3202Y844D01*
X3203Y843D01*
X3204Y843D01*
X3205Y842D01*
X3206Y842D01*
X3207Y841D01*
X3208Y840D01*
X3209Y840D01*
X3210Y839D01*
X3211Y839D01*
X3212Y838D01*
X3213Y837D01*
X3214Y837D01*
X3215Y836D01*
X3216Y835D01*
X3217Y835D01*
X3218Y834D01*
X3219Y834D01*
X3220Y833D01*
X3221Y832D01*
X3222Y832D01*
X3223Y831D01*
X3224Y830D01*
X3225Y830D01*
X3226Y829D01*
X3227Y828D01*
X3228Y828D01*
X3229Y827D01*
X3230Y826D01*
X3231Y826D01*
X3232Y825D01*
X3233Y824D01*
X3234Y824D01*
X3235Y823D01*
X3236Y822D01*
X3237Y822D01*
X3238Y821D01*
X3239Y820D01*
X3240Y819D01*
X3241Y819D01*
X3242Y818D01*
X3243Y817D01*
X3244Y817D01*
X3245Y816D01*
X3246Y815D01*
X3247Y814D01*
X3248Y814D01*
X3249Y813D01*
X3250Y812D01*
X3251Y812D01*
X3252Y811D01*
X3253Y810D01*
X3254Y809D01*
X3255Y809D01*
X3256Y808D01*
X3257Y807D01*
X3258Y806D01*
X3259Y806D01*
X3260Y805D01*
X3261Y804D01*
X3262Y803D01*
X3263Y803D01*
X3264Y802D01*
X3265Y801D01*
X3266Y800D01*
X3267Y800D01*
X3268Y799D01*
X3269Y798D01*
X3270Y797D01*
X3271Y796D01*
X3272Y796D01*
X3273Y795D01*
X3274Y794D01*
X3275Y793D01*
X3276Y792D01*
X3277Y792D01*
X3278Y791D01*
X3279Y790D01*
X3280Y789D01*
X3281Y788D01*
X3282Y787D01*
X3283Y787D01*
X3284Y786D01*
X3285Y785D01*
X3286Y784D01*
X3287Y783D01*
X3288Y782D01*
X3289Y782D01*
X3290Y781D01*
X3291Y780D01*
X3292Y779D01*
X3293Y778D01*
X3294Y777D01*
X3295Y776D01*
X3296Y776D01*
X3297Y775D01*
X3298Y774D01*
X3299Y773D01*
X3300Y772D01*
X3301Y771D01*
X3302Y770D01*
X3303Y769D01*
X3304Y768D01*
X3305Y767D01*
X3306Y767D01*
X3307Y766D01*
X3308Y765D01*
X3309Y764D01*
X3310Y763D01*
X3311Y762D01*
X3312Y761D01*
X3313Y760D01*
X3314Y759D01*
X3315Y758D01*
X3316Y757D01*
X3317Y756D01*
X3318Y755D01*
X3319Y754D01*
X3320Y753D01*
X3321Y752D01*
X3322Y751D01*
X3323Y750D01*
X3324Y749D01*
X3325Y748D01*
X3326Y747D01*
X3327Y746D01*
X3328Y745D01*
X3329Y744D01*
X3330Y743D01*
X3331Y742D01*
X3332Y741D01*
X3333Y740D01*
X3334Y739D01*
X3335Y738D01*
X3336Y737D01*
X3337Y736D01*
X3337Y735D01*
X3338Y734D01*
X3339Y733D01*
X3340Y732D01*
X3341Y731D01*
X3342Y730D01*
X3343Y729D01*
X3344Y728D01*
X3345Y727D01*
X3345Y726D01*
X3346Y725D01*
X3347Y724D01*
X3348Y723D01*
X3349Y722D01*
X3350Y721D01*
X3351Y720D01*
X3351Y719D01*
X3352Y718D01*
X3353Y717D01*
X3354Y716D01*
X3355Y715D01*
X3356Y714D01*
X3356Y713D01*
X3357Y712D01*
X3358Y711D01*
X3359Y710D01*
X3360Y709D01*
X3360Y708D01*
X3361Y707D01*
X3362Y706D01*
X3363Y705D01*
X3363Y704D01*
X3364Y703D01*
X3365Y702D01*
X3366Y701D01*
X3366Y700D01*
X3367Y699D01*
X3368Y698D01*
X3369Y697D01*
X3369Y696D01*
X3370Y695D01*
X3371Y694D01*
X3372Y693D01*
X3372Y692D01*
X3373Y691D01*
X3374Y690D01*
X3374Y689D01*
X3375Y688D01*
X3376Y687D01*
X3376Y686D01*
X3377Y685D01*
X3378Y684D01*
X3378Y683D01*
X3379Y682D01*
X3380Y681D01*
X3380Y680D01*
X3381Y679D01*
X3382Y678D01*
X3382Y677D01*
X3383Y676D01*
X3384Y675D01*
X3384Y674D01*
X3385Y673D01*
X3386Y672D01*
X3386Y671D01*
X3387Y670D01*
X3387Y669D01*
X3388Y668D01*
X3389Y667D01*
X3389Y666D01*
X3390Y665D01*
X3390Y664D01*
X3391Y663D01*
X3392Y662D01*
X3392Y661D01*
X3393Y660D01*
X3393Y659D01*
X3394Y658D01*
X3394Y657D01*
X3395Y656D01*
X3395Y655D01*
X3396Y654D01*
X3397Y653D01*
X3397Y652D01*
X3398Y651D01*
X3398Y650D01*
X3399Y649D01*
X3399Y648D01*
X3400Y647D01*
X3400Y646D01*
X3401Y645D01*
X3401Y644D01*
X3402Y643D01*
X3402Y642D01*
X3403Y641D01*
X3403Y640D01*
X3404Y639D01*
X3404Y638D01*
X3405Y637D01*
X3405Y636D01*
X3406Y635D01*
X3406Y634D01*
X3407Y633D01*
X3407Y632D01*
X3408Y631D01*
X3408Y629D01*
X3409Y628D01*
X3409Y627D01*
X3410Y626D01*
X3410Y625D01*
X3411Y624D01*
X3411Y623D01*
X3412Y622D01*
X3412Y620D01*
X3413Y619D01*
X3413Y618D01*
X3414Y617D01*
X3414Y615D01*
X3415Y614D01*
X3415Y613D01*
X3416Y612D01*
X3416Y610D01*
X3417Y609D01*
X3417Y607D01*
X3418Y606D01*
X3418Y605D01*
X3419Y604D01*
X3419Y602D01*
X3420Y601D01*
X3420Y599D01*
X3421Y598D01*
X3421Y596D01*
X3422Y595D01*
X3422Y593D01*
X3423Y592D01*
X3423Y590D01*
X3424Y589D01*
X3424Y586D01*
X3425Y585D01*
X3425Y583D01*
X3426Y582D01*
X3426Y579D01*
X3427Y578D01*
X3427Y575D01*
X3428Y574D01*
X3428Y571D01*
X3429Y570D01*
X3429Y567D01*
X3430Y566D01*
X3430Y563D01*
X3431Y562D01*
X3431Y558D01*
X3432Y557D01*
X3432Y553D01*
X3433Y552D01*
X3433Y547D01*
X3434Y546D01*
X3434Y541D01*
X3435Y540D01*
X3435Y533D01*
X3436Y532D01*
X3436Y524D01*
X3437Y523D01*
X3437Y511D01*
X3438Y510D01*
X3438Y468D01*
X3437Y467D01*
X3437Y455D01*
X3436Y454D01*
X3436Y446D01*
X3435Y445D01*
X3435Y439D01*
X3434Y438D01*
X3434Y432D01*
X3433Y431D01*
X3433Y426D01*
X3432Y425D01*
X3432Y421D01*
X3431Y420D01*
X3431Y416D01*
X3430Y415D01*
X3430Y412D01*
X3429Y411D01*
X3429Y407D01*
X3428Y406D01*
X3428Y403D01*
X3427Y402D01*
X3427Y400D01*
X3426Y399D01*
X3426Y396D01*
X3425Y395D01*
X3425Y392D01*
X3424Y391D01*
X3424Y389D01*
X3423Y388D01*
X3423Y386D01*
X3422Y385D01*
X3422Y383D01*
X3421Y382D01*
X3421Y380D01*
X3420Y379D01*
X3420Y377D01*
X3419Y376D01*
X3419Y374D01*
X3418Y373D01*
X3418Y371D01*
X3417Y370D01*
X3417Y368D01*
X3416Y367D01*
X3416Y366D01*
X3415Y365D01*
X3415Y363D01*
X3414Y362D01*
X3414Y361D01*
X3413Y360D01*
X3413Y358D01*
X3412Y357D01*
X3412Y356D01*
X3411Y355D01*
X3411Y353D01*
X3410Y352D01*
X3410Y351D01*
X3409Y350D01*
X3409Y349D01*
X3408Y348D01*
X3408Y347D01*
X3407Y346D01*
X3407Y344D01*
X3406Y343D01*
X3406Y342D01*
X3405Y341D01*
X3405Y340D01*
X3404Y339D01*
X3404Y338D01*
X3403Y337D01*
X3403Y336D01*
X3402Y335D01*
X3402Y334D01*
X3401Y333D01*
X3401Y332D01*
X3400Y331D01*
X3400Y330D01*
X3399Y329D01*
X3399Y328D01*
X3398Y327D01*
X3398Y326D01*
X3397Y325D01*
X3396Y324D01*
X3396Y323D01*
X3395Y322D01*
X3395Y321D01*
X3394Y320D01*
X3394Y319D01*
X3393Y318D01*
X3393Y317D01*
X3392Y316D01*
X3391Y315D01*
X3391Y314D01*
X3390Y313D01*
X3390Y312D01*
X3389Y311D01*
X3388Y310D01*
X3388Y309D01*
X3387Y308D01*
X3387Y307D01*
X3386Y306D01*
X3385Y305D01*
X3385Y304D01*
X3384Y303D01*
X3384Y302D01*
X3383Y301D01*
X3382Y300D01*
X3382Y299D01*
X3381Y298D01*
X3380Y297D01*
X3380Y296D01*
X3379Y295D01*
X3378Y294D01*
X3378Y293D01*
X3377Y292D01*
X3376Y291D01*
X3376Y290D01*
X3375Y289D01*
X3374Y288D01*
X3373Y287D01*
X3373Y286D01*
X3372Y285D01*
X3371Y284D01*
X3371Y283D01*
X3370Y282D01*
X3369Y281D01*
X3368Y280D01*
X3368Y279D01*
X3367Y278D01*
X3366Y277D01*
X3365Y276D01*
X3365Y275D01*
X3364Y274D01*
X3363Y273D01*
X3362Y272D01*
X3362Y271D01*
X3361Y270D01*
X3360Y269D01*
X3359Y268D01*
X3359Y267D01*
X3358Y266D01*
X3357Y265D01*
X3356Y264D01*
X3355Y263D01*
X3354Y262D01*
X3354Y261D01*
X3353Y260D01*
X3352Y259D01*
X3351Y258D01*
X3350Y257D01*
X3349Y256D01*
X3349Y255D01*
X3348Y254D01*
X3347Y253D01*
X3346Y252D01*
X3345Y251D01*
X3344Y250D01*
X3343Y249D01*
X3342Y248D01*
X3342Y247D01*
X3341Y246D01*
X3340Y245D01*
X3339Y244D01*
X3338Y243D01*
X3337Y242D01*
X3336Y241D01*
X3335Y240D01*
X3334Y239D01*
X3333Y238D01*
X3332Y237D01*
X3331Y236D01*
X3330Y235D01*
X3329Y234D01*
X3328Y233D01*
X3327Y232D01*
X3327Y231D01*
X3326Y230D01*
X3325Y229D01*
X3324Y228D01*
X3323Y227D01*
X3322Y226D01*
X3321Y225D01*
X3320Y225D01*
X3319Y224D01*
X3318Y223D01*
X3317Y222D01*
X3316Y221D01*
X3315Y220D01*
X3314Y219D01*
X3313Y218D01*
X3312Y217D01*
X3311Y216D01*
X3310Y215D01*
X3309Y214D01*
X3308Y213D01*
X3307Y212D01*
X3306Y211D01*
X3305Y210D01*
X3304Y210D01*
X3303Y209D01*
X3302Y208D01*
X3301Y207D01*
X3300Y206D01*
X3299Y205D01*
X3298Y204D01*
X3297Y203D01*
X3296Y202D01*
X3295Y202D01*
X3294Y201D01*
X3293Y200D01*
X3292Y199D01*
X3291Y198D01*
X3290Y197D01*
X3289Y197D01*
X3288Y196D01*
X3287Y195D01*
X3286Y194D01*
X3285Y193D01*
X3284Y192D01*
X3283Y192D01*
X3282Y191D01*
X3281Y190D01*
X3280Y189D01*
X3279Y188D01*
X3278Y188D01*
X3277Y187D01*
X3276Y186D01*
X3275Y185D01*
X3274Y184D01*
X3273Y184D01*
X3272Y183D01*
X3271Y182D01*
X3270Y181D01*
X3269Y180D01*
X3268Y180D01*
X3267Y179D01*
X3266Y178D01*
X3265Y177D01*
X3264Y177D01*
X3263Y176D01*
X3262Y175D01*
X3261Y174D01*
X3260Y174D01*
X3259Y173D01*
X3258Y172D01*
X3257Y171D01*
X3256Y171D01*
X3255Y170D01*
X3254Y169D01*
X3253Y169D01*
X3252Y168D01*
X3251Y167D01*
X3250Y166D01*
X3249Y166D01*
X3248Y165D01*
X3247Y164D01*
X3246Y164D01*
X3245Y163D01*
X3244Y162D01*
X3243Y161D01*
X3242Y161D01*
X3241Y160D01*
X3240Y159D01*
X3239Y159D01*
X3238Y158D01*
X3237Y157D01*
X3236Y157D01*
X3235Y156D01*
X3234Y155D01*
X3233Y155D01*
X3232Y154D01*
X3231Y153D01*
X3230Y153D01*
X3229Y152D01*
X3228Y151D01*
X3227Y151D01*
X3226Y150D01*
X3225Y149D01*
X3224Y149D01*
X3223Y148D01*
X3222Y147D01*
X3221Y147D01*
X3220Y146D01*
X3219Y145D01*
X3218Y145D01*
X3217Y144D01*
X3216Y143D01*
X3215Y143D01*
X3214Y142D01*
X3213Y142D01*
X3212Y141D01*
X3211Y140D01*
X3210Y140D01*
X3209Y139D01*
X3208Y138D01*
X3207Y138D01*
X3206Y137D01*
X3205Y137D01*
X3204Y136D01*
X3203Y135D01*
X3202Y135D01*
X3201Y134D01*
X3200Y134D01*
X3199Y133D01*
X3198Y132D01*
X3197Y132D01*
X3196Y131D01*
X3195Y131D01*
X3194Y130D01*
X3193Y129D01*
X3192Y129D01*
X3191Y128D01*
X3190Y128D01*
X3189Y127D01*
X3188Y127D01*
X3187Y126D01*
X3186Y125D01*
X3185Y125D01*
X3184Y124D01*
X3183Y124D01*
X3182Y123D01*
X3181Y123D01*
X3180Y122D01*
X3179Y122D01*
X3178Y121D01*
X3177Y120D01*
X3176Y120D01*
X3175Y119D01*
X3174Y119D01*
X3173Y118D01*
X3172Y118D01*
X3171Y117D01*
X3170Y117D01*
X3169Y116D01*
X3168Y116D01*
X3167Y115D01*
X3166Y114D01*
X3165Y114D01*
X3164Y113D01*
X3163Y113D01*
X3162Y112D01*
X3161Y112D01*
X3160Y111D01*
X3159Y111D01*
X3158Y110D01*
X3157Y110D01*
X3156Y109D01*
X3155Y109D01*
X3154Y108D01*
X3153Y108D01*
X3152Y107D01*
X3151Y107D01*
X3150Y106D01*
X3149Y106D01*
X3148Y105D01*
X3147Y105D01*
X3146Y104D01*
X3145Y104D01*
X3144Y103D01*
X3143Y103D01*
X3142Y102D01*
X3141Y102D01*
X3140Y101D01*
X3139Y101D01*
X3138Y100D01*
X3137Y100D01*
X3136Y99D01*
X3135Y99D01*
X3134Y99D01*
X3133Y98D01*
X3132Y98D01*
X3131Y97D01*
X3130Y97D01*
X3129Y96D01*
X3128Y96D01*
X3127Y95D01*
X3126Y95D01*
X3125Y94D01*
X3124Y94D01*
X3123Y94D01*
X3122Y93D01*
X3121Y93D01*
X3120Y92D01*
X3119Y92D01*
X3118Y91D01*
X3117Y91D01*
X3116Y90D01*
X3115Y90D01*
X3114Y90D01*
X3113Y89D01*
X3112Y89D01*
X3111Y88D01*
X3110Y88D01*
X3109Y87D01*
X3108Y87D01*
X3107Y87D01*
X3106Y86D01*
X3105Y86D01*
X3104Y85D01*
X3103Y85D01*
X3102Y84D01*
X3101Y84D01*
X3100Y84D01*
X3099Y83D01*
X3098Y83D01*
X3097Y82D01*
X3096Y82D01*
X3095Y82D01*
X3094Y81D01*
X3093Y81D01*
X3092Y80D01*
X3091Y80D01*
X3090Y80D01*
X3089Y79D01*
X3088Y79D01*
X3087Y79D01*
X3086Y78D01*
X3085Y78D01*
X3084Y77D01*
X3083Y77D01*
X3082Y77D01*
X3081Y76D01*
X3080Y76D01*
X3079Y75D01*
X3078Y75D01*
X3077Y75D01*
X3076Y74D01*
X3075Y74D01*
X3074Y74D01*
X3073Y73D01*
X3072Y73D01*
X3071Y73D01*
X3070Y72D01*
X3069Y72D01*
X3068Y71D01*
X3067Y71D01*
X3066Y71D01*
X3065Y70D01*
X3064Y70D01*
X3063Y70D01*
X3062Y69D01*
X3061Y69D01*
X3060Y69D01*
X3059Y68D01*
X3058Y68D01*
X3057Y68D01*
X3056Y67D01*
X3055Y67D01*
X3054Y67D01*
X3053Y66D01*
X3052Y66D01*
X3051Y66D01*
X3050Y65D01*
X3049Y65D01*
X3048Y65D01*
X3047Y64D01*
X3046Y64D01*
X3045Y64D01*
X3044Y63D01*
X3043Y63D01*
X3042Y63D01*
X3041Y62D01*
X3040Y62D01*
X3039Y62D01*
X3038Y61D01*
X3037Y61D01*
X3036Y61D01*
X3035Y60D01*
X3034Y60D01*
X3033Y60D01*
X3032Y60D01*
X3031Y59D01*
X3030Y59D01*
X3029Y59D01*
X3028Y58D01*
X3027Y58D01*
X3026Y58D01*
X3025Y57D01*
X3024Y57D01*
X3023Y57D01*
X3022Y57D01*
X3021Y56D01*
X3020Y56D01*
X3019Y56D01*
X3018Y55D01*
X3017Y55D01*
X3016Y55D01*
X3015Y55D01*
X3014Y54D01*
X3013Y54D01*
X3012Y54D01*
X3011Y53D01*
X3010Y53D01*
X3009Y53D01*
X3008Y53D01*
X3007Y52D01*
X3006Y52D01*
X3005Y52D01*
X3004Y52D01*
X3003Y51D01*
X3002Y51D01*
X3001Y51D01*
X3000Y51D01*
X2999Y50D01*
X2998Y50D01*
X2997Y50D01*
X2996Y49D01*
X2995Y49D01*
X2994Y49D01*
X2993Y49D01*
X2992Y48D01*
X2991Y48D01*
X2990Y48D01*
X2989Y48D01*
X2988Y47D01*
X2987Y47D01*
X2986Y47D01*
X2985Y47D01*
X2984Y47D01*
X2983Y46D01*
X2982Y46D01*
X2981Y46D01*
X2980Y46D01*
X2979Y45D01*
X2978Y45D01*
X2977Y45D01*
X2976Y45D01*
X2975Y44D01*
X2974Y44D01*
X2973Y44D01*
X2972Y44D01*
X2971Y44D01*
X2970Y43D01*
X2969Y43D01*
X2968Y43D01*
X2967Y43D01*
X2966Y42D01*
X2965Y42D01*
X2964Y42D01*
X2963Y42D01*
X2962Y42D01*
X2961Y41D01*
X2960Y41D01*
X2959Y41D01*
X2958Y41D01*
X2957Y41D01*
X2956Y40D01*
X2955Y40D01*
X2954Y40D01*
X2953Y40D01*
X2952Y40D01*
X2951Y39D01*
X2950Y39D01*
X2949Y39D01*
X2948Y39D01*
X2947Y39D01*
X2946Y38D01*
X2945Y38D01*
X2944Y38D01*
X2943Y38D01*
X2942Y38D01*
X2941Y37D01*
X2940Y37D01*
X2939Y37D01*
X2938Y37D01*
X2937Y37D01*
X2936Y36D01*
X2935Y36D01*
X2934Y36D01*
X2933Y36D01*
X2932Y36D01*
X2931Y36D01*
X2930Y35D01*
X2929Y35D01*
X2928Y35D01*
X2927Y35D01*
X2926Y35D01*
X2925Y35D01*
X2924Y34D01*
X2923Y34D01*
X2922Y34D01*
X2921Y34D01*
X2920Y34D01*
X2919Y34D01*
X2918Y33D01*
X2917Y33D01*
X2916Y33D01*
X2915Y33D01*
X2914Y33D01*
X2913Y33D01*
X2912Y33D01*
X2911Y32D01*
X2910Y32D01*
X2909Y32D01*
X2908Y32D01*
X2907Y32D01*
X2906Y32D01*
X2905Y31D01*
X2904Y31D01*
X2903Y31D01*
X2902Y31D01*
X2901Y31D01*
X2900Y31D01*
X2899Y31D01*
X2898Y30D01*
X2897Y30D01*
X2896Y30D01*
X2895Y30D01*
X2894Y30D01*
X2893Y30D01*
X2892Y30D01*
X2891Y30D01*
X2890Y29D01*
X2889Y29D01*
X2888Y29D01*
X2887Y29D01*
X2886Y29D01*
X2885Y29D01*
X2884Y29D01*
X2883Y29D01*
X2882Y28D01*
X2881Y28D01*
X2880Y28D01*
X2879Y28D01*
X2878Y28D01*
X2877Y28D01*
X2876Y28D01*
X2875Y28D01*
X2874Y27D01*
X2873Y27D01*
X2872Y27D01*
X2871Y27D01*
X2870Y27D01*
X2869Y27D01*
X2868Y27D01*
X2867Y27D01*
X2866Y27D01*
X2865Y27D01*
X2864Y26D01*
X2863Y26D01*
X2862Y26D01*
X2861Y26D01*
X2860Y26D01*
X2859Y26D01*
X2858Y26D01*
X2857Y26D01*
X2856Y26D01*
X2855Y26D01*
X2854Y25D01*
X2853Y25D01*
X2852Y25D01*
X2851Y25D01*
X2850Y25D01*
X2849Y25D01*
X2848Y25D01*
X2847Y25D01*
X2846Y25D01*
X2845Y25D01*
X2844Y25D01*
X2843Y25D01*
X2842Y24D01*
X2841Y24D01*
X2840Y24D01*
X2839Y24D01*
X2838Y24D01*
X2837Y24D01*
X2836Y24D01*
X2835Y24D01*
X2834Y24D01*
X2833Y24D01*
X2832Y24D01*
X2831Y24D01*
X2830Y24D01*
X2829Y24D01*
X2828Y23D01*
X2827Y23D01*
X2826Y23D01*
X2825Y23D01*
X2824Y23D01*
X2823Y23D01*
X2822Y23D01*
X2821Y23D01*
X2820Y23D01*
X2819Y23D01*
X2818Y23D01*
X2817Y23D01*
X2816Y23D01*
X2815Y23D01*
X2814Y23D01*
X2813Y23D01*
X2812Y23D01*
X2811Y22D01*
X2810Y22D01*
X2809Y22D01*
X2808Y22D01*
X2807Y22D01*
X2806Y22D01*
X2805Y22D01*
X2804Y22D01*
X2803Y22D01*
X2802Y22D01*
X2801Y22D01*
X2800Y22D01*
X2799Y22D01*
X2798Y22D01*
X2797Y22D01*
X2796Y22D01*
X2795Y22D01*
X2794Y22D01*
X2793Y22D01*
X2792Y22D01*
X2791Y22D01*
X2790Y22D01*
X2789Y22D01*
X2788Y22D01*
X2787Y22D01*
X2786Y22D01*
X2785Y22D01*
X2784Y21D01*
X2783Y21D01*
X2782Y21D01*
X2781Y21D01*
X2780Y21D01*
X2779Y21D01*
X2778Y21D01*
X2777Y21D01*
X2776Y21D01*
X2775Y21D01*
X2774Y21D01*
X2773Y21D01*
X2772Y21D01*
X2771Y21D01*
X2770Y21D01*
X2769Y21D01*
X2768Y21D01*
X2767Y21D01*
X2766Y21D01*
X2765Y21D01*
X2764Y21D01*
X2763Y21D01*
X2762Y21D01*
X2761Y21D01*
X2760Y21D01*
X2759Y21D01*
X2758Y21D01*
X2757Y21D01*
X2756Y21D01*
X2755Y21D01*
X2754Y21D01*
X2753Y21D01*
X2752Y21D01*
X2751Y21D01*
X2750Y21D01*
X2749Y21D01*
X2748Y21D01*
X2747Y21D01*
X2746Y21D01*
X2745Y21D01*
X2744Y21D01*
X2743Y21D01*
X2742Y21D01*
X2741Y21D01*
X2740Y21D01*
X2739Y21D01*
X2738Y21D01*
X2737Y21D01*
X2736Y21D01*
X2735Y21D01*
X2734Y21D01*
X2733Y21D01*
X2732Y21D01*
X2731Y21D01*
X2730Y21D01*
X2729Y21D01*
X2728Y21D01*
X2727Y21D01*
X2726Y21D01*
X2725Y21D01*
X2724Y21D01*
X2723Y21D01*
X2722Y21D01*
X2721Y21D01*
X2720Y21D01*
X2719Y21D01*
X2718Y21D01*
X2717Y21D01*
X2716Y21D01*
X2715Y21D01*
X2714Y21D01*
X2713Y21D01*
X2712Y21D01*
X2711Y21D01*
X2710Y21D01*
X2709Y21D01*
X2708Y21D01*
X2707Y21D01*
X2706Y21D01*
X2705Y21D01*
X2704Y21D01*
X2703Y21D01*
X2702Y21D01*
X2701Y21D01*
X2700Y21D01*
X2699Y21D01*
X2698Y21D01*
X2697Y21D01*
X2696Y21D01*
X2695Y21D01*
X2694Y21D01*
X2693Y21D01*
X2692Y21D01*
X2691Y21D01*
X2690Y21D01*
X2689Y21D01*
X2688Y21D01*
X2687Y21D01*
X2686Y21D01*
X2685Y21D01*
X2684Y21D01*
X2683Y21D01*
X2682Y21D01*
X2681Y21D01*
X2680Y21D01*
X2679Y21D01*
X2678Y21D01*
X2677Y21D01*
X2676Y21D01*
X2675Y21D01*
X2674Y21D01*
X2673Y21D01*
X2672Y21D01*
X2671Y21D01*
X2670Y21D01*
X2669Y21D01*
X2668Y21D01*
X2667Y21D01*
X2666Y21D01*
X2665Y21D01*
X2664Y21D01*
X2663Y21D01*
X2662Y21D01*
X2661Y21D01*
X2660Y21D01*
X2659Y21D01*
X2658Y21D01*
X2657Y21D01*
X2656Y21D01*
X2655Y21D01*
X2654Y21D01*
X2653Y21D01*
X2652Y21D01*
X2651Y21D01*
X2650Y21D01*
X2649Y21D01*
X2648Y21D01*
X2647Y21D01*
X2646Y21D01*
X2645Y21D01*
X2644Y21D01*
X2643Y21D01*
X2642Y21D01*
X2641Y21D01*
X2640Y21D01*
X2639Y21D01*
X2638Y21D01*
X2637Y21D01*
X2636Y21D01*
X2635Y21D01*
X2634Y21D01*
X2633Y21D01*
X2632Y21D01*
X2631Y21D01*
X2630Y21D01*
X2629Y21D01*
X2628Y21D01*
X2627Y21D01*
X2626Y21D01*
X2625Y21D01*
X2624Y21D01*
X2623Y21D01*
X2622Y21D01*
X2621Y21D01*
X2620Y21D01*
X2619Y21D01*
X2618Y21D01*
X2617Y21D01*
X2616Y21D01*
X2615Y21D01*
X2614Y21D01*
X2613Y21D01*
X2612Y21D01*
X2611Y21D01*
X2610Y21D01*
X2609Y21D01*
X2608Y21D01*
X2607Y21D01*
X2606Y21D01*
X2605Y21D01*
X2604Y21D01*
X2603Y21D01*
X2602Y21D01*
X2601Y21D01*
X2600Y21D01*
X2599Y21D01*
X2598Y21D01*
X2597Y21D01*
X2596Y21D01*
X2595Y21D01*
X2594Y21D01*
X2593Y21D01*
X2592Y21D01*
X2591Y21D01*
X2590Y21D01*
X2589Y21D01*
X2588Y21D01*
X2587Y21D01*
X2586Y21D01*
X2585Y21D01*
X2584Y21D01*
X2583Y21D01*
X2582Y21D01*
X2581Y21D01*
X2580Y21D01*
X2579Y21D01*
X2578Y21D01*
X2577Y21D01*
X2576Y21D01*
X2575Y21D01*
X2574Y21D01*
X2573Y21D01*
X2572Y21D01*
X2571Y21D01*
X2570Y21D01*
X2569Y21D01*
X2568Y21D01*
X2567Y21D01*
X2566Y21D01*
X2565Y21D01*
X2564Y21D01*
X2563Y21D01*
X2562Y21D01*
X2561Y21D01*
X2560Y21D01*
X2559Y21D01*
X2558Y21D01*
X2557Y21D01*
X2556Y21D01*
X2555Y21D01*
X2554Y21D01*
X2553Y21D01*
X2552Y21D01*
X2551Y21D01*
X2550Y21D01*
X2549Y21D01*
X2548Y21D01*
X2547Y21D01*
X2546Y21D01*
X2545Y21D01*
X2544Y21D01*
X2543Y21D01*
X2542Y21D01*
X2541Y21D01*
X2540Y21D01*
X2539Y21D01*
X2538Y21D01*
X2537Y21D01*
X2536Y21D01*
X2535Y21D01*
X2534Y21D01*
X2533Y21D01*
X2532Y21D01*
X2531Y21D01*
X2530Y21D01*
X2529Y21D01*
X2528Y21D01*
X2527Y21D01*
X2526Y21D01*
X2525Y21D01*
X2524Y21D01*
X2523Y21D01*
X2522Y21D01*
X2521Y21D01*
X2520Y21D01*
X2519Y21D01*
X2518Y21D01*
X2517Y21D01*
X2516Y21D01*
X2515Y21D01*
X2514Y21D01*
X2513Y21D01*
X2512Y21D01*
X2511Y21D01*
X2510Y21D01*
X2509Y21D01*
X2508Y21D01*
X2507Y21D01*
X2506Y21D01*
X2505Y21D01*
X2504Y21D01*
X2503Y21D01*
X2502Y21D01*
X2501Y21D01*
X2500Y21D01*
X2499Y21D01*
X2498Y21D01*
X2497Y21D01*
X2496Y21D01*
X2495Y21D01*
X2494Y21D01*
X2493Y21D01*
X2492Y21D01*
X2491Y21D01*
X2490Y21D01*
X2489Y21D01*
X2488Y21D01*
X2487Y21D01*
X2486Y21D01*
X2485Y21D01*
X2484Y21D01*
X2483Y21D01*
X2482Y21D01*
X2481Y21D01*
X2480Y21D01*
X2479Y21D01*
X2478Y21D01*
X2477Y21D01*
X2476Y21D01*
X2475Y21D01*
X2474Y21D01*
X2473Y21D01*
X2472Y21D01*
X2471Y21D01*
X2470Y21D01*
X2469Y21D01*
X2468Y21D01*
X2467Y21D01*
X2466Y21D01*
X2465Y21D01*
X2464Y21D01*
X2463Y21D01*
X2462Y21D01*
X2461Y21D01*
X2460Y21D01*
X2459Y21D01*
X2458Y21D01*
X2457Y21D01*
X2456Y21D01*
X2455Y21D01*
X2454Y21D01*
X2453Y21D01*
X2452Y21D01*
X2451Y21D01*
X2450Y21D01*
X2449Y21D01*
X2448Y21D01*
X2447Y21D01*
X2446Y21D01*
X2445Y21D01*
X2444Y21D01*
X2443Y21D01*
X2442Y21D01*
X2441Y21D01*
X2440Y21D01*
X2439Y21D01*
X2438Y21D01*
X2437Y21D01*
X2436Y21D01*
X2435Y21D01*
X2434Y21D01*
X2433Y21D01*
X2432Y21D01*
X2431Y21D01*
X2430Y21D01*
X2429Y21D01*
X2428Y21D01*
X2427Y21D01*
X2426Y21D01*
X2425Y21D01*
X2424Y21D01*
X2423Y21D01*
X2422Y21D01*
X2421Y21D01*
X2420Y21D01*
X2419Y21D01*
X2418Y21D01*
X2417Y21D01*
X2416Y21D01*
X2415Y21D01*
X2414Y21D01*
X2413Y21D01*
X2412Y21D01*
X2411Y21D01*
X2410Y21D01*
X2409Y21D01*
X2408Y21D01*
X2407Y21D01*
X2406Y21D01*
X2405Y21D01*
X2404Y21D01*
X2403Y21D01*
X2402Y21D01*
X2401Y21D01*
X2400Y21D01*
X2399Y21D01*
X2398Y21D01*
X2397Y21D01*
X2396Y21D01*
X2395Y21D01*
X2394Y21D01*
X2393Y21D01*
X2392Y21D01*
X2391Y21D01*
X2390Y21D01*
X2389Y21D01*
X2388Y21D01*
X2387Y21D01*
X2386Y21D01*
X2385Y21D01*
X2384Y21D01*
X2383Y21D01*
X2382Y21D01*
X2381Y21D01*
X2380Y21D01*
X2379Y21D01*
X2378Y21D01*
X2377Y21D01*
X2376Y21D01*
X2375Y21D01*
X2374Y21D01*
X2373Y21D01*
X2372Y21D01*
X2371Y21D01*
X2370Y21D01*
X2369Y21D01*
X2368Y21D01*
X2367Y21D01*
X2366Y21D01*
X2365Y21D01*
X2364Y21D01*
X2363Y21D01*
X2362Y21D01*
X2361Y21D01*
X2360Y21D01*
X2359Y21D01*
X2358Y21D01*
X2357Y21D01*
X2356Y21D01*
X2355Y21D01*
X2354Y21D01*
X2353Y21D01*
X2352Y21D01*
X2351Y21D01*
X2350Y21D01*
X2349Y21D01*
X2348Y21D01*
X2347Y21D01*
X2346Y21D01*
X2345Y21D01*
X2344Y21D01*
X2343Y21D01*
X2342Y21D01*
X2341Y21D01*
X2340Y21D01*
X2339Y21D01*
X2338Y21D01*
X2337Y21D01*
X2336Y21D01*
X2335Y21D01*
X2334Y21D01*
X2333Y21D01*
X2332Y21D01*
X2331Y21D01*
X2330Y21D01*
X2329Y21D01*
X2328Y21D01*
X2327Y21D01*
X2326Y21D01*
X2325Y21D01*
X2324Y21D01*
X2323Y21D01*
X2322Y21D01*
X2321Y21D01*
X2320Y21D01*
X2319Y21D01*
X2318Y21D01*
X2317Y21D01*
X2316Y21D01*
X2315Y21D01*
X2314Y21D01*
X2313Y21D01*
X2312Y21D01*
X2311Y21D01*
X2310Y21D01*
X2309Y21D01*
X2308Y21D01*
X2307Y21D01*
X2306Y21D01*
X2305Y21D01*
X2304Y21D01*
X2303Y21D01*
X2302Y21D01*
X2301Y21D01*
X2300Y21D01*
X2299Y21D01*
X2298Y21D01*
X2297Y21D01*
X2296Y21D01*
X2295Y21D01*
X2294Y21D01*
X2293Y21D01*
X2292Y21D01*
X2291Y21D01*
X2290Y21D01*
X2289Y21D01*
X2288Y21D01*
X2287Y21D01*
X2286Y21D01*
X2285Y21D01*
X2284Y21D01*
X2283Y21D01*
X2282Y21D01*
X2281Y21D01*
X2280Y21D01*
X2279Y21D01*
X2278Y21D01*
X2277Y21D01*
X2276Y21D01*
X2275Y21D01*
X2274Y21D01*
X2273Y21D01*
X2272Y21D01*
X2271Y21D01*
X2270Y21D01*
X2269Y21D01*
X2268Y21D01*
X2267Y21D01*
X2266Y21D01*
X2265Y21D01*
X2264Y21D01*
X2263Y21D01*
X2262Y21D01*
X2261Y21D01*
X2260Y21D01*
X2259Y21D01*
X2258Y21D01*
X2257Y21D01*
X2256Y21D01*
X2255Y21D01*
X2254Y21D01*
X2253Y21D01*
X2252Y21D01*
X2251Y21D01*
X2250Y21D01*
X2249Y21D01*
X2248Y21D01*
X2247Y21D01*
X2246Y21D01*
X2245Y21D01*
X2244Y21D01*
X2243Y21D01*
X2242Y21D01*
X2241Y21D01*
X2240Y21D01*
X2239Y21D01*
X2238Y21D01*
X2237Y21D01*
X2236Y21D01*
X2235Y21D01*
X2234Y21D01*
X2233Y21D01*
X2232Y21D01*
X2231Y21D01*
X2230Y21D01*
X2229Y21D01*
X2228Y21D01*
X2227Y21D01*
X2226Y21D01*
X2225Y21D01*
X2224Y21D01*
X2223Y21D01*
X2222Y21D01*
X2221Y21D01*
X2220Y21D01*
X2219Y21D01*
X2218Y21D01*
X2217Y21D01*
X2216Y21D01*
X2215Y21D01*
X2214Y21D01*
X2213Y21D01*
X2212Y21D01*
X2211Y21D01*
X2210Y21D01*
X2209Y21D01*
X2208Y21D01*
X2207Y21D01*
X2206Y21D01*
X2205Y21D01*
X2204Y21D01*
X2203Y21D01*
X2202Y21D01*
X2201Y21D01*
X2200Y21D01*
X2199Y21D01*
X2198Y21D01*
X2197Y21D01*
X2196Y21D01*
X2195Y21D01*
X2194Y21D01*
X2193Y21D01*
X2192Y21D01*
X2191Y21D01*
X2190Y21D01*
X2189Y21D01*
X2188Y21D01*
X2187Y21D01*
X2186Y21D01*
X2185Y21D01*
X2184Y21D01*
X2183Y21D01*
X2182Y21D01*
X2181Y21D01*
X2180Y21D01*
X2179Y21D01*
X2178Y21D01*
X2177Y21D01*
X2176Y21D01*
X2175Y21D01*
X2174Y21D01*
X2173Y21D01*
X2172Y21D01*
X2171Y21D01*
X2170Y21D01*
X2169Y21D01*
X2168Y21D01*
X2167Y21D01*
X2166Y21D01*
X2165Y21D01*
X2164Y21D01*
X2163Y21D01*
X2162Y21D01*
X2161Y21D01*
X2160Y21D01*
X2159Y21D01*
X2158Y21D01*
X2157Y21D01*
X2156Y21D01*
X2155Y21D01*
X2154Y21D01*
X2153Y21D01*
X2152Y21D01*
X2151Y21D01*
X2150Y21D01*
X2149Y21D01*
X2148Y21D01*
X2147Y21D01*
X2146Y21D01*
X2145Y21D01*
X2144Y21D01*
X2143Y21D01*
X2142Y21D01*
X2141Y21D01*
X2140Y21D01*
X2139Y21D01*
X2138Y21D01*
X2137Y21D01*
X2136Y21D01*
X2135Y21D01*
X2134Y21D01*
X2133Y21D01*
X2132Y21D01*
X2131Y21D01*
X2130Y21D01*
X2129Y21D01*
X2128Y21D01*
X2127Y21D01*
X2126Y21D01*
X2125Y21D01*
X2124Y21D01*
X2123Y21D01*
X2122Y21D01*
X2121Y21D01*
X2120Y21D01*
X2119Y21D01*
X2118Y21D01*
X2117Y21D01*
X2116Y21D01*
X2115Y21D01*
X2114Y21D01*
X2113Y21D01*
X2112Y21D01*
X2111Y21D01*
X2110Y21D01*
X2109Y21D01*
X2108Y21D01*
X2107Y21D01*
X2106Y21D01*
X2105Y21D01*
X2104Y21D01*
X2103Y21D01*
X2102Y21D01*
X2101Y21D01*
X2100Y21D01*
X2099Y21D01*
X2098Y21D01*
X2097Y21D01*
X2096Y21D01*
X2095Y21D01*
X2094Y21D01*
X2093Y21D01*
X2092Y21D01*
X2091Y21D01*
X2090Y21D01*
X2089Y21D01*
X2088Y21D01*
X2087Y21D01*
X2086Y21D01*
X2085Y21D01*
X2084Y21D01*
X2083Y21D01*
X2082Y21D01*
X2081Y21D01*
X2080Y21D01*
X2079Y21D01*
X2078Y21D01*
X2077Y21D01*
X2076Y21D01*
X2075Y21D01*
X2074Y21D01*
X2073Y21D01*
X2072Y21D01*
X2071Y21D01*
X2070Y21D01*
X2069Y21D01*
X2068Y21D01*
X2067Y21D01*
X2066Y21D01*
X2065Y21D01*
X2064Y21D01*
X2063Y21D01*
X2062Y21D01*
X2061Y21D01*
X2060Y21D01*
X2059Y21D01*
X2058Y21D01*
X2057Y21D01*
X2056Y21D01*
X2055Y21D01*
X2054Y21D01*
X2053Y21D01*
X2052Y21D01*
X2051Y21D01*
X2050Y21D01*
X2049Y21D01*
X2048Y21D01*
X2047Y21D01*
X2046Y21D01*
X2045Y21D01*
X2044Y21D01*
X2043Y21D01*
X2042Y21D01*
X2041Y21D01*
X2040Y21D01*
X2039Y21D01*
X2038Y21D01*
X2037Y21D01*
X2036Y21D01*
X2035Y21D01*
X2034Y21D01*
X2033Y21D01*
X2032Y21D01*
X2031Y21D01*
X2030Y21D01*
X2029Y21D01*
X2028Y21D01*
X2027Y21D01*
X2026Y21D01*
X2025Y21D01*
X2024Y21D01*
X2023Y21D01*
X2022Y21D01*
X2021Y21D01*
X2020Y21D01*
X2019Y21D01*
X2018Y21D01*
X2017Y21D01*
X2016Y21D01*
X2015Y21D01*
X2014Y21D01*
X2013Y21D01*
X2012Y21D01*
X2011Y21D01*
X2010Y21D01*
X2009Y21D01*
X2008Y21D01*
X2007Y21D01*
X2006Y21D01*
X2005Y21D01*
X2004Y21D01*
X2003Y21D01*
X2002Y21D01*
X2001Y21D01*
X2000Y21D01*
X1999Y21D01*
X1998Y21D01*
X1997Y21D01*
X1996Y21D01*
X1995Y21D01*
X1994Y21D01*
X1993Y21D01*
X1992Y21D01*
X1991Y21D01*
X1990Y21D01*
X1989Y21D01*
X1988Y21D01*
X1987Y21D01*
X1986Y21D01*
X1985Y21D01*
X1984Y21D01*
X1983Y21D01*
X1982Y21D01*
X1981Y21D01*
X1980Y21D01*
X1979Y21D01*
X1978Y21D01*
X1977Y21D01*
X1976Y21D01*
X1975Y21D01*
X1974Y21D01*
X1973Y21D01*
X1972Y21D01*
X1971Y21D01*
X1970Y21D01*
X1969Y21D01*
X1968Y21D01*
X1967Y21D01*
X1966Y21D01*
X1965Y21D01*
X1964Y21D01*
X1963Y21D01*
X1962Y21D01*
X1961Y21D01*
X1960Y21D01*
X1959Y21D01*
X1958Y21D01*
X1957Y21D01*
X1956Y21D01*
X1955Y21D01*
X1954Y21D01*
X1953Y21D01*
X1952Y21D01*
X1951Y21D01*
X1950Y21D01*
X1949Y21D01*
X1948Y21D01*
X1947Y21D01*
X1946Y21D01*
X1945Y21D01*
X1944Y21D01*
X1943Y21D01*
X1942Y21D01*
X1941Y21D01*
X1940Y21D01*
X1939Y21D01*
X1938Y21D01*
X1937Y21D01*
X1936Y21D01*
X1935Y21D01*
X1934Y21D01*
X1933Y21D01*
X1932Y21D01*
X1931Y21D01*
X1930Y21D01*
X1929Y21D01*
X1928Y21D01*
X1927Y21D01*
X1926Y21D01*
X1925Y21D01*
X1924Y21D01*
X1923Y21D01*
X1922Y21D01*
X1921Y21D01*
X1920Y21D01*
X1919Y21D01*
X1918Y21D01*
X1917Y21D01*
X1916Y21D01*
X1915Y21D01*
X1914Y21D01*
X1913Y21D01*
X1912Y21D01*
X1911Y21D01*
X1910Y21D01*
X1909Y21D01*
X1908Y21D01*
X1907Y21D01*
X1906Y21D01*
X1905Y21D01*
X1904Y21D01*
X1903Y21D01*
X1902Y21D01*
X1901Y21D01*
X1900Y21D01*
X1899Y21D01*
X1898Y21D01*
X1897Y21D01*
X1896Y21D01*
X1895Y21D01*
X1894Y21D01*
X1893Y21D01*
X1892Y21D01*
X1891Y21D01*
X1890Y21D01*
X1889Y21D01*
X1888Y21D01*
X1887Y21D01*
X1886Y21D01*
X1885Y21D01*
X1884Y21D01*
X1883Y21D01*
X1882Y21D01*
X1881Y21D01*
X1880Y21D01*
X1879Y21D01*
X1878Y21D01*
X1877Y21D01*
X1876Y21D01*
X1875Y21D01*
X1874Y21D01*
X1873Y21D01*
X1872Y21D01*
X1871Y21D01*
X1870Y21D01*
X1869Y21D01*
X1868Y21D01*
X1867Y21D01*
X1866Y21D01*
X1865Y21D01*
X1864Y21D01*
X1863Y21D01*
X1862Y21D01*
X1861Y21D01*
X1860Y21D01*
X1859Y21D01*
X1858Y21D01*
X1857Y21D01*
X1856Y21D01*
X1855Y21D01*
X1854Y21D01*
X1853Y21D01*
X1852Y21D01*
X1851Y21D01*
X1850Y21D01*
X1849Y21D01*
X1848Y21D01*
X1847Y21D01*
X1846Y21D01*
X1845Y21D01*
X1844Y21D01*
X1843Y21D01*
X1842Y21D01*
X1841Y21D01*
X1840Y21D01*
X1839Y21D01*
X1838Y21D01*
X1837Y21D01*
X1836Y21D01*
X1835Y21D01*
X1834Y21D01*
X1833Y21D01*
X1832Y21D01*
X1831Y21D01*
X1830Y21D01*
X1829Y21D01*
X1828Y21D01*
X1827Y21D01*
X1826Y21D01*
X1825Y21D01*
X1824Y21D01*
X1823Y21D01*
X1822Y21D01*
X1821Y21D01*
X1820Y21D01*
X1819Y21D01*
X1818Y21D01*
X1817Y21D01*
X1816Y21D01*
X1815Y21D01*
X1814Y21D01*
X1813Y21D01*
X1812Y21D01*
X1811Y21D01*
X1810Y21D01*
X1809Y21D01*
X1808Y21D01*
X1807Y21D01*
X1806Y21D01*
X1805Y21D01*
X1804Y21D01*
X1803Y21D01*
X1802Y21D01*
X1801Y21D01*
X1800Y21D01*
X1799Y21D01*
X1798Y21D01*
X1797Y21D01*
X1796Y21D01*
X1795Y21D01*
X1794Y21D01*
X1793Y21D01*
X1792Y21D01*
X1791Y21D01*
X1790Y21D01*
X1789Y21D01*
X1788Y21D01*
X1787Y21D01*
X1786Y21D01*
X1785Y21D01*
X1784Y21D01*
X1783Y21D01*
X1782Y21D01*
X1781Y21D01*
X1780Y21D01*
X1779Y21D01*
X1778Y21D01*
X1777Y21D01*
X1776Y21D01*
X1775Y21D01*
X1774Y21D01*
X1773Y21D01*
X1772Y21D01*
X1771Y21D01*
X1770Y21D01*
X1769Y21D01*
X1768Y21D01*
X1767Y21D01*
X1766Y21D01*
X1765Y21D01*
X1764Y21D01*
X1763Y21D01*
X1762Y21D01*
X1761Y21D01*
X1760Y21D01*
X1759Y21D01*
X1758Y21D01*
X1757Y21D01*
X1756Y21D01*
X1755Y21D01*
X1754Y21D01*
X1753Y21D01*
X1752Y21D01*
X1751Y21D01*
X1750Y21D01*
X1749Y21D01*
X1748Y21D01*
X1747Y21D01*
X1746Y21D01*
X1745Y21D01*
X1744Y21D01*
X1743Y21D01*
X1742Y21D01*
X1741Y21D01*
X1740Y21D01*
X1739Y21D01*
X1738Y21D01*
X1737Y21D01*
X1736Y21D01*
X1735Y21D01*
X1734Y21D01*
X1733Y21D01*
X1732Y21D01*
X1731Y21D01*
X1730Y21D01*
X1729Y21D01*
X1728Y21D01*
X1727Y21D01*
X1726Y21D01*
X1725Y21D01*
X1724Y21D01*
X1723Y21D01*
X1722Y21D01*
X1721Y21D01*
X1720Y21D01*
X1719Y21D01*
X1718Y21D01*
X1717Y21D01*
X1716Y21D01*
X1715Y21D01*
X1714Y21D01*
X1713Y21D01*
X1712Y21D01*
X1711Y21D01*
X1710Y21D01*
X1709Y21D01*
X1708Y21D01*
X1707Y21D01*
X1706Y21D01*
X1705Y21D01*
X1704Y21D01*
X1703Y21D01*
X1702Y21D01*
X1701Y21D01*
X1700Y21D01*
X1699Y21D01*
X1698Y21D01*
X1697Y21D01*
X1696Y21D01*
X1695Y21D01*
X1694Y21D01*
X1693Y21D01*
X1692Y21D01*
X1691Y21D01*
X1690Y21D01*
X1689Y21D01*
X1688Y21D01*
X1687Y21D01*
X1686Y21D01*
X1685Y21D01*
X1684Y21D01*
X1683Y21D01*
X1682Y21D01*
X1681Y21D01*
X1680Y21D01*
X1679Y21D01*
X1678Y21D01*
X1677Y21D01*
X1676Y21D01*
X1675Y21D01*
X1674Y21D01*
X1673Y21D01*
X1672Y21D01*
X1671Y21D01*
X1670Y21D01*
X1669Y21D01*
X1668Y21D01*
X1667Y21D01*
X1666Y21D01*
X1665Y21D01*
X1664Y21D01*
X1663Y21D01*
X1662Y21D01*
X1661Y21D01*
X1660Y21D01*
X1659Y21D01*
X1658Y21D01*
X1657Y21D01*
X1656Y21D01*
X1655Y21D01*
X1654Y21D01*
X1653Y21D01*
X1652Y21D01*
X1651Y21D01*
X1650Y21D01*
X1649Y21D01*
X1648Y21D01*
X1647Y21D01*
X1646Y21D01*
X1645Y21D01*
X1644Y21D01*
X1643Y21D01*
X1642Y21D01*
X1641Y21D01*
X1640Y21D01*
X1639Y21D01*
X1638Y21D01*
X1637Y21D01*
X1636Y21D01*
X1635Y21D01*
X1634Y21D01*
X1633Y21D01*
X1632Y21D01*
X1631Y21D01*
X1630Y21D01*
X1629Y21D01*
X1628Y21D01*
X1627Y21D01*
X1626Y21D01*
X1625Y21D01*
X1624Y21D01*
X1623Y21D01*
X1622Y21D01*
X1621Y21D01*
X1620Y21D01*
X1619Y21D01*
X1618Y21D01*
X1617Y21D01*
X1616Y21D01*
X1615Y21D01*
X1614Y21D01*
X1613Y21D01*
X1612Y21D01*
X1611Y21D01*
X1610Y21D01*
X1609Y21D01*
X1608Y21D01*
X1607Y21D01*
X1606Y21D01*
X1605Y21D01*
X1604Y21D01*
X1603Y21D01*
X1602Y21D01*
X1601Y21D01*
X1600Y21D01*
X1599Y21D01*
X1598Y21D01*
X1597Y21D01*
X1596Y21D01*
X1595Y21D01*
X1594Y21D01*
X1593Y21D01*
X1592Y21D01*
X1591Y21D01*
X1590Y21D01*
X1589Y21D01*
X1588Y21D01*
X1587Y21D01*
X1586Y21D01*
X1585Y21D01*
X1584Y21D01*
X1583Y21D01*
X1582Y21D01*
X1581Y21D01*
X1580Y21D01*
X1579Y21D01*
X1578Y21D01*
X1577Y21D01*
X1576Y21D01*
X1575Y21D01*
X1574Y21D01*
X1573Y21D01*
X1572Y21D01*
X1571Y21D01*
X1570Y21D01*
X1569Y21D01*
X1568Y21D01*
X1567Y21D01*
X1566Y21D01*
X1565Y21D01*
X1564Y21D01*
X1563Y21D01*
X1562Y21D01*
X1561Y21D01*
X1560Y21D01*
X1559Y21D01*
X1558Y21D01*
X1557Y21D01*
X1556Y21D01*
X1555Y21D01*
X1554Y21D01*
X1553Y21D01*
X1552Y21D01*
X1551Y21D01*
X1550Y21D01*
X1549Y21D01*
X1548Y21D01*
X1547Y21D01*
X1546Y21D01*
X1545Y21D01*
X1544Y21D01*
X1543Y21D01*
X1542Y21D01*
X1541Y21D01*
X1540Y21D01*
X1539Y21D01*
X1538Y21D01*
X1537Y21D01*
X1536Y21D01*
X1535Y21D01*
X1534Y21D01*
X1533Y21D01*
X1532Y21D01*
X1531Y21D01*
X1530Y21D01*
X1529Y21D01*
X1528Y21D01*
X1527Y21D01*
X1526Y21D01*
X1525Y21D01*
X1524Y21D01*
X1523Y21D01*
X1522Y21D01*
X1521Y21D01*
X1520Y21D01*
X1519Y21D01*
X1518Y21D01*
X1517Y21D01*
X1516Y21D01*
X1515Y21D01*
X1514Y21D01*
X1513Y21D01*
X1512Y21D01*
X1511Y21D01*
X1510Y21D01*
X1509Y21D01*
X1508Y21D01*
X1507Y21D01*
X1506Y21D01*
X1505Y21D01*
X1504Y21D01*
X1503Y21D01*
X1502Y21D01*
X1501Y21D01*
X1500Y21D01*
X1499Y21D01*
X1498Y21D01*
X1497Y21D01*
X1496Y21D01*
X1495Y21D01*
X1494Y21D01*
X1493Y21D01*
X1492Y21D01*
X1491Y21D01*
X1490Y21D01*
X1489Y21D01*
X1488Y21D01*
X1487Y21D01*
X1486Y21D01*
X1485Y21D01*
X1484Y21D01*
X1483Y21D01*
X1482Y21D01*
X1481Y21D01*
X1480Y21D01*
X1479Y21D01*
X1478Y21D01*
X1477Y21D01*
X1476Y21D01*
X1475Y21D01*
X1474Y21D01*
X1473Y21D01*
X1472Y21D01*
X1471Y21D01*
X1470Y21D01*
X1469Y21D01*
X1468Y21D01*
X1467Y21D01*
X1466Y21D01*
X1465Y21D01*
X1464Y21D01*
X1463Y21D01*
X1462Y21D01*
X1461Y21D01*
X1460Y21D01*
X1459Y21D01*
X1458Y21D01*
X1457Y21D01*
X1456Y21D01*
X1455Y21D01*
X1454Y21D01*
X1453Y21D01*
X1452Y21D01*
X1451Y21D01*
X1450Y21D01*
X1449Y21D01*
X1448Y21D01*
X1447Y21D01*
X1446Y21D01*
X1445Y21D01*
X1444Y21D01*
X1443Y21D01*
X1442Y21D01*
X1441Y21D01*
X1440Y21D01*
X1439Y21D01*
X1438Y21D01*
X1437Y21D01*
X1436Y21D01*
X1435Y21D01*
X1434Y21D01*
X1433Y21D01*
X1432Y21D01*
X1431Y21D01*
X1430Y21D01*
X1429Y21D01*
X1428Y21D01*
X1427Y21D01*
X1426Y21D01*
X1425Y21D01*
X1424Y21D01*
X1423Y21D01*
X1422Y21D01*
X1421Y21D01*
X1420Y21D01*
X1419Y21D01*
X1418Y21D01*
X1417Y21D01*
X1416Y21D01*
X1415Y21D01*
X1414Y21D01*
X1413Y21D01*
X1412Y21D01*
X1411Y21D01*
X1410Y21D01*
X1409Y21D01*
X1408Y21D01*
X1407Y21D01*
X1406Y21D01*
X1405Y21D01*
X1404Y21D01*
X1403Y21D01*
X1402Y21D01*
X1401Y21D01*
X1400Y21D01*
X1399Y21D01*
X1398Y21D01*
X1397Y21D01*
X1396Y21D01*
X1395Y21D01*
X1394Y21D01*
X1393Y21D01*
X1392Y21D01*
X1391Y21D01*
X1390Y21D01*
X1389Y21D01*
X1388Y21D01*
X1387Y21D01*
X1386Y21D01*
X1385Y21D01*
X1384Y21D01*
X1383Y21D01*
X1382Y21D01*
X1381Y21D01*
X1380Y21D01*
X1379Y21D01*
X1378Y21D01*
X1377Y21D01*
X1376Y21D01*
X1375Y21D01*
X1374Y21D01*
X1373Y21D01*
X1372Y21D01*
X1371Y21D01*
X1370Y21D01*
X1369Y21D01*
X1368Y21D01*
X1367Y21D01*
X1366Y21D01*
X1365Y21D01*
X1364Y21D01*
X1363Y21D01*
X1362Y21D01*
X1361Y21D01*
X1360Y21D01*
X1359Y21D01*
X1358Y21D01*
X1357Y21D01*
X1356Y21D01*
X1355Y21D01*
X1354Y21D01*
X1353Y21D01*
X1352Y21D01*
X1351Y21D01*
X1350Y21D01*
X1349Y21D01*
X1348Y21D01*
X1347Y21D01*
X1346Y21D01*
X1345Y21D01*
X1344Y21D01*
X1343Y21D01*
X1342Y21D01*
X1341Y21D01*
X1340Y21D01*
X1339Y21D01*
X1338Y21D01*
X1337Y21D01*
X1336Y21D01*
X1335Y21D01*
X1334Y21D01*
X1333Y21D01*
X1332Y21D01*
X1331Y21D01*
X1330Y21D01*
X1329Y21D01*
X1328Y21D01*
X1327Y21D01*
X1326Y21D01*
X1325Y21D01*
X1324Y21D01*
X1323Y21D01*
X1322Y21D01*
X1321Y21D01*
X1320Y21D01*
X1319Y21D01*
X1318Y21D01*
X1317Y21D01*
X1316Y21D01*
X1315Y21D01*
X1314Y21D01*
X1313Y21D01*
X1312Y21D01*
X1311Y21D01*
X1310Y21D01*
X1309Y21D01*
X1308Y21D01*
X1307Y21D01*
X1306Y21D01*
X1305Y21D01*
X1304Y21D01*
X1303Y21D01*
X1302Y21D01*
X1301Y21D01*
X1300Y21D01*
X1299Y21D01*
X1298Y21D01*
X1297Y21D01*
X1296Y21D01*
X1295Y21D01*
X1294Y21D01*
X1293Y21D01*
X1292Y21D01*
X1291Y21D01*
X1290Y21D01*
X1289Y21D01*
X1288Y21D01*
X1287Y21D01*
X1286Y21D01*
X1285Y21D01*
X1284Y21D01*
X1283Y21D01*
X1282Y21D01*
X1281Y21D01*
X1280Y21D01*
X1279Y21D01*
X1278Y21D01*
X1277Y21D01*
X1276Y21D01*
X1275Y21D01*
X1274Y21D01*
X1273Y21D01*
X1272Y21D01*
X1271Y21D01*
X1270Y21D01*
X1269Y21D01*
X1268Y21D01*
X1267Y21D01*
X1266Y21D01*
X1265Y21D01*
X1264Y21D01*
X1263Y21D01*
X1262Y21D01*
X1261Y21D01*
X1260Y21D01*
X1259Y21D01*
X1258Y21D01*
X1257Y21D01*
X1256Y21D01*
X1255Y21D01*
X1254Y21D01*
X1253Y21D01*
X1252Y21D01*
X1251Y21D01*
X1250Y21D01*
X1249Y21D01*
X1248Y21D01*
X1247Y21D01*
X1246Y21D01*
X1245Y21D01*
X1244Y21D01*
X1243Y21D01*
X1242Y21D01*
X1241Y21D01*
X1240Y21D01*
X1239Y21D01*
X1238Y21D01*
X1237Y21D01*
X1236Y21D01*
X1235Y21D01*
X1234Y21D01*
X1233Y21D01*
X1232Y21D01*
X1231Y21D01*
X1230Y21D01*
X1229Y21D01*
X1228Y21D01*
X1227Y21D01*
X1226Y21D01*
X1225Y21D01*
X1224Y21D01*
X1223Y21D01*
X1222Y21D01*
X1221Y21D01*
X1220Y21D01*
X1219Y21D01*
X1218Y21D01*
X1217Y21D01*
X1216Y21D01*
X1215Y21D01*
X1214Y21D01*
X1213Y21D01*
X1212Y21D01*
X1211Y21D01*
X1210Y21D01*
X1209Y21D01*
X1208Y21D01*
X1207Y21D01*
X1206Y21D01*
X1205Y21D01*
X1204Y21D01*
X1203Y21D01*
X1202Y21D01*
X1201Y21D01*
X1200Y21D01*
X1199Y21D01*
X1198Y21D01*
X1197Y21D01*
X1196Y21D01*
X1195Y21D01*
X1194Y21D01*
X1193Y21D01*
X1192Y21D01*
X1191Y21D01*
X1190Y21D01*
X1189Y21D01*
X1188Y21D01*
X1187Y21D01*
X1186Y21D01*
X1185Y21D01*
X1184Y21D01*
X1183Y21D01*
X1182Y21D01*
X1181Y21D01*
X1180Y21D01*
X1179Y21D01*
X1178Y21D01*
X1177Y21D01*
X1176Y21D01*
X1175Y21D01*
X1174Y21D01*
X1173Y21D01*
X1172Y21D01*
X1171Y21D01*
X1170Y21D01*
X1169Y21D01*
X1168Y21D01*
X1167Y21D01*
X1166Y21D01*
X1165Y21D01*
X1164Y21D01*
X1163Y21D01*
X1162Y21D01*
X1161Y21D01*
X1160Y21D01*
X1159Y21D01*
X1158Y21D01*
X1157Y21D01*
X1156Y21D01*
X1155Y21D01*
X1154Y21D01*
X1153Y21D01*
X1152Y21D01*
X1151Y21D01*
X1150Y21D01*
X1149Y21D01*
X1148Y21D01*
X1147Y21D01*
X1146Y21D01*
X1145Y21D01*
X1144Y21D01*
X1143Y21D01*
X1142Y21D01*
X1141Y21D01*
X1140Y21D01*
X1139Y21D01*
X1138Y21D01*
X1137Y21D01*
X1136Y21D01*
X1135Y21D01*
X1134Y21D01*
X1133Y21D01*
X1132Y21D01*
X1131Y21D01*
X1130Y21D01*
X1129Y21D01*
X1128Y21D01*
X1127Y21D01*
X1126Y21D01*
X1125Y21D01*
X1124Y21D01*
X1123Y21D01*
X1122Y21D01*
X1121Y21D01*
X1120Y21D01*
X1119Y21D01*
X1118Y21D01*
X1117Y21D01*
X1116Y21D01*
X1115Y21D01*
X1114Y21D01*
X1113Y21D01*
X1112Y21D01*
X1111Y21D01*
X1110Y21D01*
X1109Y21D01*
X1108Y21D01*
X1107Y21D01*
X1106Y21D01*
X1105Y21D01*
X1104Y21D01*
X1103Y21D01*
X1102Y21D01*
X1101Y21D01*
X1100Y21D01*
X1099Y21D01*
X1098Y21D01*
X1097Y21D01*
X1096Y21D01*
X1095Y21D01*
X1094Y21D01*
X1093Y21D01*
X1092Y21D01*
X1091Y21D01*
X1090Y21D01*
X1089Y21D01*
X1088Y21D01*
X1087Y21D01*
X1086Y21D01*
X1085Y21D01*
X1084Y21D01*
X1083Y21D01*
X1082Y21D01*
X1081Y21D01*
X1080Y21D01*
X1079Y21D01*
X1078Y21D01*
X1077Y21D01*
X1076Y21D01*
X1075Y21D01*
X1074Y21D01*
X1073Y21D01*
X1072Y21D01*
X1071Y21D01*
X1070Y21D01*
X1069Y21D01*
X1068Y21D01*
X1067Y21D01*
X1066Y21D01*
X1065Y21D01*
X1064Y21D01*
X1063Y21D01*
X1062Y21D01*
X1061Y21D01*
X1060Y21D01*
X1059Y21D01*
X1058Y21D01*
X1057Y21D01*
X1056Y21D01*
X1055Y21D01*
X1054Y21D01*
X1053Y21D01*
X1052Y21D01*
X1051Y21D01*
X1050Y21D01*
X1049Y21D01*
X1048Y21D01*
X1047Y21D01*
X1046Y21D01*
X1045Y21D01*
X1044Y21D01*
X1043Y21D01*
X1042Y21D01*
X1041Y21D01*
X1040Y21D01*
X1039Y21D01*
X1038Y21D01*
X1037Y21D01*
X1036Y21D01*
X1035Y21D01*
X1034Y21D01*
X1033Y21D01*
X1032Y21D01*
X1031Y21D01*
X1030Y21D01*
X1029Y21D01*
X1028Y21D01*
X1027Y21D01*
X1026Y21D01*
X1025Y21D01*
X1024Y21D01*
X1023Y21D01*
X1022Y21D01*
X1021Y21D01*
X1020Y21D01*
X1019Y21D01*
X1018Y21D01*
X1017Y21D01*
X1016Y21D01*
X1015Y21D01*
X1014Y21D01*
X1013Y21D01*
X1012Y21D01*
X1011Y21D01*
X1010Y21D01*
X1009Y21D01*
X1008Y21D01*
X1007Y21D01*
X1006Y21D01*
X1005Y21D01*
X1004Y21D01*
X1003Y21D01*
X1002Y21D01*
X1001Y21D01*
X1000Y21D01*
X999Y21D01*
X998Y21D01*
X997Y21D01*
X996Y21D01*
X995Y21D01*
X994Y21D01*
X993Y21D01*
X992Y21D01*
X991Y21D01*
X990Y21D01*
X989Y21D01*
X988Y21D01*
X987Y21D01*
X986Y21D01*
X985Y21D01*
X984Y21D01*
X983Y21D01*
X982Y21D01*
X981Y21D01*
X980Y21D01*
X979Y21D01*
X978Y21D01*
X977Y21D01*
X976Y21D01*
X975Y21D01*
X974Y21D01*
X973Y21D01*
X972Y21D01*
X971Y21D01*
X970Y21D01*
X969Y21D01*
X968Y21D01*
X967Y21D01*
X966Y21D01*
X965Y21D01*
X964Y21D01*
X963Y21D01*
X962Y21D01*
X961Y21D01*
X960Y21D01*
X959Y21D01*
X958Y21D01*
X957Y21D01*
X956Y21D01*
X955Y21D01*
X954Y21D01*
X953Y21D01*
X952Y21D01*
X951Y21D01*
X950Y21D01*
X949Y21D01*
X948Y21D01*
X947Y21D01*
X946Y21D01*
X945Y21D01*
X944Y21D01*
X943Y21D01*
X942Y21D01*
X941Y21D01*
X940Y21D01*
X939Y21D01*
X938Y21D01*
X937Y21D01*
X936Y21D01*
X935Y21D01*
X934Y21D01*
X933Y21D01*
X932Y21D01*
X931Y21D01*
X930Y21D01*
X929Y21D01*
X928Y21D01*
X927Y21D01*
X926Y21D01*
X925Y21D01*
X924Y21D01*
X923Y21D01*
X922Y21D01*
X921Y21D01*
X920Y21D01*
X919Y21D01*
X918Y21D01*
X917Y21D01*
X916Y21D01*
X915Y21D01*
X914Y21D01*
X913Y21D01*
X912Y21D01*
X911Y21D01*
X910Y21D01*
X909Y21D01*
X908Y21D01*
X907Y21D01*
X906Y21D01*
X905Y21D01*
X904Y21D01*
X903Y21D01*
X902Y21D01*
X901Y21D01*
X900Y21D01*
X899Y21D01*
X898Y21D01*
X897Y21D01*
X896Y21D01*
X895Y21D01*
X894Y21D01*
X893Y21D01*
X892Y21D01*
X891Y21D01*
X890Y21D01*
X889Y21D01*
X888Y21D01*
X887Y21D01*
X886Y21D01*
X885Y21D01*
X884Y21D01*
X883Y21D01*
X882Y21D01*
X881Y21D01*
X880Y21D01*
X879Y21D01*
X878Y21D01*
X877Y21D01*
X876Y21D01*
X875Y21D01*
X874Y21D01*
X873Y21D01*
X872Y21D01*
X871Y21D01*
X870Y21D01*
X869Y21D01*
X868Y21D01*
X867Y21D01*
X866Y21D01*
X865Y21D01*
X864Y21D01*
X863Y21D01*
X862Y21D01*
X861Y21D01*
X860Y21D01*
X859Y21D01*
X858Y21D01*
X857Y21D01*
X856Y21D01*
X855Y21D01*
X854Y21D01*
X853Y21D01*
X852Y21D01*
X851Y21D01*
X850Y21D01*
X849Y21D01*
X848Y21D01*
X847Y21D01*
X846Y21D01*
X845Y21D01*
X844Y21D01*
X843Y21D01*
X842Y21D01*
X841Y21D01*
X840Y21D01*
X839Y21D01*
X838Y21D01*
X837Y21D01*
X836Y21D01*
X835Y21D01*
X834Y21D01*
X833Y21D01*
X832Y21D01*
X831Y21D01*
X830Y21D01*
X829Y21D01*
X828Y21D01*
X827Y21D01*
X826Y21D01*
X825Y21D01*
X824Y21D01*
X823Y21D01*
X822Y21D01*
X821Y21D01*
X820Y21D01*
X819Y21D01*
X818Y21D01*
X817Y21D01*
X816Y21D01*
X815Y21D01*
X814Y21D01*
X813Y21D01*
X812Y21D01*
X811Y21D01*
X810Y21D01*
X809Y21D01*
X808Y21D01*
X807Y21D01*
X806Y21D01*
X805Y21D01*
X804Y21D01*
X803Y21D01*
X802Y21D01*
X801Y21D01*
X800Y21D01*
X799Y21D01*
X798Y21D01*
X797Y21D01*
X796Y21D01*
X795Y21D01*
X794Y22D01*
X793Y22D01*
X792Y22D01*
X791Y22D01*
X790Y22D01*
X789Y22D01*
X788Y22D01*
X787Y22D01*
X786Y22D01*
X785Y22D01*
X784Y22D01*
X783Y22D01*
X782Y22D01*
X781Y22D01*
X780Y22D01*
X779Y22D01*
X778Y22D01*
X777Y22D01*
X776Y22D01*
X775Y22D01*
X774Y22D01*
X773Y22D01*
X772Y22D01*
X771Y22D01*
X770Y22D01*
X769Y22D01*
X768Y22D01*
X767Y22D01*
X766Y22D01*
X765Y22D01*
X764Y22D01*
X763Y23D01*
X762Y23D01*
X761Y23D01*
X760Y23D01*
X759Y23D01*
X758Y23D01*
X757Y23D01*
X756Y23D01*
X755Y23D01*
X754Y23D01*
X753Y23D01*
X752Y23D01*
X751Y23D01*
X750Y23D01*
X749Y23D01*
X748Y23D01*
X747Y23D01*
X746Y23D01*
X745Y24D01*
X744Y24D01*
X743Y24D01*
X742Y24D01*
X741Y24D01*
X740Y24D01*
X739Y24D01*
X738Y24D01*
X737Y24D01*
X736Y24D01*
X735Y24D01*
X734Y24D01*
X733Y24D01*
X732Y24D01*
X731Y24D01*
X730Y25D01*
X729Y25D01*
X728Y25D01*
X727Y25D01*
X726Y25D01*
X725Y25D01*
X724Y25D01*
X723Y25D01*
X722Y25D01*
X721Y25D01*
X720Y25D01*
X719Y25D01*
X718Y25D01*
X717Y26D01*
X716Y26D01*
X715Y26D01*
X714Y26D01*
X713Y26D01*
X712Y26D01*
X711Y26D01*
X710Y26D01*
X709Y26D01*
X708Y26D01*
X707Y26D01*
X706Y27D01*
X705Y27D01*
X704Y27D01*
X703Y27D01*
X702Y27D01*
X701Y27D01*
X700Y27D01*
X699Y27D01*
X698Y27D01*
X697Y27D01*
X696Y28D01*
X695Y28D01*
X694Y28D01*
X693Y28D01*
X692Y28D01*
X691Y28D01*
X690Y28D01*
X689Y28D01*
X688Y28D01*
X687Y29D01*
X686Y29D01*
X685Y29D01*
X684Y29D01*
X683Y29D01*
X682Y29D01*
X681Y29D01*
X680Y29D01*
X679Y29D01*
X678Y30D01*
X677Y30D01*
X676Y30D01*
X675Y30D01*
X674Y30D01*
X673Y30D01*
X672Y30D01*
X671Y30D01*
X670Y31D01*
X669Y31D01*
X668Y31D01*
X667Y31D01*
X666Y31D01*
X665Y31D01*
X664Y31D01*
X663Y31D01*
X662Y32D01*
X661Y32D01*
X660Y32D01*
X659Y32D01*
X658Y32D01*
X657Y32D01*
X656Y32D01*
X655Y33D01*
X654Y33D01*
X653Y33D01*
X652Y33D01*
X651Y33D01*
X650Y33D01*
X649Y33D01*
X648Y34D01*
X647Y34D01*
X646Y34D01*
X645Y34D01*
X644Y34D01*
X643Y34D01*
X642Y34D01*
X641Y35D01*
X640Y35D01*
X639Y35D01*
X638Y35D01*
X637Y35D01*
X636Y35D01*
X635Y36D01*
X634Y36D01*
X633Y36D01*
X632Y36D01*
X631Y36D01*
X630Y36D01*
X629Y37D01*
X628Y37D01*
X627Y37D01*
X626Y37D01*
X625Y37D01*
X624Y37D01*
X623Y38D01*
X622Y38D01*
X621Y38D01*
X620Y38D01*
X619Y38D01*
X618Y38D01*
X617Y39D01*
X616Y39D01*
X615Y39D01*
X614Y39D01*
X613Y39D01*
X612Y40D01*
X611Y40D01*
X610Y40D01*
X609Y40D01*
X608Y40D01*
X607Y40D01*
X606Y41D01*
X605Y41D01*
X604Y41D01*
X603Y41D01*
X602Y41D01*
X601Y42D01*
X600Y42D01*
X599Y42D01*
X598Y42D01*
X597Y42D01*
X596Y43D01*
X595Y43D01*
X594Y43D01*
X593Y43D01*
X592Y43D01*
X591Y44D01*
X590Y44D01*
X589Y44D01*
X588Y44D01*
X587Y44D01*
X586Y45D01*
X585Y45D01*
X584Y45D01*
X583Y45D01*
X582Y45D01*
X581Y46D01*
X580Y46D01*
X579Y46D01*
X578Y46D01*
X577Y47D01*
X576Y47D01*
X575Y47D01*
X574Y47D01*
X573Y47D01*
X572Y48D01*
X571Y48D01*
X570Y48D01*
X569Y48D01*
X568Y49D01*
X567Y49D01*
X566Y49D01*
X565Y49D01*
X564Y49D01*
X563Y50D01*
X562Y50D01*
X561Y50D01*
X560Y50D01*
X559Y51D01*
X558Y51D01*
X557Y51D01*
X556Y51D01*
X555Y52D01*
X554Y52D01*
X553Y52D01*
X552Y52D01*
X551Y53D01*
X550Y53D01*
X549Y53D01*
X548Y53D01*
X547Y54D01*
X546Y54D01*
X545Y54D01*
X544Y54D01*
X543Y55D01*
X542Y55D01*
X541Y55D01*
X540Y55D01*
X539Y56D01*
X538Y56D01*
X537Y56D01*
X536Y56D01*
X535Y57D01*
X534Y57D01*
X533Y57D01*
X532Y58D01*
X531Y58D01*
X530Y58D01*
X529Y58D01*
X528Y59D01*
X527Y59D01*
X526Y59D01*
X525Y59D01*
X524Y60D01*
X523Y60D01*
X522Y60D01*
X521Y61D01*
X520Y61D01*
X519Y61D01*
X518Y61D01*
X517Y62D01*
X516Y62D01*
X515Y62D01*
X514Y63D01*
X513Y63D01*
X512Y63D01*
X511Y63D01*
X510Y64D01*
X509Y64D01*
X508Y64D01*
X507Y65D01*
X506Y65D01*
X505Y65D01*
X504Y66D01*
X503Y66D01*
X502Y66D01*
X501Y66D01*
X500Y67D01*
X499Y67D01*
X498Y67D01*
X497Y68D01*
X496Y68D01*
X495Y68D01*
X494Y69D01*
X493Y69D01*
X492Y69D01*
X491Y70D01*
X490Y70D01*
X489Y70D01*
X488Y71D01*
X487Y71D01*
X486Y71D01*
X485Y71D01*
X484Y72D01*
X483Y72D01*
X482Y72D01*
X481Y73D01*
X480Y73D01*
X479Y73D01*
X478Y74D01*
X477Y74D01*
X476Y75D01*
X475Y75D01*
X474Y75D01*
X473Y76D01*
X472Y76D01*
X471Y76D01*
X470Y77D01*
X469Y77D01*
X468Y77D01*
X467Y78D01*
X466Y78D01*
X465Y78D01*
X464Y79D01*
X463Y79D01*
X462Y79D01*
X461Y80D01*
X460Y80D01*
X459Y80D01*
X458Y81D01*
X457Y81D01*
X456Y82D01*
X455Y82D01*
X454Y82D01*
X453Y83D01*
X452Y83D01*
X451Y83D01*
X450Y84D01*
X449Y84D01*
X448Y84D01*
X447Y85D01*
X446Y85D01*
X445Y86D01*
X444Y86D01*
X443Y86D01*
X442Y87D01*
X441Y87D01*
X440Y88D01*
X439Y88D01*
X438Y88D01*
X437Y89D01*
X436Y89D01*
X435Y89D01*
X434Y90D01*
X433Y90D01*
X432Y91D01*
X431Y91D01*
X430Y91D01*
X429Y92D01*
X428Y92D01*
X427Y93D01*
X426Y93D01*
X425Y93D01*
X424Y94D01*
X423Y94D01*
X422Y95D01*
X421Y95D01*
X420Y95D01*
X419Y96D01*
X418Y96D01*
X417Y97D01*
X416Y97D01*
X415Y98D01*
X414Y98D01*
X413Y98D01*
X412Y99D01*
X411Y99D01*
X410Y100D01*
X409Y100D01*
X408Y101D01*
X407Y101D01*
X406Y101D01*
X405Y102D01*
X404Y102D01*
X403Y103D01*
X402Y103D01*
X401Y104D01*
X400Y104D01*
X399Y104D01*
X398Y105D01*
X397Y105D01*
X396Y106D01*
X395Y106D01*
X394Y107D01*
X393Y107D01*
X392Y108D01*
X391Y108D01*
X390Y109D01*
X389Y109D01*
X388Y109D01*
X387Y110D01*
X386Y110D01*
X385Y111D01*
X384Y111D01*
X383Y112D01*
X382Y112D01*
X381Y113D01*
X380Y113D01*
X379Y114D01*
X378Y114D01*
X377Y115D01*
X376Y115D01*
X375Y116D01*
X374Y116D01*
X373Y117D01*
X372Y117D01*
X371Y118D01*
X370Y118D01*
X369Y119D01*
X368Y119D01*
X367Y119D01*
X366Y120D01*
X365Y120D01*
X364Y121D01*
X363Y122D01*
X362Y122D01*
X361Y123D01*
X360Y123D01*
X359Y124D01*
X358Y124D01*
X357Y125D01*
X356Y125D01*
X355Y126D01*
X354Y126D01*
X353Y127D01*
X352Y127D01*
X351Y128D01*
X350Y128D01*
X349Y129D01*
X348Y129D01*
X347Y130D01*
X346Y130D01*
X345Y131D01*
X344Y131D01*
X343Y132D01*
X342Y132D01*
X341Y133D01*
X340Y133D01*
X339Y134D01*
X338Y135D01*
X337Y135D01*
X336Y136D01*
X335Y136D01*
X334Y137D01*
X333Y137D01*
X332Y138D01*
X331Y138D01*
X330Y139D01*
X329Y139D01*
X328Y140D01*
X327Y141D01*
X326Y141D01*
X325Y142D01*
X324Y142D01*
X323Y143D01*
X322Y143D01*
X321Y144D01*
X320Y145D01*
X319Y145D01*
X318Y146D01*
X317Y146D01*
X316Y147D01*
X315Y147D01*
X314Y148D01*
X313Y149D01*
X312Y149D01*
X311Y150D01*
X310Y150D01*
X309Y151D01*
X308Y152D01*
X307Y152D01*
X306Y153D01*
X305Y153D01*
X304Y154D01*
X303Y155D01*
X302Y155D01*
X301Y156D01*
X300Y156D01*
X299Y157D01*
X298Y158D01*
X297Y158D01*
X296Y159D01*
X295Y159D01*
X294Y160D01*
X293Y161D01*
X292Y161D01*
X291Y162D01*
X290Y163D01*
X289Y163D01*
X288Y164D01*
X287Y164D01*
X286Y165D01*
X285Y166D01*
X284Y166D01*
X283Y167D01*
X282Y168D01*
X281Y168D01*
X280Y169D01*
X279Y170D01*
X278Y170D01*
X277Y171D01*
X276Y172D01*
X275Y172D01*
X274Y173D01*
X273Y174D01*
X272Y174D01*
X271Y175D01*
X270Y176D01*
X269Y176D01*
X268Y177D01*
X267Y178D01*
X266Y178D01*
X265Y179D01*
X264Y180D01*
X263Y180D01*
X262Y181D01*
X261Y182D01*
X260Y182D01*
X259Y183D01*
X258Y184D01*
X257Y184D01*
X256Y185D01*
X255Y186D01*
X254Y187D01*
X253Y187D01*
X252Y188D01*
X251Y189D01*
X250Y189D01*
X249Y190D01*
X248Y191D01*
X247Y191D01*
X246Y192D01*
X245Y193D01*
X244Y194D01*
X243Y194D01*
X242Y195D01*
X241Y196D01*
X240Y197D01*
X239Y197D01*
X238Y198D01*
X237Y199D01*
X236Y200D01*
X235Y200D01*
X234Y201D01*
X233Y202D01*
X232Y202D01*
X231Y203D01*
X230Y204D01*
X229Y205D01*
X228Y206D01*
X227Y206D01*
X226Y207D01*
X225Y208D01*
X224Y209D01*
X223Y209D01*
X222Y210D01*
X221Y211D01*
X220Y212D01*
X219Y213D01*
X218Y213D01*
X217Y214D01*
X216Y215D01*
X215Y216D01*
X214Y217D01*
X213Y217D01*
X212Y218D01*
X211Y219D01*
X210Y220D01*
X209Y221D01*
X208Y221D01*
X207Y222D01*
X206Y223D01*
X205Y224D01*
X204Y225D01*
X203Y226D01*
X202Y226D01*
X201Y227D01*
X200Y228D01*
X199Y229D01*
X198Y230D01*
X197Y231D01*
X196Y231D01*
X195Y232D01*
X194Y233D01*
X193Y234D01*
X192Y235D01*
X191Y236D01*
X190Y237D01*
X189Y238D01*
X188Y238D01*
X187Y239D01*
X186Y240D01*
X185Y241D01*
X184Y242D01*
X183Y243D01*
X182Y244D01*
X181Y245D01*
X180Y246D01*
X179Y247D01*
X178Y247D01*
X177Y248D01*
X176Y249D01*
X175Y250D01*
X174Y251D01*
X173Y252D01*
X172Y253D01*
X171Y254D01*
X170Y255D01*
X169Y256D01*
X168Y257D01*
X167Y258D01*
X166Y259D01*
X165Y260D01*
X164Y261D01*
X163Y262D01*
X162Y263D01*
X161Y264D01*
X160Y265D01*
X159Y266D01*
X158Y267D01*
X157Y268D01*
X156Y269D01*
X155Y270D01*
X154Y271D01*
X153Y272D01*
X152Y273D01*
X151Y274D01*
X150Y275D01*
X149Y276D01*
X148Y277D01*
X147Y278D01*
X146Y279D01*
X145Y280D01*
X145Y281D01*
X144Y282D01*
X143Y283D01*
X142Y284D01*
X141Y285D01*
X140Y286D01*
X139Y287D01*
X138Y288D01*
X137Y289D01*
X136Y290D01*
X136Y291D01*
X135Y292D01*
X134Y293D01*
X133Y294D01*
X132Y295D01*
X131Y296D01*
X130Y297D01*
X130Y298D01*
X129Y299D01*
X128Y300D01*
X127Y301D01*
X126Y302D01*
X125Y303D01*
X125Y304D01*
X124Y305D01*
X123Y306D01*
X122Y307D01*
X121Y308D01*
X120Y309D01*
X120Y310D01*
X119Y311D01*
X118Y312D01*
X117Y313D01*
X117Y314D01*
X116Y315D01*
X115Y316D01*
X114Y317D01*
X114Y318D01*
X113Y319D01*
X112Y320D01*
X111Y321D01*
X110Y322D01*
X110Y323D01*
X109Y324D01*
X108Y325D01*
X108Y326D01*
X107Y327D01*
X106Y328D01*
X105Y329D01*
X105Y330D01*
X104Y331D01*
X103Y332D01*
X103Y333D01*
X102Y334D01*
X101Y335D01*
X100Y336D01*
X100Y337D01*
X99Y338D01*
X98Y339D01*
X98Y340D01*
X97Y341D01*
X96Y342D01*
X96Y343D01*
X95Y344D01*
X94Y345D01*
X94Y346D01*
X93Y347D01*
X93Y348D01*
X92Y349D01*
X91Y350D01*
X91Y351D01*
X90Y352D01*
X89Y353D01*
X89Y354D01*
X88Y355D01*
X87Y356D01*
X87Y357D01*
X86Y358D01*
X86Y359D01*
X85Y360D01*
X84Y361D01*
X84Y362D01*
X83Y363D01*
X83Y364D01*
X82Y365D01*
X82Y366D01*
X81Y367D01*
X80Y368D01*
X80Y369D01*
X79Y370D01*
X79Y371D01*
X78Y372D01*
X78Y373D01*
X77Y374D01*
X77Y375D01*
X76Y376D01*
X75Y377D01*
X75Y378D01*
X74Y379D01*
X74Y380D01*
X73Y381D01*
X73Y382D01*
X72Y383D01*
X72Y384D01*
X71Y385D01*
X71Y386D01*
X70Y387D01*
X70Y388D01*
X69Y389D01*
X69Y390D01*
X68Y391D01*
X68Y392D01*
X67Y393D01*
X67Y394D01*
X66Y395D01*
X66Y396D01*
X65Y397D01*
X65Y398D01*
X64Y399D01*
X64Y401D01*
X63Y402D01*
X63Y403D01*
X62Y404D01*
X62Y405D01*
X61Y406D01*
X61Y407D01*
X60Y408D01*
X60Y410D01*
X59Y411D01*
X59Y412D01*
X58Y413D01*
X58Y414D01*
X57Y415D01*
X57Y417D01*
X56Y418D01*
X56Y419D01*
X55Y420D01*
X55Y422D01*
X54Y423D01*
X54Y425D01*
X53Y426D01*
X53Y427D01*
X52Y428D01*
X52Y430D01*
X51Y431D01*
X51Y433D01*
X50Y434D01*
X50Y436D01*
X49Y437D01*
X49Y439D01*
X48Y440D01*
X48Y442D01*
X47Y443D01*
X47Y445D01*
X46Y446D01*
X46Y448D01*
X45Y449D01*
X45Y451D01*
X44Y452D01*
X44Y455D01*
X43Y456D01*
X43Y458D01*
X42Y459D01*
X42Y462D01*
X41Y463D01*
X41Y466D01*
X40Y467D01*
X40Y469D01*
X39Y470D01*
X39Y474D01*
X38Y475D01*
X38Y478D01*
X37Y479D01*
X37Y483D01*
X36Y484D01*
X36Y487D01*
X35Y488D01*
X35Y493D01*
X34Y494D01*
X34Y498D01*
X33Y499D01*
X33Y505D01*
X32Y506D01*
X32Y511D01*
X31Y512D01*
X31Y520D01*
X30Y521D01*
X30Y530D01*
X29Y531D01*
X29Y544D01*
X28Y545D01*
X28Y590D01*
X29Y591D01*
X29Y604D01*
X30Y605D01*
X30Y613D01*
X31Y614D01*
X31Y621D01*
X32Y622D01*
X32Y628D01*
X33Y629D01*
X33Y634D01*
X34Y635D01*
X34Y640D01*
X35Y641D01*
X35Y645D01*
X36Y646D01*
X36Y650D01*
X37Y651D01*
X37Y654D01*
X38Y655D01*
X38Y658D01*
X39Y659D01*
X39Y662D01*
X40Y663D01*
X40Y666D01*
X41Y667D01*
X41Y670D01*
X42Y671D01*
X42Y674D01*
X43Y675D01*
X43Y677D01*
X44Y678D01*
X44Y680D01*
X45Y681D01*
X45Y684D01*
X46Y685D01*
X46Y687D01*
X47Y688D01*
X47Y690D01*
X48Y691D01*
X48Y693D01*
X49Y694D01*
X49Y696D01*
X50Y697D01*
X50Y699D01*
X51Y700D01*
X51Y701D01*
X52Y702D01*
X52Y704D01*
X53Y705D01*
X53Y707D01*
X54Y708D01*
X54Y709D01*
X55Y710D01*
X55Y712D01*
X56Y713D01*
X56Y714D01*
X57Y715D01*
X57Y717D01*
X58Y718D01*
X58Y719D01*
X59Y720D01*
X59Y722D01*
X60Y723D01*
X60Y724D01*
X61Y725D01*
X61Y726D01*
X62Y727D01*
X62Y728D01*
X63Y729D01*
X63Y731D01*
X64Y732D01*
X64Y733D01*
X65Y734D01*
X65Y735D01*
X66Y736D01*
X66Y737D01*
X67Y738D01*
X67Y739D01*
X68Y740D01*
X68Y741D01*
X69Y742D01*
X69Y743D01*
X70Y744D01*
X70Y745D01*
X71Y746D01*
X71Y747D01*
X72Y748D01*
X72Y749D01*
X73Y750D01*
X73Y751D01*
X74Y752D01*
X74Y753D01*
X75Y754D01*
X75Y755D01*
X76Y756D01*
X76Y757D01*
X77Y758D01*
X78Y759D01*
X78Y760D01*
X79Y761D01*
X79Y762D01*
X80Y763D01*
X80Y764D01*
X81Y765D01*
X81Y766D01*
X82Y767D01*
X83Y768D01*
X83Y769D01*
X84Y770D01*
X84Y771D01*
X85Y772D01*
X86Y773D01*
X86Y774D01*
X87Y775D01*
X87Y776D01*
X88Y777D01*
X89Y778D01*
X89Y779D01*
X90Y780D01*
X91Y781D01*
X91Y782D01*
X92Y783D01*
X92Y784D01*
X93Y785D01*
X94Y786D01*
X94Y787D01*
X95Y788D01*
X96Y789D01*
X96Y790D01*
X97Y791D01*
X98Y792D01*
X98Y793D01*
X99Y794D01*
X100Y795D01*
X100Y796D01*
X101Y797D01*
X102Y798D01*
X102Y799D01*
X103Y800D01*
X104Y801D01*
X104Y802D01*
X105Y803D01*
X106Y804D01*
X107Y805D01*
X107Y806D01*
X108Y807D01*
X109Y808D01*
X109Y809D01*
X110Y810D01*
X111Y811D01*
X112Y812D01*
X112Y813D01*
X113Y814D01*
X114Y815D01*
X115Y816D01*
X115Y817D01*
X116Y818D01*
X117Y819D01*
X118Y820D01*
X119Y821D01*
X119Y822D01*
X120Y823D01*
X121Y824D01*
X122Y825D01*
X122Y826D01*
X123Y827D01*
X124Y828D01*
X125Y829D01*
X126Y830D01*
X126Y831D01*
X127Y832D01*
X128Y833D01*
X129Y834D01*
X130Y835D01*
X131Y836D01*
X131Y837D01*
X132Y838D01*
X133Y839D01*
X134Y840D01*
X135Y841D01*
X136Y842D01*
X137Y843D01*
X137Y844D01*
X138Y845D01*
X139Y846D01*
X140Y847D01*
X141Y848D01*
X142Y849D01*
X143Y850D01*
X144Y851D01*
X144Y852D01*
X145Y853D01*
X146Y854D01*
X147Y855D01*
X148Y856D01*
X149Y857D01*
X150Y858D01*
X151Y859D01*
X152Y860D01*
X153Y861D01*
X154Y862D01*
X155Y863D01*
X156Y864D01*
X157Y865D01*
X158Y866D01*
X158Y867D01*
X159Y868D01*
X160Y869D01*
X161Y870D01*
X162Y871D01*
X163Y872D01*
X164Y873D01*
X165Y874D01*
X166Y875D01*
X167Y876D01*
X168Y877D01*
X169Y878D01*
X170Y879D01*
X171Y880D01*
X172Y881D01*
X173Y882D01*
X174Y883D01*
X175Y884D01*
X176Y885D01*
X177Y885D01*
X178Y886D01*
X179Y887D01*
X180Y888D01*
X181Y889D01*
X182Y890D01*
X183Y891D01*
X184Y892D01*
X185Y893D01*
X186Y894D01*
X187Y895D01*
X188Y896D01*
X189Y897D01*
X190Y898D01*
X191Y898D01*
X192Y899D01*
X193Y900D01*
X194Y901D01*
X195Y902D01*
X196Y903D01*
X197Y904D01*
X198Y905D01*
X199Y906D01*
X200Y906D01*
X201Y907D01*
X202Y908D01*
X203Y909D01*
X204Y910D01*
X205Y911D01*
X206Y912D01*
X207Y912D01*
X208Y913D01*
X209Y914D01*
X210Y915D01*
X211Y916D01*
X212Y917D01*
X213Y917D01*
X214Y918D01*
X215Y919D01*
X216Y920D01*
X217Y921D01*
X218Y922D01*
X219Y922D01*
X220Y923D01*
X221Y924D01*
X222Y925D01*
X223Y926D01*
X224Y926D01*
X225Y927D01*
X226Y928D01*
X227Y929D01*
X228Y929D01*
X229Y930D01*
X230Y931D01*
X231Y932D01*
X232Y933D01*
X233Y933D01*
X234Y934D01*
X235Y935D01*
X236Y936D01*
X237Y936D01*
X238Y937D01*
X239Y938D01*
X240Y939D01*
X241Y939D01*
X242Y940D01*
X243Y941D01*
X244Y942D01*
X245Y942D01*
X246Y943D01*
X247Y944D01*
X248Y945D01*
X249Y945D01*
X250Y946D01*
X251Y947D01*
X252Y947D01*
X253Y948D01*
X254Y949D01*
X255Y949D01*
X256Y950D01*
X257Y951D01*
X258Y952D01*
X259Y952D01*
X260Y953D01*
X261Y954D01*
X262Y954D01*
X263Y955D01*
X264Y956D01*
X265Y956D01*
X266Y957D01*
X267Y958D01*
X268Y958D01*
X269Y959D01*
X270Y960D01*
X271Y960D01*
X272Y961D01*
X273Y962D01*
X274Y962D01*
X275Y963D01*
X276Y964D01*
X277Y964D01*
X278Y965D01*
X279Y966D01*
X280Y966D01*
X281Y967D01*
X282Y968D01*
X283Y968D01*
X284Y969D01*
X285Y970D01*
X286Y970D01*
X287Y971D01*
X288Y971D01*
X289Y972D01*
X290Y973D01*
X291Y973D01*
X292Y974D01*
X293Y975D01*
X294Y975D01*
X295Y976D01*
X296Y976D01*
X297Y977D01*
X298Y978D01*
X299Y978D01*
X300Y979D01*
X301Y979D01*
X302Y980D01*
X303Y981D01*
X304Y981D01*
X305Y982D01*
X306Y982D01*
X307Y983D01*
X308Y984D01*
X309Y984D01*
X310Y985D01*
X311Y985D01*
X312Y986D01*
X313Y986D01*
X314Y987D01*
X315Y988D01*
X316Y988D01*
X317Y989D01*
X318Y989D01*
X319Y990D01*
X320Y990D01*
X321Y991D01*
X322Y991D01*
X323Y992D01*
X324Y993D01*
X325Y993D01*
X326Y994D01*
X327Y994D01*
X328Y995D01*
X329Y995D01*
X330Y996D01*
X331Y996D01*
X332Y997D01*
X333Y997D01*
X334Y998D01*
X335Y999D01*
X336Y999D01*
X337Y1000D01*
X338Y1000D01*
X339Y1001D01*
X340Y1001D01*
X341Y1002D01*
X342Y1002D01*
X343Y1003D01*
X344Y1003D01*
X345Y1004D01*
X346Y1004D01*
X347Y1005D01*
X348Y1005D01*
X349Y1006D01*
X350Y1006D01*
X351Y1007D01*
X352Y1007D01*
X353Y1008D01*
X354Y1008D01*
X355Y1009D01*
X356Y1009D01*
X357Y1010D01*
X358Y1010D01*
X359Y1011D01*
X360Y1011D01*
X361Y1012D01*
X362Y1012D01*
X363Y1013D01*
X364Y1013D01*
X365Y1014D01*
X366Y1014D01*
X367Y1015D01*
X368Y1015D01*
X369Y1016D01*
X370Y1016D01*
X371Y1017D01*
X372Y1017D01*
X373Y1018D01*
X374Y1018D01*
X375Y1018D01*
X376Y1019D01*
X377Y1019D01*
X378Y1020D01*
X379Y1020D01*
X380Y1021D01*
X381Y1021D01*
X382Y1022D01*
X383Y1022D01*
X384Y1023D01*
X385Y1023D01*
X386Y1023D01*
X387Y1024D01*
X388Y1024D01*
X389Y1025D01*
X390Y1025D01*
X391Y1026D01*
X392Y1026D01*
X393Y1027D01*
X394Y1027D01*
X395Y1027D01*
X396Y1028D01*
X397Y1028D01*
X398Y1029D01*
X399Y1029D01*
X400Y1030D01*
X401Y1030D01*
X402Y1030D01*
X403Y1031D01*
X404Y1031D01*
X405Y1032D01*
X406Y1032D01*
X407Y1033D01*
X408Y1033D01*
X409Y1033D01*
X410Y1034D01*
X411Y1034D01*
X412Y1035D01*
X413Y1035D01*
X414Y1035D01*
X415Y1036D01*
X416Y1036D01*
X417Y1037D01*
X418Y1037D01*
X419Y1037D01*
X420Y1038D01*
X421Y1038D01*
X422Y1039D01*
X423Y1039D01*
X424Y1039D01*
X425Y1040D01*
X426Y1040D01*
X427Y1041D01*
X428Y1041D01*
X429Y1041D01*
X430Y1042D01*
X431Y1042D01*
X432Y1043D01*
X433Y1043D01*
X434Y1043D01*
X435Y1044D01*
X436Y1044D01*
X437Y1044D01*
X438Y1045D01*
X439Y1045D01*
X440Y1046D01*
X441Y1046D01*
X442Y1046D01*
X443Y1047D01*
X444Y1047D01*
X445Y1047D01*
X446Y1048D01*
X447Y1048D01*
X448Y1049D01*
X449Y1049D01*
X450Y1049D01*
X451Y1050D01*
X452Y1050D01*
X453Y1050D01*
X454Y1051D01*
X455Y1051D01*
X456Y1051D01*
X457Y1052D01*
X458Y1052D01*
X459Y1052D01*
X460Y1053D01*
X461Y1053D01*
X462Y1053D01*
X463Y1054D01*
X464Y1054D01*
X465Y1055D01*
X466Y1055D01*
X467Y1055D01*
X468Y1056D01*
X469Y1056D01*
X470Y1056D01*
X471Y1057D01*
X472Y1057D01*
X473Y1057D01*
X474Y1058D01*
X475Y1058D01*
X476Y1058D01*
X477Y1059D01*
X478Y1059D01*
X479Y1059D01*
X480Y1060D01*
X481Y1060D01*
X482Y1060D01*
X483Y1061D01*
X484Y1061D01*
X485Y1061D01*
X486Y1062D01*
X486Y1069D01*
X485Y1070D01*
X485Y1079D01*
X484Y1080D01*
X484Y1092D01*
X483Y1093D01*
X483Y1142D01*
X484Y1143D01*
X484Y1156D01*
X485Y1157D01*
X485Y1166D01*
X486Y1167D01*
X486Y1175D01*
X487Y1176D01*
X487Y1182D01*
X488Y1183D01*
X488Y1189D01*
X489Y1190D01*
X489Y1195D01*
X490Y1196D01*
X490Y1200D01*
X491Y1201D01*
X491Y1206D01*
X492Y1207D01*
X492Y1210D01*
X493Y1211D01*
X493Y1215D01*
X494Y1216D01*
X494Y1220D01*
X495Y1221D01*
X495Y1224D01*
X496Y1225D01*
X496Y1228D01*
X497Y1229D01*
X497Y1232D01*
X498Y1233D01*
X498Y1235D01*
X499Y1236D01*
X499Y1239D01*
X500Y1240D01*
X500Y1243D01*
X501Y1244D01*
X501Y1246D01*
X502Y1247D01*
X502Y1249D01*
X503Y1250D01*
X503Y1253D01*
X504Y1254D01*
X504Y1256D01*
X505Y1257D01*
X505Y1259D01*
X506Y1260D01*
X506Y1262D01*
X507Y1263D01*
X507Y1265D01*
X508Y1266D01*
X508Y1268D01*
X509Y1269D01*
X509Y1270D01*
X510Y1271D01*
X510Y1273D01*
X511Y1274D01*
X511Y1276D01*
X512Y1277D01*
X512Y1279D01*
X513Y1280D01*
X513Y1281D01*
X514Y1282D01*
X514Y1284D01*
X515Y1285D01*
X515Y1286D01*
X516Y1287D01*
X516Y1289D01*
X517Y1290D01*
X517Y1291D01*
X518Y1292D01*
X518Y1293D01*
X519Y1294D01*
X519Y1296D01*
X520Y1297D01*
X520Y1298D01*
X521Y1299D01*
X521Y1300D01*
X522Y1301D01*
X522Y1303D01*
X523Y1304D01*
X523Y1305D01*
X524Y1306D01*
X524Y1307D01*
X525Y1308D01*
X525Y1309D01*
X526Y1310D01*
X526Y1311D01*
X527Y1312D01*
X527Y1313D01*
X528Y1314D01*
X528Y1315D01*
X529Y1316D01*
X529Y1318D01*
X530Y1319D01*
X530Y1320D01*
X531Y1321D01*
X531Y1322D01*
X532Y1323D01*
X532Y1324D01*
X533Y1325D01*
X534Y1326D01*
X534Y1327D01*
X535Y1328D01*
X535Y1329D01*
X536Y1330D01*
X536Y1331D01*
X537Y1332D01*
X537Y1333D01*
X538Y1334D01*
X538Y1335D01*
X539Y1336D01*
X539Y1337D01*
X540Y1338D01*
X540Y1339D01*
X541Y1340D01*
X542Y1341D01*
X542Y1342D01*
X543Y1343D01*
X543Y1344D01*
X544Y1345D01*
X544Y1346D01*
X545Y1347D01*
X546Y1348D01*
X546Y1349D01*
X547Y1350D01*
X547Y1351D01*
X548Y1352D01*
X549Y1353D01*
X549Y1354D01*
X550Y1355D01*
X550Y1356D01*
X551Y1357D01*
X552Y1358D01*
X552Y1359D01*
X553Y1360D01*
X553Y1361D01*
X554Y1362D01*
X555Y1363D01*
X555Y1364D01*
X556Y1365D01*
X557Y1366D01*
X557Y1367D01*
X558Y1368D01*
X559Y1369D01*
X559Y1370D01*
X560Y1371D01*
X561Y1372D01*
X561Y1373D01*
X562Y1374D01*
X563Y1375D01*
X563Y1376D01*
X564Y1377D01*
X565Y1378D01*
X565Y1379D01*
X566Y1380D01*
X567Y1381D01*
X567Y1382D01*
X568Y1383D01*
X569Y1384D01*
X569Y1385D01*
X570Y1386D01*
X571Y1387D01*
X572Y1388D01*
X572Y1389D01*
X573Y1390D01*
X574Y1391D01*
X574Y1392D01*
X575Y1393D01*
X576Y1394D01*
X577Y1395D01*
X577Y1396D01*
X578Y1397D01*
X579Y1398D01*
X580Y1399D01*
X580Y1400D01*
X581Y1401D01*
X582Y1402D01*
X583Y1403D01*
X583Y1404D01*
X584Y1405D01*
X585Y1406D01*
X586Y1407D01*
X587Y1408D01*
X587Y1409D01*
X588Y1410D01*
X589Y1411D01*
X590Y1412D01*
X591Y1413D01*
X591Y1414D01*
X592Y1415D01*
X593Y1416D01*
X594Y1417D01*
X595Y1418D01*
X595Y1419D01*
X596Y1420D01*
X597Y1421D01*
X598Y1422D01*
X599Y1423D01*
X600Y1424D01*
X600Y1425D01*
X601Y1426D01*
X602Y1427D01*
X603Y1428D01*
X604Y1429D01*
X605Y1430D01*
X606Y1431D01*
X606Y1432D01*
X607Y1433D01*
X608Y1434D01*
X609Y1435D01*
X610Y1436D01*
X611Y1437D01*
X612Y1438D01*
X613Y1439D01*
X614Y1440D01*
X615Y1441D01*
X615Y1442D01*
X616Y1443D01*
X617Y1444D01*
X618Y1445D01*
X619Y1446D01*
X620Y1447D01*
X621Y1448D01*
X622Y1449D01*
X623Y1450D01*
X624Y1451D01*
X625Y1452D01*
X626Y1453D01*
X627Y1454D01*
X628Y1455D01*
X629Y1456D01*
X630Y1457D01*
X631Y1458D01*
X632Y1459D01*
X633Y1460D01*
X634Y1461D01*
X635Y1462D01*
X636Y1463D01*
X637Y1464D01*
X638Y1465D01*
X639Y1466D01*
X640Y1467D01*
X641Y1468D01*
X642Y1469D01*
X643Y1470D01*
X644Y1471D01*
X645Y1472D01*
X646Y1473D01*
X647Y1474D01*
X648Y1475D01*
X649Y1476D01*
X650Y1477D01*
X651Y1478D01*
X652Y1479D01*
X653Y1480D01*
X654Y1481D01*
X655Y1482D01*
X656Y1483D01*
X657Y1483D01*
X658Y1484D01*
X659Y1485D01*
X660Y1486D01*
X661Y1487D01*
X662Y1488D01*
X663Y1489D01*
X664Y1490D01*
X665Y1491D01*
X666Y1492D01*
X667Y1492D01*
X668Y1493D01*
X669Y1494D01*
X670Y1495D01*
X671Y1496D01*
X672Y1497D01*
X673Y1498D01*
X674Y1499D01*
X675Y1499D01*
X676Y1500D01*
X677Y1501D01*
X678Y1502D01*
X679Y1503D01*
X680Y1504D01*
X681Y1504D01*
X682Y1505D01*
X683Y1506D01*
X684Y1507D01*
X685Y1508D01*
X686Y1509D01*
X687Y1509D01*
X688Y1510D01*
X689Y1511D01*
X690Y1512D01*
X691Y1513D01*
X692Y1514D01*
X693Y1514D01*
X694Y1515D01*
X695Y1516D01*
X696Y1517D01*
X697Y1518D01*
X698Y1518D01*
X699Y1519D01*
X700Y1520D01*
X701Y1521D01*
X702Y1522D01*
X703Y1522D01*
X704Y1523D01*
X705Y1524D01*
X706Y1525D01*
X707Y1525D01*
X708Y1526D01*
X709Y1527D01*
X710Y1528D01*
X711Y1528D01*
X712Y1529D01*
X713Y1530D01*
X714Y1531D01*
X715Y1532D01*
X716Y1532D01*
X717Y1533D01*
X718Y1534D01*
X719Y1535D01*
X720Y1535D01*
X721Y1536D01*
X722Y1537D01*
X723Y1538D01*
X724Y1538D01*
X725Y1539D01*
X726Y1540D01*
X727Y1540D01*
X728Y1541D01*
X729Y1542D01*
X730Y1543D01*
X731Y1543D01*
X732Y1544D01*
X733Y1545D01*
X734Y1545D01*
X735Y1546D01*
X736Y1547D01*
X737Y1548D01*
X738Y1548D01*
X739Y1549D01*
X740Y1550D01*
X741Y1550D01*
X742Y1551D01*
X743Y1552D01*
X744Y1553D01*
X745Y1553D01*
X746Y1554D01*
X747Y1555D01*
X748Y1555D01*
X749Y1556D01*
X750Y1557D01*
X751Y1557D01*
X752Y1558D01*
X753Y1559D01*
X754Y1559D01*
X755Y1560D01*
X756Y1561D01*
X757Y1561D01*
X758Y1562D01*
X759Y1563D01*
X760Y1563D01*
X761Y1564D01*
X762Y1565D01*
X763Y1565D01*
X764Y1566D01*
X765Y1567D01*
X766Y1567D01*
X767Y1568D01*
X768Y1569D01*
X769Y1569D01*
X770Y1570D01*
X771Y1571D01*
X772Y1571D01*
X773Y1572D01*
X774Y1573D01*
X775Y1573D01*
X776Y1574D01*
X777Y1575D01*
X778Y1575D01*
X779Y1576D01*
X780Y1576D01*
X781Y1577D01*
X782Y1578D01*
X783Y1578D01*
X784Y1579D01*
X785Y1580D01*
X786Y1580D01*
X787Y1581D01*
X788Y1581D01*
X789Y1582D01*
X790Y1583D01*
X791Y1583D01*
X792Y1584D01*
X793Y1585D01*
X794Y1585D01*
X795Y1586D01*
X796Y1586D01*
X797Y1587D01*
X798Y1588D01*
X799Y1588D01*
X800Y1589D01*
X801Y1589D01*
X802Y1590D01*
X803Y1591D01*
X804Y1591D01*
X805Y1592D01*
X806Y1592D01*
X807Y1593D01*
X808Y1593D01*
X809Y1594D01*
X810Y1595D01*
X811Y1595D01*
X812Y1596D01*
X813Y1596D01*
X814Y1597D01*
X815Y1598D01*
X816Y1598D01*
X817Y1599D01*
X818Y1599D01*
X819Y1600D01*
X820Y1600D01*
X821Y1601D01*
X822Y1602D01*
X823Y1602D01*
X824Y1603D01*
X825Y1603D01*
X826Y1604D01*
X827Y1604D01*
X828Y1605D01*
X829Y1605D01*
X830Y1606D01*
X831Y1607D01*
X832Y1607D01*
X833Y1608D01*
X834Y1608D01*
X835Y1609D01*
X836Y1609D01*
X837Y1610D01*
X838Y1610D01*
X839Y1611D01*
X840Y1611D01*
X841Y1612D01*
X842Y1612D01*
X843Y1613D01*
X844Y1614D01*
X845Y1614D01*
X846Y1615D01*
X847Y1615D01*
X848Y1616D01*
X849Y1616D01*
X850Y1617D01*
X851Y1617D01*
X852Y1618D01*
X853Y1618D01*
X854Y1619D01*
X855Y1619D01*
X856Y1620D01*
X857Y1620D01*
X858Y1621D01*
X859Y1621D01*
X860Y1622D01*
X861Y1622D01*
X862Y1623D01*
X863Y1623D01*
X864Y1624D01*
X865Y1624D01*
X866Y1625D01*
X867Y1625D01*
X868Y1626D01*
X869Y1626D01*
X870Y1627D01*
X871Y1627D01*
X872Y1628D01*
X873Y1628D01*
X874Y1629D01*
X875Y1629D01*
X876Y1630D01*
X877Y1630D01*
X878Y1631D01*
X879Y1631D01*
X880Y1632D01*
X881Y1632D01*
X882Y1633D01*
X883Y1633D01*
X884Y1634D01*
X885Y1634D01*
X886Y1635D01*
X887Y1635D01*
X888Y1636D01*
X889Y1636D01*
X890Y1636D01*
X891Y1637D01*
X892Y1637D01*
X893Y1638D01*
X894Y1638D01*
X895Y1639D01*
X896Y1639D01*
X897Y1640D01*
X898Y1640D01*
X899Y1641D01*
X900Y1641D01*
X901Y1641D01*
X902Y1642D01*
X903Y1642D01*
X904Y1643D01*
X905Y1643D01*
X906Y1644D01*
X907Y1644D01*
X908Y1645D01*
X909Y1645D01*
X910Y1645D01*
X911Y1646D01*
X912Y1646D01*
X913Y1647D01*
X914Y1647D01*
X915Y1648D01*
X916Y1648D01*
X917Y1649D01*
X918Y1649D01*
X919Y1649D01*
X920Y1650D01*
X921Y1650D01*
X922Y1651D01*
X923Y1651D01*
X924Y1651D01*
X925Y1652D01*
X926Y1652D01*
X927Y1653D01*
X928Y1653D01*
X929Y1654D01*
X930Y1654D01*
X931Y1654D01*
X932Y1655D01*
X933Y1655D01*
X934Y1656D01*
X935Y1656D01*
X936Y1656D01*
X937Y1657D01*
X938Y1657D01*
X939Y1658D01*
X940Y1658D01*
X941Y1658D01*
X942Y1659D01*
X943Y1659D01*
X944Y1660D01*
X945Y1660D01*
X946Y1660D01*
X947Y1661D01*
X948Y1661D01*
X949Y1662D01*
X950Y1662D01*
X951Y1662D01*
X952Y1663D01*
X953Y1663D01*
X954Y1664D01*
X955Y1664D01*
X956Y1664D01*
X957Y1665D01*
X958Y1665D01*
X959Y1665D01*
X960Y1666D01*
X961Y1666D01*
X962Y1667D01*
X963Y1667D01*
X964Y1667D01*
X965Y1668D01*
X966Y1668D01*
X967Y1668D01*
X968Y1669D01*
X969Y1669D01*
X970Y1670D01*
X971Y1670D01*
X972Y1670D01*
X973Y1671D01*
X974Y1671D01*
X975Y1671D01*
X976Y1672D01*
X977Y1672D01*
X978Y1672D01*
X979Y1673D01*
X980Y1673D01*
X981Y1673D01*
X982Y1674D01*
X983Y1674D01*
X984Y1675D01*
X985Y1675D01*
X986Y1675D01*
X987Y1676D01*
X988Y1676D01*
X989Y1676D01*
X990Y1677D01*
X991Y1677D01*
X992Y1677D01*
X993Y1678D01*
X994Y1678D01*
X995Y1678D01*
X996Y1679D01*
X997Y1679D01*
X998Y1679D01*
X999Y1680D01*
X1000Y1680D01*
X1001Y1680D01*
X1002Y1681D01*
X1003Y1681D01*
X1004Y1681D01*
X1005Y1682D01*
X1006Y1682D01*
X1007Y1682D01*
X1008Y1683D01*
X1009Y1683D01*
X1010Y1683D01*
X1011Y1684D01*
X1012Y1684D01*
X1013Y1684D01*
X1014Y1685D01*
X1015Y1685D01*
X1016Y1685D01*
X1017Y1685D01*
X1018Y1686D01*
X1019Y1686D01*
X1020Y1686D01*
X1021Y1687D01*
X1022Y1687D01*
X1023Y1687D01*
X1024Y1688D01*
X1025Y1688D01*
X1026Y1688D01*
X1027Y1689D01*
X1028Y1689D01*
X1029Y1689D01*
X1030Y1689D01*
X1031Y1690D01*
X1032Y1690D01*
X1033Y1690D01*
X1034Y1691D01*
X1035Y1691D01*
X1036Y1691D01*
X1037Y1691D01*
X1038Y1692D01*
X1039Y1692D01*
X1040Y1692D01*
X1041Y1693D01*
X1042Y1693D01*
X1043Y1693D01*
X1044Y1693D01*
X1045Y1694D01*
X1046Y1694D01*
X1047Y1694D01*
X1048Y1695D01*
X1049Y1695D01*
X1050Y1695D01*
X1051Y1695D01*
X1052Y1696D01*
X1053Y1696D01*
X1054Y1696D01*
X1055Y1697D01*
X1056Y1697D01*
X1057Y1697D01*
X1058Y1697D01*
X1059Y1698D01*
X1060Y1698D01*
X1061Y1698D01*
X1062Y1698D01*
X1063Y1699D01*
X1064Y1699D01*
X1065Y1699D01*
X1066Y1699D01*
X1067Y1700D01*
X1068Y1700D01*
X1069Y1700D01*
X1070Y1700D01*
X1071Y1701D01*
X1072Y1701D01*
X1073Y1701D01*
X1074Y1702D01*
X1075Y1702D01*
X1076Y1702D01*
X1077Y1702D01*
X1078Y1703D01*
X1079Y1703D01*
X1080Y1703D01*
X1081Y1703D01*
X1082Y1704D01*
X1083Y1704D01*
X1084Y1704D01*
X1085Y1704D01*
X1086Y1704D01*
X1087Y1705D01*
X1088Y1705D01*
X1089Y1705D01*
X1090Y1705D01*
X1091Y1706D01*
X1092Y1706D01*
X1093Y1706D01*
X1094Y1706D01*
X1095Y1707D01*
X1096Y1707D01*
X1097Y1707D01*
X1098Y1707D01*
X1099Y1708D01*
X1100Y1708D01*
X1101Y1708D01*
X1102Y1708D01*
X1103Y1708D01*
X1104Y1709D01*
X1105Y1709D01*
X1106Y1709D01*
X1107Y1709D01*
X1108Y1710D01*
X1109Y1710D01*
X1110Y1710D01*
X1111Y1710D01*
X1112Y1710D01*
X1113Y1711D01*
X1114Y1711D01*
X1115Y1711D01*
X1116Y1711D01*
X1117Y1712D01*
X1118Y1712D01*
X1119Y1712D01*
X1120Y1712D01*
X1121Y1712D01*
X1122Y1713D01*
X1123Y1713D01*
X1124Y1713D01*
X1125Y1713D01*
X1126Y1713D01*
X1127Y1714D01*
X1128Y1714D01*
X1129Y1714D01*
X1130Y1714D01*
X1131Y1714D01*
X1132Y1715D01*
X1133Y1715D01*
X1134Y1715D01*
X1135Y1715D01*
X1136Y1715D01*
X1137Y1716D01*
X1138Y1716D01*
X1139Y1716D01*
X1140Y1716D01*
X1141Y1716D01*
X1142Y1717D01*
X1143Y1717D01*
X1144Y1717D01*
X1145Y1717D01*
X1146Y1717D01*
X1147Y1717D01*
X1148Y1718D01*
X1149Y1718D01*
X1150Y1718D01*
X1151Y1718D01*
X1152Y1718D01*
X1153Y1719D01*
X1154Y1719D01*
X1155Y1719D01*
X1156Y1719D01*
X1157Y1719D01*
X1158Y1719D01*
X1159Y1720D01*
X1160Y1720D01*
X1161Y1720D01*
X1162Y1720D01*
X1163Y1720D01*
X1164Y1720D01*
X1165Y1721D01*
X1166Y1721D01*
X1167Y1721D01*
X1168Y1721D01*
X1169Y1721D01*
X1170Y1721D01*
X1171Y1722D01*
X1172Y1722D01*
X1173Y1722D01*
X1174Y1722D01*
X1175Y1722D01*
X1176Y1722D01*
X1177Y1723D01*
X1178Y1723D01*
X1179Y1723D01*
X1180Y1723D01*
X1181Y1723D01*
X1182Y1723D01*
X1183Y1724D01*
X1184Y1724D01*
X1185Y1724D01*
X1186Y1724D01*
X1187Y1724D01*
X1188Y1724D01*
X1189Y1724D01*
X1190Y1725D01*
X1191Y1725D01*
X1192Y1725D01*
X1193Y1725D01*
X1194Y1725D01*
X1195Y1725D01*
X1196Y1725D01*
X1197Y1726D01*
X1198Y1726D01*
X1199Y1726D01*
X1200Y1726D01*
X1201Y1726D01*
X1202Y1726D01*
X1203Y1726D01*
X1204Y1727D01*
X1205Y1727D01*
X1206Y1727D01*
X1207Y1727D01*
X1208Y1727D01*
X1209Y1727D01*
X1210Y1727D01*
X1211Y1728D01*
X1212Y1728D01*
X1213Y1728D01*
X1214Y1728D01*
X1215Y1728D01*
X1216Y1728D01*
X1217Y1728D01*
X1218Y1728D01*
X1219Y1729D01*
X1220Y1729D01*
X1221Y1729D01*
X1222Y1729D01*
X1223Y1729D01*
X1224Y1729D01*
X1225Y1729D01*
X1226Y1729D01*
X1227Y1730D01*
X1228Y1730D01*
X1229Y1730D01*
X1230Y1730D01*
X1231Y1730D01*
X1232Y1730D01*
X1233Y1730D01*
X1234Y1730D01*
X1235Y1730D01*
X1236Y1731D01*
X1237Y1731D01*
X1238Y1731D01*
X1239Y1731D01*
X1240Y1731D01*
X1241Y1731D01*
X1242Y1731D01*
X1243Y1731D01*
X1244Y1731D01*
X1245Y1732D01*
X1246Y1732D01*
X1247Y1732D01*
X1248Y1732D01*
X1249Y1732D01*
X1250Y1732D01*
X1251Y1732D01*
X1252Y1732D01*
X1253Y1732D01*
X1254Y1732D01*
X1255Y1733D01*
X1256Y1733D01*
X1257Y1733D01*
X1258Y1733D01*
X1259Y1733D01*
X1260Y1733D01*
X1261Y1733D01*
X1262Y1733D01*
X1263Y1733D01*
X1264Y1733D01*
X1265Y1733D01*
X1266Y1734D01*
X1267Y1734D01*
X1268Y1734D01*
X1269Y1734D01*
X1270Y1734D01*
X1271Y1734D01*
X1272Y1734D01*
X1273Y1734D01*
X1274Y1734D01*
X1275Y1734D01*
X1276Y1734D01*
X1277Y1734D01*
X1278Y1735D01*
X1279Y1735D01*
X1280Y1735D01*
X1281Y1735D01*
X1282Y1735D01*
X1283Y1735D01*
X1284Y1735D01*
X1285Y1735D01*
X1286Y1735D01*
X1287Y1735D01*
X1288Y1735D01*
X1289Y1735D01*
X1290Y1735D01*
X1291Y1735D01*
X1292Y1736D01*
X1293Y1736D01*
X1294Y1736D01*
X1295Y1736D01*
X1296Y1736D01*
X1297Y1736D01*
X1298Y1736D01*
X1299Y1736D01*
X1300Y1736D01*
X1301Y1736D01*
X1302Y1736D01*
X1303Y1736D01*
X1304Y1736D01*
X1305Y1736D01*
X1306Y1736D01*
X1307Y1736D01*
X1308Y1737D01*
X1309Y1737D01*
X1310Y1737D01*
X1311Y1737D01*
X1312Y1737D01*
X1313Y1737D01*
X1314Y1737D01*
X1315Y1737D01*
X1316Y1737D01*
X1317Y1737D01*
X1318Y1737D01*
X1319Y1737D01*
X1320Y1737D01*
X1321Y1737D01*
X1322Y1737D01*
X1323Y1737D01*
X1324Y1737D01*
X1325Y1737D01*
X1326Y1737D01*
X1327Y1737D01*
X1328Y1738D01*
X1329Y1738D01*
X1330Y1738D01*
X1331Y1738D01*
X1332Y1738D01*
X1333Y1738D01*
X1334Y1738D01*
X1335Y1738D01*
X1336Y1738D01*
X1337Y1738D01*
X1338Y1738D01*
X1339Y1738D01*
X1340Y1738D01*
X1341Y1738D01*
X1342Y1738D01*
X1343Y1738D01*
X1344Y1738D01*
X1345Y1738D01*
X1346Y1738D01*
X1347Y1738D01*
X1348Y1738D01*
X1349Y1738D01*
X1350Y1738D01*
X1351Y1738D01*
X1352Y1738D01*
X1353Y1738D01*
X1354Y1738D01*
X1355Y1738D01*
X1356Y1738D01*
X1357Y1739D01*
D02*
G04 End of contour*
M02*