G04 MADE WITH FRITZING*
G04 WWW.FRITZING.ORG*
G04 DOUBLE SIDED*
G04 HOLES PLATED*
G04 CONTOUR ON CENTER OF CONTOUR VECTOR*
%ASAXBY*%
%FSLAX23Y23*%
%MOIN*%
%OFA0B0*%
%SFA1.0B1.0*%
%ADD10C,0.010000*%
%ADD11C,0.005000*%
%ADD12R,0.001000X0.001000*%
%LNSILK1*%
G90*
G70*
G54D10*
X817Y197D02*
X1117Y197D01*
D02*
X1117Y197D02*
X1117Y297D01*
D02*
X1117Y297D02*
X817Y297D01*
D02*
X817Y297D02*
X817Y197D01*
G54D11*
D02*
X852Y197D02*
X817Y232D01*
G54D10*
D02*
X1317Y197D02*
X1717Y197D01*
D02*
X1717Y197D02*
X1717Y297D01*
D02*
X1717Y297D02*
X1317Y297D01*
D02*
X1317Y297D02*
X1317Y197D01*
G54D11*
D02*
X1352Y197D02*
X1317Y232D01*
G54D12*
X1355Y1758D02*
X1429Y1758D01*
X1325Y1757D02*
X1457Y1757D01*
X1306Y1756D02*
X1476Y1756D01*
X1291Y1755D02*
X1491Y1755D01*
X1277Y1754D02*
X1504Y1754D01*
X1265Y1753D02*
X1516Y1753D01*
X1254Y1752D02*
X1527Y1752D01*
X1244Y1751D02*
X1537Y1751D01*
X1235Y1750D02*
X1546Y1750D01*
X1226Y1749D02*
X1555Y1749D01*
X1218Y1748D02*
X1563Y1748D01*
X1210Y1747D02*
X1571Y1747D01*
X1202Y1746D02*
X1578Y1746D01*
X1195Y1745D02*
X1585Y1745D01*
X1188Y1744D02*
X1592Y1744D01*
X1181Y1743D02*
X1599Y1743D01*
X1175Y1742D02*
X1605Y1742D01*
X1169Y1741D02*
X1611Y1741D01*
X1162Y1740D02*
X1618Y1740D01*
X1157Y1739D02*
X1623Y1739D01*
X1151Y1738D02*
X1629Y1738D01*
X1145Y1737D02*
X1635Y1737D01*
X1140Y1736D02*
X1640Y1736D01*
X1135Y1735D02*
X1645Y1735D01*
X1129Y1734D02*
X1650Y1734D01*
X1124Y1733D02*
X1655Y1733D01*
X1119Y1732D02*
X1660Y1732D01*
X1114Y1731D02*
X1665Y1731D01*
X1110Y1730D02*
X1670Y1730D01*
X1105Y1729D02*
X1674Y1729D01*
X1101Y1728D02*
X1679Y1728D01*
X1096Y1727D02*
X1684Y1727D01*
X1092Y1726D02*
X1688Y1726D01*
X1087Y1725D02*
X1692Y1725D01*
X1083Y1724D02*
X1696Y1724D01*
X1079Y1723D02*
X1701Y1723D01*
X1075Y1722D02*
X1705Y1722D01*
X1071Y1721D02*
X1709Y1721D01*
X1067Y1720D02*
X1363Y1720D01*
X1419Y1720D02*
X1713Y1720D01*
X1063Y1719D02*
X1330Y1719D01*
X1452Y1719D02*
X1717Y1719D01*
X1059Y1718D02*
X1309Y1718D01*
X1472Y1718D02*
X1721Y1718D01*
X1055Y1717D02*
X1293Y1717D01*
X1488Y1717D02*
X1724Y1717D01*
X1051Y1716D02*
X1279Y1716D01*
X1501Y1716D02*
X1728Y1716D01*
X1048Y1715D02*
X1267Y1715D01*
X1513Y1715D02*
X1732Y1715D01*
X1044Y1714D02*
X1256Y1714D01*
X1524Y1714D02*
X1736Y1714D01*
X1040Y1713D02*
X1246Y1713D01*
X1534Y1713D02*
X1739Y1713D01*
X1037Y1712D02*
X1237Y1712D01*
X1543Y1712D02*
X1743Y1712D01*
X1033Y1711D02*
X1228Y1711D01*
X1551Y1711D02*
X1746Y1711D01*
X1030Y1710D02*
X1220Y1710D01*
X1560Y1710D02*
X1750Y1710D01*
X1026Y1709D02*
X1212Y1709D01*
X1567Y1709D02*
X1753Y1709D01*
X1023Y1708D02*
X1205Y1708D01*
X1575Y1708D02*
X1757Y1708D01*
X1019Y1707D02*
X1198Y1707D01*
X1581Y1707D02*
X1760Y1707D01*
X1016Y1706D02*
X1191Y1706D01*
X1588Y1706D02*
X1764Y1706D01*
X1013Y1705D02*
X1184Y1705D01*
X1595Y1705D02*
X1767Y1705D01*
X1009Y1704D02*
X1178Y1704D01*
X1601Y1704D02*
X1770Y1704D01*
X1006Y1703D02*
X1172Y1703D01*
X1607Y1703D02*
X1773Y1703D01*
X1003Y1702D02*
X1166Y1702D01*
X1613Y1702D02*
X1777Y1702D01*
X1000Y1701D02*
X1160Y1701D01*
X1618Y1701D02*
X1780Y1701D01*
X997Y1700D02*
X1155Y1700D01*
X1624Y1700D02*
X1783Y1700D01*
X994Y1699D02*
X1149Y1699D01*
X1629Y1699D02*
X1786Y1699D01*
X991Y1698D02*
X1144Y1698D01*
X1634Y1698D02*
X1789Y1698D01*
X988Y1697D02*
X1139Y1697D01*
X1639Y1697D02*
X1792Y1697D01*
X985Y1696D02*
X1134Y1696D01*
X1644Y1696D02*
X1795Y1696D01*
X982Y1695D02*
X1129Y1695D01*
X1649Y1695D02*
X1798Y1695D01*
X979Y1694D02*
X1124Y1694D01*
X1654Y1694D02*
X1801Y1694D01*
X976Y1693D02*
X1120Y1693D01*
X1659Y1693D02*
X1804Y1693D01*
X973Y1692D02*
X1115Y1692D01*
X1663Y1692D02*
X1807Y1692D01*
X970Y1691D02*
X1111Y1691D01*
X1668Y1691D02*
X1810Y1691D01*
X967Y1690D02*
X1106Y1690D01*
X1672Y1690D02*
X1813Y1690D01*
X964Y1689D02*
X1102Y1689D01*
X1676Y1689D02*
X1816Y1689D01*
X962Y1688D02*
X1098Y1688D01*
X1681Y1688D02*
X1818Y1688D01*
X959Y1687D02*
X1093Y1687D01*
X1685Y1687D02*
X1821Y1687D01*
X956Y1686D02*
X1089Y1686D01*
X1689Y1686D02*
X1824Y1686D01*
X953Y1685D02*
X1085Y1685D01*
X1693Y1685D02*
X1827Y1685D01*
X950Y1684D02*
X1081Y1684D01*
X1697Y1684D02*
X1829Y1684D01*
X948Y1683D02*
X1077Y1683D01*
X1701Y1683D02*
X1832Y1683D01*
X945Y1682D02*
X1074Y1682D01*
X1704Y1682D02*
X1835Y1682D01*
X943Y1681D02*
X1070Y1681D01*
X1708Y1681D02*
X1837Y1681D01*
X940Y1680D02*
X1066Y1680D01*
X1712Y1680D02*
X1840Y1680D01*
X937Y1679D02*
X1062Y1679D01*
X1716Y1679D02*
X1843Y1679D01*
X935Y1678D02*
X1059Y1678D01*
X1719Y1678D02*
X1845Y1678D01*
X932Y1677D02*
X1055Y1677D01*
X1723Y1677D02*
X1848Y1677D01*
X930Y1676D02*
X1052Y1676D01*
X1726Y1676D02*
X1850Y1676D01*
X927Y1675D02*
X1048Y1675D01*
X1730Y1675D02*
X1853Y1675D01*
X925Y1674D02*
X1045Y1674D01*
X1733Y1674D02*
X1856Y1674D01*
X922Y1673D02*
X1041Y1673D01*
X1737Y1673D02*
X1858Y1673D01*
X920Y1672D02*
X1038Y1672D01*
X1740Y1672D02*
X1861Y1672D01*
X917Y1671D02*
X1035Y1671D01*
X1743Y1671D02*
X1863Y1671D01*
X915Y1670D02*
X1031Y1670D01*
X1747Y1670D02*
X1865Y1670D01*
X912Y1669D02*
X1028Y1669D01*
X1750Y1669D02*
X1868Y1669D01*
X910Y1668D02*
X1025Y1668D01*
X1753Y1668D02*
X1870Y1668D01*
X908Y1667D02*
X1022Y1667D01*
X1756Y1667D02*
X1873Y1667D01*
X905Y1666D02*
X1019Y1666D01*
X1759Y1666D02*
X1875Y1666D01*
X903Y1665D02*
X1016Y1665D01*
X1762Y1665D02*
X1877Y1665D01*
X901Y1664D02*
X1013Y1664D01*
X1765Y1664D02*
X1880Y1664D01*
X898Y1663D02*
X1010Y1663D01*
X1768Y1663D02*
X1882Y1663D01*
X896Y1662D02*
X1007Y1662D01*
X1771Y1662D02*
X1884Y1662D01*
X894Y1661D02*
X1004Y1661D01*
X1774Y1661D02*
X1887Y1661D01*
X891Y1660D02*
X1001Y1660D01*
X1777Y1660D02*
X1889Y1660D01*
X889Y1659D02*
X998Y1659D01*
X1780Y1659D02*
X1891Y1659D01*
X887Y1658D02*
X995Y1658D01*
X1783Y1658D02*
X1894Y1658D01*
X885Y1657D02*
X992Y1657D01*
X1786Y1657D02*
X1896Y1657D01*
X883Y1656D02*
X989Y1656D01*
X1789Y1656D02*
X1898Y1656D01*
X880Y1655D02*
X987Y1655D01*
X1792Y1655D02*
X1900Y1655D01*
X878Y1654D02*
X984Y1654D01*
X1794Y1654D02*
X1903Y1654D01*
X876Y1653D02*
X981Y1653D01*
X1797Y1653D02*
X1905Y1653D01*
X874Y1652D02*
X978Y1652D01*
X1800Y1652D02*
X1907Y1652D01*
X872Y1651D02*
X976Y1651D01*
X1803Y1651D02*
X1909Y1651D01*
X870Y1650D02*
X973Y1650D01*
X1805Y1650D02*
X1911Y1650D01*
X867Y1649D02*
X970Y1649D01*
X1808Y1649D02*
X1913Y1649D01*
X865Y1648D02*
X968Y1648D01*
X1811Y1648D02*
X1916Y1648D01*
X863Y1647D02*
X965Y1647D01*
X1813Y1647D02*
X1918Y1647D01*
X861Y1646D02*
X963Y1646D01*
X1816Y1646D02*
X1920Y1646D01*
X859Y1645D02*
X960Y1645D01*
X1818Y1645D02*
X1922Y1645D01*
X857Y1644D02*
X958Y1644D01*
X1821Y1644D02*
X1924Y1644D01*
X855Y1643D02*
X955Y1643D01*
X1824Y1643D02*
X1926Y1643D01*
X853Y1642D02*
X953Y1642D01*
X1826Y1642D02*
X1928Y1642D01*
X851Y1641D02*
X950Y1641D01*
X1829Y1641D02*
X1930Y1641D01*
X849Y1640D02*
X948Y1640D01*
X1831Y1640D02*
X1932Y1640D01*
X847Y1639D02*
X945Y1639D01*
X1834Y1639D02*
X1934Y1639D01*
X845Y1638D02*
X943Y1638D01*
X1836Y1638D02*
X1936Y1638D01*
X843Y1637D02*
X940Y1637D01*
X1838Y1637D02*
X1938Y1637D01*
X841Y1636D02*
X938Y1636D01*
X1841Y1636D02*
X1940Y1636D01*
X839Y1635D02*
X936Y1635D01*
X1843Y1635D02*
X1942Y1635D01*
X837Y1634D02*
X933Y1634D01*
X1846Y1634D02*
X1944Y1634D01*
X835Y1633D02*
X931Y1633D01*
X1848Y1633D02*
X1946Y1633D01*
X833Y1632D02*
X929Y1632D01*
X1850Y1632D02*
X1948Y1632D01*
X831Y1631D02*
X926Y1631D01*
X1853Y1631D02*
X1950Y1631D01*
X829Y1630D02*
X924Y1630D01*
X1855Y1630D02*
X1952Y1630D01*
X827Y1629D02*
X922Y1629D01*
X1857Y1629D02*
X1954Y1629D01*
X826Y1628D02*
X920Y1628D01*
X1860Y1628D02*
X1956Y1628D01*
X824Y1627D02*
X917Y1627D01*
X1862Y1627D02*
X1958Y1627D01*
X822Y1626D02*
X915Y1626D01*
X1864Y1626D02*
X1960Y1626D01*
X820Y1625D02*
X913Y1625D01*
X1866Y1625D02*
X1962Y1625D01*
X818Y1624D02*
X911Y1624D01*
X1869Y1624D02*
X1964Y1624D01*
X816Y1623D02*
X909Y1623D01*
X1871Y1623D02*
X1965Y1623D01*
X814Y1622D02*
X907Y1622D01*
X1873Y1622D02*
X1967Y1622D01*
X813Y1621D02*
X904Y1621D01*
X1875Y1621D02*
X1969Y1621D01*
X811Y1620D02*
X902Y1620D01*
X1877Y1620D02*
X1971Y1620D01*
X809Y1619D02*
X900Y1619D01*
X1880Y1619D02*
X1973Y1619D01*
X807Y1618D02*
X898Y1618D01*
X1882Y1618D02*
X1975Y1618D01*
X805Y1617D02*
X896Y1617D01*
X1884Y1617D02*
X1977Y1617D01*
X804Y1616D02*
X894Y1616D01*
X1886Y1616D02*
X1978Y1616D01*
X802Y1615D02*
X892Y1615D01*
X1888Y1615D02*
X1980Y1615D01*
X800Y1614D02*
X890Y1614D01*
X1890Y1614D02*
X1982Y1614D01*
X798Y1613D02*
X888Y1613D01*
X1892Y1613D02*
X1984Y1613D01*
X797Y1612D02*
X886Y1612D01*
X1894Y1612D02*
X1986Y1612D01*
X795Y1611D02*
X884Y1611D01*
X1897Y1611D02*
X1987Y1611D01*
X793Y1610D02*
X882Y1610D01*
X1899Y1610D02*
X1989Y1610D01*
X791Y1609D02*
X880Y1609D01*
X1901Y1609D02*
X1991Y1609D01*
X790Y1608D02*
X878Y1608D01*
X1903Y1608D02*
X1993Y1608D01*
X788Y1607D02*
X876Y1607D01*
X1905Y1607D02*
X1994Y1607D01*
X786Y1606D02*
X874Y1606D01*
X1907Y1606D02*
X1996Y1606D01*
X785Y1605D02*
X872Y1605D01*
X1909Y1605D02*
X1998Y1605D01*
X783Y1604D02*
X870Y1604D01*
X1911Y1604D02*
X1999Y1604D01*
X781Y1603D02*
X868Y1603D01*
X1913Y1603D02*
X2001Y1603D01*
X780Y1602D02*
X866Y1602D01*
X1915Y1602D02*
X2003Y1602D01*
X778Y1601D02*
X864Y1601D01*
X1917Y1601D02*
X2005Y1601D01*
X776Y1600D02*
X862Y1600D01*
X1919Y1600D02*
X2006Y1600D01*
X775Y1599D02*
X860Y1599D01*
X1921Y1599D02*
X2008Y1599D01*
X773Y1598D02*
X859Y1598D01*
X1923Y1598D02*
X2010Y1598D01*
X771Y1597D02*
X857Y1597D01*
X1924Y1597D02*
X2011Y1597D01*
X770Y1596D02*
X855Y1596D01*
X1926Y1596D02*
X2013Y1596D01*
X768Y1595D02*
X853Y1595D01*
X1928Y1595D02*
X2014Y1595D01*
X767Y1594D02*
X851Y1594D01*
X1930Y1594D02*
X2016Y1594D01*
X765Y1593D02*
X849Y1593D01*
X1932Y1593D02*
X2018Y1593D01*
X763Y1592D02*
X848Y1592D01*
X1934Y1592D02*
X2019Y1592D01*
X762Y1591D02*
X846Y1591D01*
X1936Y1591D02*
X2021Y1591D01*
X760Y1590D02*
X844Y1590D01*
X1938Y1590D02*
X2023Y1590D01*
X759Y1589D02*
X842Y1589D01*
X1940Y1589D02*
X2024Y1589D01*
X757Y1588D02*
X840Y1588D01*
X1941Y1588D02*
X2026Y1588D01*
X755Y1587D02*
X839Y1587D01*
X1943Y1587D02*
X2027Y1587D01*
X754Y1586D02*
X837Y1586D01*
X1945Y1586D02*
X2029Y1586D01*
X752Y1585D02*
X835Y1585D01*
X1947Y1585D02*
X2031Y1585D01*
X751Y1584D02*
X833Y1584D01*
X1949Y1584D02*
X2032Y1584D01*
X749Y1583D02*
X832Y1583D01*
X1950Y1583D02*
X2034Y1583D01*
X748Y1582D02*
X830Y1582D01*
X1952Y1582D02*
X2035Y1582D01*
X746Y1581D02*
X828Y1581D01*
X1954Y1581D02*
X2037Y1581D01*
X745Y1580D02*
X826Y1580D01*
X1956Y1580D02*
X2038Y1580D01*
X743Y1579D02*
X825Y1579D01*
X1957Y1579D02*
X2040Y1579D01*
X742Y1578D02*
X823Y1578D01*
X1959Y1578D02*
X2041Y1578D01*
X740Y1577D02*
X821Y1577D01*
X1961Y1577D02*
X2043Y1577D01*
X739Y1576D02*
X820Y1576D01*
X1963Y1576D02*
X2044Y1576D01*
X737Y1575D02*
X818Y1575D01*
X1964Y1575D02*
X2046Y1575D01*
X736Y1574D02*
X816Y1574D01*
X1966Y1574D02*
X2047Y1574D01*
X734Y1573D02*
X815Y1573D01*
X1968Y1573D02*
X2049Y1573D01*
X733Y1572D02*
X813Y1572D01*
X1970Y1572D02*
X2050Y1572D01*
X731Y1571D02*
X811Y1571D01*
X1971Y1571D02*
X2052Y1571D01*
X730Y1570D02*
X810Y1570D01*
X1973Y1570D02*
X2053Y1570D01*
X728Y1569D02*
X808Y1569D01*
X1975Y1569D02*
X2055Y1569D01*
X727Y1568D02*
X807Y1568D01*
X1976Y1568D02*
X2056Y1568D01*
X726Y1567D02*
X805Y1567D01*
X1978Y1567D02*
X2058Y1567D01*
X724Y1566D02*
X803Y1566D01*
X1980Y1566D02*
X2059Y1566D01*
X723Y1565D02*
X802Y1565D01*
X1981Y1565D02*
X2060Y1565D01*
X721Y1564D02*
X800Y1564D01*
X1983Y1564D02*
X2062Y1564D01*
X720Y1563D02*
X799Y1563D01*
X1984Y1563D02*
X2063Y1563D01*
X718Y1562D02*
X797Y1562D01*
X1986Y1562D02*
X2065Y1562D01*
X717Y1561D02*
X795Y1561D01*
X1988Y1561D02*
X2066Y1561D01*
X716Y1560D02*
X794Y1560D01*
X1989Y1560D02*
X2068Y1560D01*
X714Y1559D02*
X792Y1559D01*
X1991Y1559D02*
X2069Y1559D01*
X713Y1558D02*
X791Y1558D01*
X1992Y1558D02*
X2070Y1558D01*
X711Y1557D02*
X789Y1557D01*
X1994Y1557D02*
X2072Y1557D01*
X710Y1556D02*
X788Y1556D01*
X1996Y1556D02*
X2073Y1556D01*
X709Y1555D02*
X786Y1555D01*
X1997Y1555D02*
X2075Y1555D01*
X707Y1554D02*
X785Y1554D01*
X1999Y1554D02*
X2076Y1554D01*
X706Y1553D02*
X783Y1553D01*
X2000Y1553D02*
X2077Y1553D01*
X705Y1552D02*
X782Y1552D01*
X2002Y1552D02*
X2079Y1552D01*
X703Y1551D02*
X780Y1551D01*
X2003Y1551D02*
X2080Y1551D01*
X702Y1550D02*
X779Y1550D01*
X2005Y1550D02*
X2081Y1550D01*
X700Y1549D02*
X777Y1549D01*
X2006Y1549D02*
X2083Y1549D01*
X699Y1548D02*
X776Y1548D01*
X2008Y1548D02*
X2084Y1548D01*
X698Y1547D02*
X774Y1547D01*
X2009Y1547D02*
X2085Y1547D01*
X696Y1546D02*
X773Y1546D01*
X2011Y1546D02*
X2087Y1546D01*
X695Y1545D02*
X771Y1545D01*
X2012Y1545D02*
X2088Y1545D01*
X694Y1544D02*
X770Y1544D01*
X2014Y1544D02*
X2089Y1544D01*
X693Y1543D02*
X768Y1543D01*
X2015Y1543D02*
X2091Y1543D01*
X691Y1542D02*
X767Y1542D01*
X2017Y1542D02*
X2092Y1542D01*
X690Y1541D02*
X765Y1541D01*
X2018Y1541D02*
X2093Y1541D01*
X689Y1540D02*
X764Y1540D01*
X2020Y1540D02*
X2094Y1540D01*
X687Y1539D02*
X762Y1539D01*
X2021Y1539D02*
X2096Y1539D01*
X686Y1538D02*
X761Y1538D01*
X2023Y1538D02*
X2097Y1538D01*
X685Y1537D02*
X760Y1537D01*
X2024Y1537D02*
X2098Y1537D01*
X683Y1536D02*
X758Y1536D01*
X2026Y1536D02*
X2100Y1536D01*
X682Y1535D02*
X757Y1535D01*
X2027Y1535D02*
X2101Y1535D01*
X681Y1534D02*
X755Y1534D01*
X2028Y1534D02*
X2102Y1534D01*
X680Y1533D02*
X754Y1533D01*
X2030Y1533D02*
X2103Y1533D01*
X678Y1532D02*
X753Y1532D01*
X2031Y1532D02*
X2105Y1532D01*
X677Y1531D02*
X751Y1531D01*
X2033Y1531D02*
X2106Y1531D01*
X676Y1530D02*
X750Y1530D01*
X2034Y1530D02*
X2107Y1530D01*
X675Y1529D02*
X748Y1529D01*
X2035Y1529D02*
X2108Y1529D01*
X673Y1528D02*
X747Y1528D01*
X2037Y1528D02*
X2110Y1528D01*
X672Y1527D02*
X746Y1527D01*
X2038Y1527D02*
X2111Y1527D01*
X671Y1526D02*
X744Y1526D01*
X2039Y1526D02*
X2112Y1526D01*
X670Y1525D02*
X743Y1525D01*
X2041Y1525D02*
X2113Y1525D01*
X668Y1524D02*
X742Y1524D01*
X2042Y1524D02*
X2114Y1524D01*
X667Y1523D02*
X740Y1523D01*
X2044Y1523D02*
X2116Y1523D01*
X666Y1522D02*
X739Y1522D01*
X2045Y1522D02*
X2117Y1522D01*
X665Y1521D02*
X737Y1521D01*
X2046Y1521D02*
X2118Y1521D01*
X664Y1520D02*
X736Y1520D01*
X2048Y1520D02*
X2119Y1520D01*
X662Y1519D02*
X735Y1519D01*
X2049Y1519D02*
X2120Y1519D01*
X661Y1518D02*
X734Y1518D01*
X2050Y1518D02*
X2122Y1518D01*
X660Y1517D02*
X732Y1517D01*
X2051Y1517D02*
X2123Y1517D01*
X659Y1516D02*
X731Y1516D01*
X2053Y1516D02*
X2124Y1516D01*
X658Y1515D02*
X730Y1515D01*
X2054Y1515D02*
X2125Y1515D01*
X657Y1514D02*
X728Y1514D01*
X2055Y1514D02*
X2126Y1514D01*
X655Y1513D02*
X727Y1513D01*
X2057Y1513D02*
X2127Y1513D01*
X654Y1512D02*
X726Y1512D01*
X2058Y1512D02*
X2129Y1512D01*
X653Y1511D02*
X724Y1511D01*
X2059Y1511D02*
X2130Y1511D01*
X652Y1510D02*
X723Y1510D01*
X2060Y1510D02*
X2131Y1510D01*
X651Y1509D02*
X722Y1509D01*
X2062Y1509D02*
X2132Y1509D01*
X650Y1508D02*
X721Y1508D01*
X2063Y1508D02*
X2133Y1508D01*
X648Y1507D02*
X719Y1507D01*
X2064Y1507D02*
X2134Y1507D01*
X647Y1506D02*
X718Y1506D01*
X2065Y1506D02*
X2135Y1506D01*
X646Y1505D02*
X717Y1505D01*
X2067Y1505D02*
X2136Y1505D01*
X645Y1504D02*
X716Y1504D01*
X2068Y1504D02*
X2138Y1504D01*
X644Y1503D02*
X714Y1503D01*
X2069Y1503D02*
X2139Y1503D01*
X643Y1502D02*
X713Y1502D01*
X2070Y1502D02*
X2140Y1502D01*
X642Y1501D02*
X712Y1501D01*
X2072Y1501D02*
X2141Y1501D01*
X641Y1500D02*
X711Y1500D01*
X2073Y1500D02*
X2142Y1500D01*
X639Y1499D02*
X709Y1499D01*
X2074Y1499D02*
X2143Y1499D01*
X638Y1498D02*
X708Y1498D01*
X2075Y1498D02*
X2144Y1498D01*
X637Y1497D02*
X707Y1497D01*
X2076Y1497D02*
X2145Y1497D01*
X636Y1496D02*
X706Y1496D01*
X2078Y1496D02*
X2146Y1496D01*
X635Y1495D02*
X704Y1495D01*
X2079Y1495D02*
X2147Y1495D01*
X634Y1494D02*
X703Y1494D01*
X2080Y1494D02*
X2148Y1494D01*
X633Y1493D02*
X702Y1493D01*
X2081Y1493D02*
X2150Y1493D01*
X632Y1492D02*
X701Y1492D01*
X2082Y1492D02*
X2151Y1492D01*
X631Y1491D02*
X700Y1491D01*
X2083Y1491D02*
X2152Y1491D01*
X630Y1490D02*
X698Y1490D01*
X2085Y1490D02*
X2153Y1490D01*
X629Y1489D02*
X697Y1489D01*
X2086Y1489D02*
X2154Y1489D01*
X628Y1488D02*
X696Y1488D01*
X2087Y1488D02*
X2155Y1488D01*
X627Y1487D02*
X695Y1487D01*
X2088Y1487D02*
X2156Y1487D01*
X625Y1486D02*
X694Y1486D01*
X2089Y1486D02*
X2157Y1486D01*
X624Y1485D02*
X693Y1485D01*
X2090Y1485D02*
X2158Y1485D01*
X623Y1484D02*
X691Y1484D01*
X2091Y1484D02*
X2159Y1484D01*
X622Y1483D02*
X690Y1483D01*
X2093Y1483D02*
X2160Y1483D01*
X621Y1482D02*
X689Y1482D01*
X2094Y1482D02*
X2161Y1482D01*
X620Y1481D02*
X688Y1481D01*
X2095Y1481D02*
X2162Y1481D01*
X619Y1480D02*
X687Y1480D01*
X2096Y1480D02*
X2163Y1480D01*
X618Y1479D02*
X686Y1479D01*
X2097Y1479D02*
X2164Y1479D01*
X617Y1478D02*
X685Y1478D01*
X2098Y1478D02*
X2165Y1478D01*
X616Y1477D02*
X684Y1477D01*
X2099Y1477D02*
X2166Y1477D01*
X615Y1476D02*
X682Y1476D01*
X2100Y1476D02*
X2167Y1476D01*
X614Y1475D02*
X681Y1475D01*
X2101Y1475D02*
X2168Y1475D01*
X613Y1474D02*
X680Y1474D01*
X2102Y1474D02*
X2169Y1474D01*
X612Y1473D02*
X679Y1473D01*
X2104Y1473D02*
X2170Y1473D01*
X611Y1472D02*
X678Y1472D01*
X2105Y1472D02*
X2171Y1472D01*
X610Y1471D02*
X677Y1471D01*
X2106Y1471D02*
X2172Y1471D01*
X609Y1470D02*
X676Y1470D01*
X2107Y1470D02*
X2173Y1470D01*
X608Y1469D02*
X675Y1469D01*
X2108Y1469D02*
X2174Y1469D01*
X607Y1468D02*
X674Y1468D01*
X2109Y1468D02*
X2175Y1468D01*
X606Y1467D02*
X673Y1467D01*
X2110Y1467D02*
X2176Y1467D01*
X605Y1466D02*
X672Y1466D01*
X2111Y1466D02*
X2177Y1466D01*
X604Y1465D02*
X670Y1465D01*
X2112Y1465D02*
X2178Y1465D01*
X603Y1464D02*
X669Y1464D01*
X2113Y1464D02*
X2179Y1464D01*
X602Y1463D02*
X668Y1463D01*
X2114Y1463D02*
X2180Y1463D01*
X602Y1462D02*
X667Y1462D01*
X2115Y1462D02*
X2180Y1462D01*
X601Y1461D02*
X666Y1461D01*
X2116Y1461D02*
X2181Y1461D01*
X600Y1460D02*
X665Y1460D01*
X2117Y1460D02*
X2182Y1460D01*
X599Y1459D02*
X664Y1459D01*
X2118Y1459D02*
X2183Y1459D01*
X598Y1458D02*
X663Y1458D01*
X2119Y1458D02*
X2184Y1458D01*
X597Y1457D02*
X662Y1457D01*
X2120Y1457D02*
X2185Y1457D01*
X596Y1456D02*
X661Y1456D01*
X2121Y1456D02*
X2186Y1456D01*
X595Y1455D02*
X660Y1455D01*
X2122Y1455D02*
X2187Y1455D01*
X594Y1454D02*
X659Y1454D01*
X2123Y1454D02*
X2188Y1454D01*
X593Y1453D02*
X658Y1453D01*
X2124Y1453D02*
X2189Y1453D01*
X592Y1452D02*
X657Y1452D01*
X2125Y1452D02*
X2190Y1452D01*
X591Y1451D02*
X656Y1451D01*
X2126Y1451D02*
X2191Y1451D01*
X590Y1450D02*
X655Y1450D01*
X2127Y1450D02*
X2191Y1450D01*
X589Y1449D02*
X654Y1449D01*
X2128Y1449D02*
X2192Y1449D01*
X589Y1448D02*
X653Y1448D01*
X2129Y1448D02*
X2193Y1448D01*
X588Y1447D02*
X652Y1447D01*
X2130Y1447D02*
X2194Y1447D01*
X587Y1446D02*
X651Y1446D01*
X2131Y1446D02*
X2195Y1446D01*
X2524Y1446D02*
X2533Y1446D01*
X586Y1445D02*
X650Y1445D01*
X2132Y1445D02*
X2196Y1445D01*
X2490Y1445D02*
X2568Y1445D01*
X585Y1444D02*
X649Y1444D01*
X2133Y1444D02*
X2197Y1444D01*
X2475Y1444D02*
X2584Y1444D01*
X584Y1443D02*
X648Y1443D01*
X2134Y1443D02*
X2198Y1443D01*
X2463Y1443D02*
X2596Y1443D01*
X583Y1442D02*
X647Y1442D01*
X2134Y1442D02*
X2198Y1442D01*
X2452Y1442D02*
X2606Y1442D01*
X582Y1441D02*
X646Y1441D01*
X2135Y1441D02*
X2199Y1441D01*
X2444Y1441D02*
X2615Y1441D01*
X582Y1440D02*
X645Y1440D01*
X2136Y1440D02*
X2200Y1440D01*
X2436Y1440D02*
X2623Y1440D01*
X581Y1439D02*
X644Y1439D01*
X2137Y1439D02*
X2201Y1439D01*
X2428Y1439D02*
X2630Y1439D01*
X580Y1438D02*
X643Y1438D01*
X2138Y1438D02*
X2202Y1438D01*
X2422Y1438D02*
X2637Y1438D01*
X579Y1437D02*
X642Y1437D01*
X2139Y1437D02*
X2203Y1437D01*
X2415Y1437D02*
X2643Y1437D01*
X578Y1436D02*
X641Y1436D01*
X2140Y1436D02*
X2204Y1436D01*
X2409Y1436D02*
X2649Y1436D01*
X577Y1435D02*
X641Y1435D01*
X2141Y1435D02*
X2204Y1435D01*
X2404Y1435D02*
X2655Y1435D01*
X576Y1434D02*
X640Y1434D01*
X2142Y1434D02*
X2205Y1434D01*
X2399Y1434D02*
X2660Y1434D01*
X576Y1433D02*
X639Y1433D01*
X2143Y1433D02*
X2206Y1433D01*
X2393Y1433D02*
X2665Y1433D01*
X575Y1432D02*
X638Y1432D01*
X2144Y1432D02*
X2207Y1432D01*
X2388Y1432D02*
X2670Y1432D01*
X574Y1431D02*
X637Y1431D01*
X2145Y1431D02*
X2208Y1431D01*
X2384Y1431D02*
X2675Y1431D01*
X573Y1430D02*
X636Y1430D01*
X2145Y1430D02*
X2209Y1430D01*
X2379Y1430D02*
X2679Y1430D01*
X572Y1429D02*
X635Y1429D01*
X2146Y1429D02*
X2209Y1429D01*
X2375Y1429D02*
X2684Y1429D01*
X571Y1428D02*
X634Y1428D01*
X2147Y1428D02*
X2210Y1428D01*
X2371Y1428D02*
X2688Y1428D01*
X571Y1427D02*
X633Y1427D01*
X2148Y1427D02*
X2211Y1427D01*
X2366Y1427D02*
X2692Y1427D01*
X570Y1426D02*
X632Y1426D01*
X2149Y1426D02*
X2212Y1426D01*
X2362Y1426D02*
X2696Y1426D01*
X569Y1425D02*
X631Y1425D01*
X2150Y1425D02*
X2213Y1425D01*
X2359Y1425D02*
X2700Y1425D01*
X568Y1424D02*
X631Y1424D01*
X2151Y1424D02*
X2213Y1424D01*
X2355Y1424D02*
X2704Y1424D01*
X567Y1423D02*
X630Y1423D01*
X2151Y1423D02*
X2214Y1423D01*
X2351Y1423D02*
X2708Y1423D01*
X567Y1422D02*
X629Y1422D01*
X2152Y1422D02*
X2215Y1422D01*
X2347Y1422D02*
X2711Y1422D01*
X566Y1421D02*
X628Y1421D01*
X2153Y1421D02*
X2216Y1421D01*
X2344Y1421D02*
X2715Y1421D01*
X565Y1420D02*
X627Y1420D01*
X2154Y1420D02*
X2217Y1420D01*
X2341Y1420D02*
X2718Y1420D01*
X564Y1419D02*
X626Y1419D01*
X2155Y1419D02*
X2217Y1419D01*
X2337Y1419D02*
X2721Y1419D01*
X563Y1418D02*
X625Y1418D01*
X2156Y1418D02*
X2218Y1418D01*
X2334Y1418D02*
X2725Y1418D01*
X562Y1417D02*
X624Y1417D01*
X2157Y1417D02*
X2219Y1417D01*
X2331Y1417D02*
X2728Y1417D01*
X562Y1416D02*
X624Y1416D01*
X2157Y1416D02*
X2220Y1416D01*
X2328Y1416D02*
X2731Y1416D01*
X561Y1415D02*
X623Y1415D01*
X2158Y1415D02*
X2220Y1415D01*
X2324Y1415D02*
X2734Y1415D01*
X560Y1414D02*
X622Y1414D01*
X2159Y1414D02*
X2221Y1414D01*
X2321Y1414D02*
X2737Y1414D01*
X559Y1413D02*
X621Y1413D01*
X2160Y1413D02*
X2222Y1413D01*
X2318Y1413D02*
X2740Y1413D01*
X559Y1412D02*
X620Y1412D01*
X2161Y1412D02*
X2223Y1412D01*
X2316Y1412D02*
X2743Y1412D01*
X558Y1411D02*
X619Y1411D01*
X2162Y1411D02*
X2224Y1411D01*
X2313Y1411D02*
X2746Y1411D01*
X557Y1410D02*
X618Y1410D01*
X2162Y1410D02*
X2224Y1410D01*
X2310Y1410D02*
X2749Y1410D01*
X556Y1409D02*
X618Y1409D01*
X2163Y1409D02*
X2225Y1409D01*
X2307Y1409D02*
X2752Y1409D01*
X556Y1408D02*
X617Y1408D01*
X2164Y1408D02*
X2226Y1408D01*
X2304Y1408D02*
X2754Y1408D01*
X555Y1407D02*
X616Y1407D01*
X2165Y1407D02*
X2227Y1407D01*
X2302Y1407D02*
X2495Y1407D01*
X2564Y1407D02*
X2757Y1407D01*
X554Y1406D02*
X615Y1406D01*
X2166Y1406D02*
X2227Y1406D01*
X2299Y1406D02*
X2478Y1406D01*
X2581Y1406D02*
X2760Y1406D01*
X553Y1405D02*
X614Y1405D01*
X2166Y1405D02*
X2228Y1405D01*
X2296Y1405D02*
X2465Y1405D01*
X2593Y1405D02*
X2762Y1405D01*
X553Y1404D02*
X614Y1404D01*
X2167Y1404D02*
X2229Y1404D01*
X2294Y1404D02*
X2455Y1404D01*
X2603Y1404D02*
X2765Y1404D01*
X552Y1403D02*
X613Y1403D01*
X2168Y1403D02*
X2230Y1403D01*
X2291Y1403D02*
X2447Y1403D01*
X2612Y1403D02*
X2768Y1403D01*
X551Y1402D02*
X612Y1402D01*
X2169Y1402D02*
X2230Y1402D01*
X2289Y1402D02*
X2439Y1402D01*
X2619Y1402D02*
X2770Y1402D01*
X550Y1401D02*
X611Y1401D01*
X2169Y1401D02*
X2231Y1401D01*
X2286Y1401D02*
X2432Y1401D01*
X2626Y1401D02*
X2773Y1401D01*
X550Y1400D02*
X610Y1400D01*
X2170Y1400D02*
X2232Y1400D01*
X2284Y1400D02*
X2426Y1400D01*
X2633Y1400D02*
X2775Y1400D01*
X549Y1399D02*
X610Y1399D01*
X2171Y1399D02*
X2232Y1399D01*
X2282Y1399D02*
X2420Y1399D01*
X2639Y1399D02*
X2777Y1399D01*
X548Y1398D02*
X609Y1398D01*
X2172Y1398D02*
X2233Y1398D01*
X2279Y1398D02*
X2414Y1398D01*
X2645Y1398D02*
X2780Y1398D01*
X548Y1397D02*
X608Y1397D01*
X2173Y1397D02*
X2234Y1397D01*
X2277Y1397D02*
X2409Y1397D01*
X2650Y1397D02*
X2782Y1397D01*
X547Y1396D02*
X607Y1396D01*
X2173Y1396D02*
X2235Y1396D01*
X2275Y1396D02*
X2404Y1396D01*
X2655Y1396D02*
X2784Y1396D01*
X546Y1395D02*
X606Y1395D01*
X2174Y1395D02*
X2235Y1395D01*
X2272Y1395D02*
X2399Y1395D01*
X2660Y1395D02*
X2787Y1395D01*
X545Y1394D02*
X606Y1394D01*
X2175Y1394D02*
X2236Y1394D01*
X2270Y1394D02*
X2394Y1394D01*
X2665Y1394D02*
X2789Y1394D01*
X545Y1393D02*
X605Y1393D01*
X2176Y1393D02*
X2237Y1393D01*
X2268Y1393D02*
X2390Y1393D01*
X2669Y1393D02*
X2791Y1393D01*
X544Y1392D02*
X604Y1392D01*
X2176Y1392D02*
X2237Y1392D01*
X2266Y1392D02*
X2386Y1392D01*
X2673Y1392D02*
X2793Y1392D01*
X543Y1391D02*
X603Y1391D01*
X2177Y1391D02*
X2238Y1391D01*
X2264Y1391D02*
X2382Y1391D01*
X2677Y1391D02*
X2796Y1391D01*
X543Y1390D02*
X603Y1390D01*
X2178Y1390D02*
X2239Y1390D01*
X2262Y1390D02*
X2378Y1390D01*
X2681Y1390D02*
X2798Y1390D01*
X542Y1389D02*
X602Y1389D01*
X2179Y1389D02*
X2240Y1389D01*
X2259Y1389D02*
X2374Y1389D01*
X2685Y1389D02*
X2800Y1389D01*
X541Y1388D02*
X601Y1388D01*
X2179Y1388D02*
X2240Y1388D01*
X2257Y1388D02*
X2370Y1388D01*
X2689Y1388D02*
X2802Y1388D01*
X541Y1387D02*
X600Y1387D01*
X2180Y1387D02*
X2241Y1387D01*
X2255Y1387D02*
X2367Y1387D01*
X2692Y1387D02*
X2804Y1387D01*
X540Y1386D02*
X600Y1386D01*
X2181Y1386D02*
X2242Y1386D01*
X2253Y1386D02*
X2363Y1386D01*
X2696Y1386D02*
X2806Y1386D01*
X539Y1385D02*
X599Y1385D01*
X2182Y1385D02*
X2242Y1385D01*
X2251Y1385D02*
X2360Y1385D01*
X2699Y1385D02*
X2808Y1385D01*
X539Y1384D02*
X598Y1384D01*
X2182Y1384D02*
X2243Y1384D01*
X2249Y1384D02*
X2357Y1384D01*
X2703Y1384D02*
X2810Y1384D01*
X538Y1383D02*
X597Y1383D01*
X2183Y1383D02*
X2244Y1383D01*
X2247Y1383D02*
X2353Y1383D01*
X2706Y1383D02*
X2812Y1383D01*
X537Y1382D02*
X597Y1382D01*
X2184Y1382D02*
X2350Y1382D01*
X2709Y1382D02*
X2814Y1382D01*
X537Y1381D02*
X596Y1381D01*
X2184Y1381D02*
X2347Y1381D01*
X2712Y1381D02*
X2816Y1381D01*
X536Y1380D02*
X595Y1380D01*
X2185Y1380D02*
X2344Y1380D01*
X2715Y1380D02*
X2818Y1380D01*
X535Y1379D02*
X595Y1379D01*
X2186Y1379D02*
X2341Y1379D01*
X2718Y1379D02*
X2820Y1379D01*
X535Y1378D02*
X594Y1378D01*
X2187Y1378D02*
X2338Y1378D01*
X2721Y1378D02*
X2822Y1378D01*
X534Y1377D02*
X593Y1377D01*
X2187Y1377D02*
X2336Y1377D01*
X2724Y1377D02*
X2824Y1377D01*
X533Y1376D02*
X592Y1376D01*
X2188Y1376D02*
X2333Y1376D01*
X2727Y1376D02*
X2825Y1376D01*
X533Y1375D02*
X592Y1375D01*
X2189Y1375D02*
X2330Y1375D01*
X2729Y1375D02*
X2827Y1375D01*
X532Y1374D02*
X591Y1374D01*
X2189Y1374D02*
X2328Y1374D01*
X2732Y1374D02*
X2829Y1374D01*
X531Y1373D02*
X590Y1373D01*
X2190Y1373D02*
X2325Y1373D01*
X2735Y1373D02*
X2831Y1373D01*
X531Y1372D02*
X590Y1372D01*
X2191Y1372D02*
X2322Y1372D01*
X2737Y1372D02*
X2833Y1372D01*
X530Y1371D02*
X589Y1371D01*
X2191Y1371D02*
X2320Y1371D01*
X2740Y1371D02*
X2834Y1371D01*
X529Y1370D02*
X588Y1370D01*
X2192Y1370D02*
X2317Y1370D01*
X2742Y1370D02*
X2836Y1370D01*
X529Y1369D02*
X588Y1369D01*
X2193Y1369D02*
X2315Y1369D01*
X2745Y1369D02*
X2838Y1369D01*
X528Y1368D02*
X587Y1368D01*
X2193Y1368D02*
X2313Y1368D01*
X2747Y1368D02*
X2840Y1368D01*
X528Y1367D02*
X586Y1367D01*
X2194Y1367D02*
X2310Y1367D01*
X2749Y1367D02*
X2841Y1367D01*
X527Y1366D02*
X586Y1366D01*
X2195Y1366D02*
X2308Y1366D01*
X2752Y1366D02*
X2843Y1366D01*
X526Y1365D02*
X585Y1365D01*
X2195Y1365D02*
X2306Y1365D01*
X2754Y1365D02*
X2845Y1365D01*
X526Y1364D02*
X584Y1364D01*
X2196Y1364D02*
X2303Y1364D01*
X2756Y1364D02*
X2846Y1364D01*
X525Y1363D02*
X584Y1363D01*
X2197Y1363D02*
X2301Y1363D01*
X2758Y1363D02*
X2848Y1363D01*
X524Y1362D02*
X583Y1362D01*
X2197Y1362D02*
X2299Y1362D01*
X2761Y1362D02*
X2850Y1362D01*
X524Y1361D02*
X582Y1361D01*
X2198Y1361D02*
X2297Y1361D01*
X2763Y1361D02*
X2851Y1361D01*
X523Y1360D02*
X582Y1360D01*
X2199Y1360D02*
X2295Y1360D01*
X2765Y1360D02*
X2853Y1360D01*
X523Y1359D02*
X581Y1359D01*
X2199Y1359D02*
X2293Y1359D01*
X2767Y1359D02*
X2854Y1359D01*
X522Y1358D02*
X580Y1358D01*
X2200Y1358D02*
X2291Y1358D01*
X2769Y1358D02*
X2856Y1358D01*
X521Y1357D02*
X580Y1357D01*
X2201Y1357D02*
X2289Y1357D01*
X2771Y1357D02*
X2857Y1357D01*
X521Y1356D02*
X579Y1356D01*
X2201Y1356D02*
X2287Y1356D01*
X2773Y1356D02*
X2859Y1356D01*
X520Y1355D02*
X578Y1355D01*
X2202Y1355D02*
X2285Y1355D01*
X2775Y1355D02*
X2861Y1355D01*
X520Y1354D02*
X578Y1354D01*
X2203Y1354D02*
X2283Y1354D01*
X2777Y1354D02*
X2862Y1354D01*
X519Y1353D02*
X577Y1353D01*
X2203Y1353D02*
X2281Y1353D01*
X2779Y1353D02*
X2864Y1353D01*
X519Y1352D02*
X577Y1352D01*
X2204Y1352D02*
X2279Y1352D01*
X2781Y1352D02*
X2865Y1352D01*
X518Y1351D02*
X576Y1351D01*
X2204Y1351D02*
X2277Y1351D01*
X2783Y1351D02*
X2867Y1351D01*
X517Y1350D02*
X575Y1350D01*
X2205Y1350D02*
X2275Y1350D01*
X2785Y1350D02*
X2868Y1350D01*
X517Y1349D02*
X575Y1349D01*
X2206Y1349D02*
X2273Y1349D01*
X2787Y1349D02*
X2870Y1349D01*
X516Y1348D02*
X574Y1348D01*
X2206Y1348D02*
X2271Y1348D01*
X2789Y1348D02*
X2871Y1348D01*
X516Y1347D02*
X573Y1347D01*
X2207Y1347D02*
X2269Y1347D01*
X2791Y1347D02*
X2872Y1347D01*
X515Y1346D02*
X573Y1346D01*
X2208Y1346D02*
X2268Y1346D01*
X2792Y1346D02*
X2874Y1346D01*
X515Y1345D02*
X572Y1345D01*
X2208Y1345D02*
X2266Y1345D01*
X2794Y1345D02*
X2875Y1345D01*
X514Y1344D02*
X572Y1344D01*
X2209Y1344D02*
X2264Y1344D01*
X2796Y1344D02*
X2877Y1344D01*
X514Y1343D02*
X571Y1343D01*
X2209Y1343D02*
X2262Y1343D01*
X2798Y1343D02*
X2878Y1343D01*
X513Y1342D02*
X571Y1342D01*
X2210Y1342D02*
X2261Y1342D01*
X2799Y1342D02*
X2879Y1342D01*
X512Y1341D02*
X570Y1341D01*
X2211Y1341D02*
X2259Y1341D01*
X2801Y1341D02*
X2881Y1341D01*
X512Y1340D02*
X569Y1340D01*
X2211Y1340D02*
X2257Y1340D01*
X2803Y1340D02*
X2882Y1340D01*
X511Y1339D02*
X569Y1339D01*
X2212Y1339D02*
X2255Y1339D01*
X2805Y1339D02*
X2884Y1339D01*
X511Y1338D02*
X568Y1338D01*
X2212Y1338D02*
X2254Y1338D01*
X2806Y1338D02*
X2885Y1338D01*
X510Y1337D02*
X568Y1337D01*
X2213Y1337D02*
X2252Y1337D01*
X2808Y1337D02*
X2886Y1337D01*
X510Y1336D02*
X567Y1336D01*
X2214Y1336D02*
X2251Y1336D01*
X2809Y1336D02*
X2888Y1336D01*
X509Y1335D02*
X566Y1335D01*
X2214Y1335D02*
X2249Y1335D01*
X2811Y1335D02*
X2889Y1335D01*
X509Y1334D02*
X566Y1334D01*
X2215Y1334D02*
X2247Y1334D01*
X2813Y1334D02*
X2890Y1334D01*
X508Y1333D02*
X565Y1333D01*
X2215Y1333D02*
X2246Y1333D01*
X2814Y1333D02*
X2891Y1333D01*
X508Y1332D02*
X565Y1332D01*
X2216Y1332D02*
X2244Y1332D01*
X2816Y1332D02*
X2893Y1332D01*
X507Y1331D02*
X564Y1331D01*
X2217Y1331D02*
X2242Y1331D01*
X2818Y1331D02*
X2894Y1331D01*
X507Y1330D02*
X564Y1330D01*
X2217Y1330D02*
X2241Y1330D01*
X2819Y1330D02*
X2895Y1330D01*
X506Y1329D02*
X563Y1329D01*
X2218Y1329D02*
X2239Y1329D01*
X2821Y1329D02*
X2897Y1329D01*
X506Y1328D02*
X563Y1328D01*
X2218Y1328D02*
X2237Y1328D01*
X2822Y1328D02*
X2898Y1328D01*
X505Y1327D02*
X562Y1327D01*
X2219Y1327D02*
X2236Y1327D01*
X2824Y1327D02*
X2899Y1327D01*
X505Y1326D02*
X562Y1326D01*
X2220Y1326D02*
X2234Y1326D01*
X2825Y1326D02*
X2900Y1326D01*
X504Y1325D02*
X561Y1325D01*
X2220Y1325D02*
X2232Y1325D01*
X2827Y1325D02*
X2901Y1325D01*
X504Y1324D02*
X561Y1324D01*
X2221Y1324D02*
X2231Y1324D01*
X2828Y1324D02*
X2903Y1324D01*
X503Y1323D02*
X560Y1323D01*
X2221Y1323D02*
X2229Y1323D01*
X2830Y1323D02*
X2904Y1323D01*
X503Y1322D02*
X559Y1322D01*
X2222Y1322D02*
X2228Y1322D01*
X2831Y1322D02*
X2905Y1322D01*
X502Y1321D02*
X559Y1321D01*
X2223Y1321D02*
X2226Y1321D01*
X2833Y1321D02*
X2906Y1321D01*
X502Y1320D02*
X558Y1320D01*
X2223Y1320D02*
X2224Y1320D01*
X2834Y1320D02*
X2907Y1320D01*
X501Y1319D02*
X558Y1319D01*
X2835Y1319D02*
X2909Y1319D01*
X501Y1318D02*
X557Y1318D01*
X2837Y1318D02*
X2910Y1318D01*
X500Y1317D02*
X557Y1317D01*
X2838Y1317D02*
X2911Y1317D01*
X500Y1316D02*
X556Y1316D01*
X2840Y1316D02*
X2912Y1316D01*
X499Y1315D02*
X556Y1315D01*
X2841Y1315D02*
X2913Y1315D01*
X499Y1314D02*
X555Y1314D01*
X2842Y1314D02*
X2914Y1314D01*
X498Y1313D02*
X555Y1313D01*
X2844Y1313D02*
X2915Y1313D01*
X498Y1312D02*
X554Y1312D01*
X2845Y1312D02*
X2916Y1312D01*
X497Y1311D02*
X554Y1311D01*
X2846Y1311D02*
X2918Y1311D01*
X497Y1310D02*
X553Y1310D01*
X2848Y1310D02*
X2919Y1310D01*
X497Y1309D02*
X553Y1309D01*
X2849Y1309D02*
X2920Y1309D01*
X496Y1308D02*
X552Y1308D01*
X2850Y1308D02*
X2921Y1308D01*
X496Y1307D02*
X552Y1307D01*
X2852Y1307D02*
X2922Y1307D01*
X495Y1306D02*
X551Y1306D01*
X2853Y1306D02*
X2923Y1306D01*
X495Y1305D02*
X551Y1305D01*
X2854Y1305D02*
X2924Y1305D01*
X494Y1304D02*
X551Y1304D01*
X2856Y1304D02*
X2925Y1304D01*
X494Y1303D02*
X550Y1303D01*
X2857Y1303D02*
X2926Y1303D01*
X493Y1302D02*
X550Y1302D01*
X2858Y1302D02*
X2927Y1302D01*
X493Y1301D02*
X549Y1301D01*
X2859Y1301D02*
X2928Y1301D01*
X493Y1300D02*
X549Y1300D01*
X2861Y1300D02*
X2929Y1300D01*
X492Y1299D02*
X548Y1299D01*
X2862Y1299D02*
X2930Y1299D01*
X492Y1298D02*
X548Y1298D01*
X2863Y1298D02*
X2931Y1298D01*
X491Y1297D02*
X547Y1297D01*
X2864Y1297D02*
X2932Y1297D01*
X491Y1296D02*
X547Y1296D01*
X2865Y1296D02*
X2933Y1296D01*
X490Y1295D02*
X546Y1295D01*
X2867Y1295D02*
X2934Y1295D01*
X490Y1294D02*
X546Y1294D01*
X2868Y1294D02*
X2935Y1294D01*
X490Y1293D02*
X546Y1293D01*
X2869Y1293D02*
X2936Y1293D01*
X489Y1292D02*
X545Y1292D01*
X2870Y1292D02*
X2937Y1292D01*
X489Y1291D02*
X545Y1291D01*
X2871Y1291D02*
X2938Y1291D01*
X488Y1290D02*
X544Y1290D01*
X2872Y1290D02*
X2939Y1290D01*
X488Y1289D02*
X544Y1289D01*
X2873Y1289D02*
X2939Y1289D01*
X488Y1288D02*
X543Y1288D01*
X2875Y1288D02*
X2940Y1288D01*
X487Y1287D02*
X543Y1287D01*
X2876Y1287D02*
X2941Y1287D01*
X487Y1286D02*
X543Y1286D01*
X2877Y1286D02*
X2942Y1286D01*
X486Y1285D02*
X542Y1285D01*
X2878Y1285D02*
X2943Y1285D01*
X486Y1284D02*
X542Y1284D01*
X2879Y1284D02*
X2944Y1284D01*
X486Y1283D02*
X541Y1283D01*
X2880Y1283D02*
X2945Y1283D01*
X485Y1282D02*
X541Y1282D01*
X2881Y1282D02*
X2946Y1282D01*
X485Y1281D02*
X541Y1281D01*
X2882Y1281D02*
X2947Y1281D01*
X485Y1280D02*
X540Y1280D01*
X2883Y1280D02*
X2947Y1280D01*
X484Y1279D02*
X540Y1279D01*
X2884Y1279D02*
X2948Y1279D01*
X484Y1278D02*
X539Y1278D01*
X2885Y1278D02*
X2949Y1278D01*
X483Y1277D02*
X539Y1277D01*
X2886Y1277D02*
X2950Y1277D01*
X483Y1276D02*
X539Y1276D01*
X2887Y1276D02*
X2951Y1276D01*
X483Y1275D02*
X538Y1275D01*
X2888Y1275D02*
X2952Y1275D01*
X482Y1274D02*
X538Y1274D01*
X2889Y1274D02*
X2952Y1274D01*
X482Y1273D02*
X538Y1273D01*
X2890Y1273D02*
X2953Y1273D01*
X482Y1272D02*
X537Y1272D01*
X2891Y1272D02*
X2954Y1272D01*
X481Y1271D02*
X537Y1271D01*
X2892Y1271D02*
X2955Y1271D01*
X481Y1270D02*
X536Y1270D01*
X2893Y1270D02*
X2956Y1270D01*
X481Y1269D02*
X536Y1269D01*
X2894Y1269D02*
X2956Y1269D01*
X480Y1268D02*
X536Y1268D01*
X2895Y1268D02*
X2957Y1268D01*
X480Y1267D02*
X535Y1267D01*
X2896Y1267D02*
X2958Y1267D01*
X480Y1266D02*
X535Y1266D01*
X2897Y1266D02*
X2959Y1266D01*
X479Y1265D02*
X535Y1265D01*
X2898Y1265D02*
X2959Y1265D01*
X479Y1264D02*
X534Y1264D01*
X2898Y1264D02*
X2960Y1264D01*
X479Y1263D02*
X534Y1263D01*
X2899Y1263D02*
X2961Y1263D01*
X478Y1262D02*
X534Y1262D01*
X2900Y1262D02*
X2962Y1262D01*
X478Y1261D02*
X533Y1261D01*
X2901Y1261D02*
X2962Y1261D01*
X478Y1260D02*
X533Y1260D01*
X2902Y1260D02*
X2963Y1260D01*
X477Y1259D02*
X533Y1259D01*
X2903Y1259D02*
X2964Y1259D01*
X477Y1258D02*
X532Y1258D01*
X2904Y1258D02*
X2964Y1258D01*
X477Y1257D02*
X532Y1257D01*
X2904Y1257D02*
X2965Y1257D01*
X476Y1256D02*
X532Y1256D01*
X2905Y1256D02*
X2966Y1256D01*
X476Y1255D02*
X531Y1255D01*
X2906Y1255D02*
X2967Y1255D01*
X476Y1254D02*
X531Y1254D01*
X2907Y1254D02*
X2967Y1254D01*
X475Y1253D02*
X531Y1253D01*
X2908Y1253D02*
X2968Y1253D01*
X475Y1252D02*
X530Y1252D01*
X2908Y1252D02*
X2969Y1252D01*
X475Y1251D02*
X530Y1251D01*
X2909Y1251D02*
X2969Y1251D01*
X474Y1250D02*
X530Y1250D01*
X2910Y1250D02*
X2970Y1250D01*
X474Y1249D02*
X529Y1249D01*
X2911Y1249D02*
X2971Y1249D01*
X474Y1248D02*
X529Y1248D01*
X2912Y1248D02*
X2971Y1248D01*
X474Y1247D02*
X529Y1247D01*
X2912Y1247D02*
X2972Y1247D01*
X473Y1246D02*
X528Y1246D01*
X2913Y1246D02*
X2972Y1246D01*
X473Y1245D02*
X528Y1245D01*
X2914Y1245D02*
X2973Y1245D01*
X473Y1244D02*
X528Y1244D01*
X2915Y1244D02*
X2974Y1244D01*
X472Y1243D02*
X528Y1243D01*
X2915Y1243D02*
X2974Y1243D01*
X472Y1242D02*
X527Y1242D01*
X2916Y1242D02*
X2975Y1242D01*
X472Y1241D02*
X527Y1241D01*
X2917Y1241D02*
X2976Y1241D01*
X472Y1240D02*
X527Y1240D01*
X2917Y1240D02*
X2976Y1240D01*
X471Y1239D02*
X526Y1239D01*
X2918Y1239D02*
X2977Y1239D01*
X471Y1238D02*
X526Y1238D01*
X2919Y1238D02*
X2977Y1238D01*
X471Y1237D02*
X526Y1237D01*
X2919Y1237D02*
X2978Y1237D01*
X471Y1236D02*
X526Y1236D01*
X2920Y1236D02*
X2978Y1236D01*
X470Y1235D02*
X525Y1235D01*
X2921Y1235D02*
X2979Y1235D01*
X470Y1234D02*
X525Y1234D01*
X2921Y1234D02*
X2980Y1234D01*
X470Y1233D02*
X525Y1233D01*
X2922Y1233D02*
X2980Y1233D01*
X469Y1232D02*
X524Y1232D01*
X2923Y1232D02*
X2981Y1232D01*
X469Y1231D02*
X524Y1231D01*
X2923Y1231D02*
X2981Y1231D01*
X469Y1230D02*
X524Y1230D01*
X2924Y1230D02*
X2982Y1230D01*
X469Y1229D02*
X524Y1229D01*
X2925Y1229D02*
X2982Y1229D01*
X468Y1228D02*
X523Y1228D01*
X2925Y1228D02*
X2983Y1228D01*
X468Y1227D02*
X523Y1227D01*
X2926Y1227D02*
X2983Y1227D01*
X468Y1226D02*
X523Y1226D01*
X2926Y1226D02*
X2984Y1226D01*
X468Y1225D02*
X523Y1225D01*
X2927Y1225D02*
X2984Y1225D01*
X467Y1224D02*
X522Y1224D01*
X2928Y1224D02*
X2985Y1224D01*
X467Y1223D02*
X522Y1223D01*
X2928Y1223D02*
X2985Y1223D01*
X467Y1222D02*
X522Y1222D01*
X2929Y1222D02*
X2986Y1222D01*
X467Y1221D02*
X522Y1221D01*
X2929Y1221D02*
X2986Y1221D01*
X467Y1220D02*
X521Y1220D01*
X2930Y1220D02*
X2987Y1220D01*
X466Y1219D02*
X521Y1219D01*
X2930Y1219D02*
X2987Y1219D01*
X466Y1218D02*
X521Y1218D01*
X2931Y1218D02*
X2988Y1218D01*
X466Y1217D02*
X521Y1217D01*
X2932Y1217D02*
X2988Y1217D01*
X466Y1216D02*
X521Y1216D01*
X2932Y1216D02*
X2989Y1216D01*
X465Y1215D02*
X520Y1215D01*
X2933Y1215D02*
X2989Y1215D01*
X465Y1214D02*
X520Y1214D01*
X2933Y1214D02*
X2990Y1214D01*
X465Y1213D02*
X520Y1213D01*
X2934Y1213D02*
X2990Y1213D01*
X465Y1212D02*
X520Y1212D01*
X2934Y1212D02*
X2991Y1212D01*
X465Y1211D02*
X519Y1211D01*
X2935Y1211D02*
X2991Y1211D01*
X464Y1210D02*
X519Y1210D01*
X2935Y1210D02*
X2991Y1210D01*
X464Y1209D02*
X519Y1209D01*
X2936Y1209D02*
X2992Y1209D01*
X464Y1208D02*
X519Y1208D01*
X2936Y1208D02*
X2992Y1208D01*
X464Y1207D02*
X519Y1207D01*
X2937Y1207D02*
X2993Y1207D01*
X464Y1206D02*
X518Y1206D01*
X2937Y1206D02*
X2993Y1206D01*
X463Y1205D02*
X518Y1205D01*
X2937Y1205D02*
X2994Y1205D01*
X463Y1204D02*
X518Y1204D01*
X2938Y1204D02*
X2994Y1204D01*
X463Y1203D02*
X518Y1203D01*
X2938Y1203D02*
X2994Y1203D01*
X463Y1202D02*
X518Y1202D01*
X2939Y1202D02*
X2995Y1202D01*
X463Y1201D02*
X517Y1201D01*
X2939Y1201D02*
X2995Y1201D01*
X462Y1200D02*
X517Y1200D01*
X2940Y1200D02*
X2995Y1200D01*
X462Y1199D02*
X517Y1199D01*
X2940Y1199D02*
X2996Y1199D01*
X462Y1198D02*
X517Y1198D01*
X2940Y1198D02*
X2996Y1198D01*
X462Y1197D02*
X517Y1197D01*
X2941Y1197D02*
X2997Y1197D01*
X462Y1196D02*
X517Y1196D01*
X2941Y1196D02*
X2997Y1196D01*
X462Y1195D02*
X516Y1195D01*
X2942Y1195D02*
X2997Y1195D01*
X461Y1194D02*
X516Y1194D01*
X2942Y1194D02*
X2998Y1194D01*
X461Y1193D02*
X516Y1193D01*
X2942Y1193D02*
X2998Y1193D01*
X461Y1192D02*
X516Y1192D01*
X2943Y1192D02*
X2998Y1192D01*
X461Y1191D02*
X516Y1191D01*
X2943Y1191D02*
X2999Y1191D01*
X461Y1190D02*
X515Y1190D01*
X2944Y1190D02*
X2999Y1190D01*
X461Y1189D02*
X515Y1189D01*
X2944Y1189D02*
X2999Y1189D01*
X460Y1188D02*
X515Y1188D01*
X2944Y1188D02*
X3000Y1188D01*
X460Y1187D02*
X515Y1187D01*
X2945Y1187D02*
X3000Y1187D01*
X460Y1186D02*
X515Y1186D01*
X2945Y1186D02*
X3000Y1186D01*
X460Y1185D02*
X515Y1185D01*
X2945Y1185D02*
X3001Y1185D01*
X460Y1184D02*
X515Y1184D01*
X2946Y1184D02*
X3001Y1184D01*
X460Y1183D02*
X514Y1183D01*
X2946Y1183D02*
X3001Y1183D01*
X460Y1182D02*
X514Y1182D01*
X2946Y1182D02*
X3002Y1182D01*
X459Y1181D02*
X514Y1181D01*
X2947Y1181D02*
X3002Y1181D01*
X459Y1180D02*
X514Y1180D01*
X2947Y1180D02*
X3002Y1180D01*
X459Y1179D02*
X514Y1179D01*
X2947Y1179D02*
X3002Y1179D01*
X459Y1178D02*
X514Y1178D01*
X2948Y1178D02*
X3003Y1178D01*
X459Y1177D02*
X514Y1177D01*
X2948Y1177D02*
X3003Y1177D01*
X459Y1176D02*
X513Y1176D01*
X2948Y1176D02*
X3003Y1176D01*
X459Y1175D02*
X513Y1175D01*
X2948Y1175D02*
X3003Y1175D01*
X459Y1174D02*
X513Y1174D01*
X2949Y1174D02*
X3004Y1174D01*
X458Y1173D02*
X513Y1173D01*
X2949Y1173D02*
X3004Y1173D01*
X458Y1172D02*
X513Y1172D01*
X2949Y1172D02*
X3004Y1172D01*
X458Y1171D02*
X513Y1171D01*
X2949Y1171D02*
X3004Y1171D01*
X458Y1170D02*
X513Y1170D01*
X2950Y1170D02*
X3005Y1170D01*
X458Y1169D02*
X513Y1169D01*
X2950Y1169D02*
X3005Y1169D01*
X458Y1168D02*
X512Y1168D01*
X2950Y1168D02*
X3005Y1168D01*
X458Y1167D02*
X512Y1167D01*
X2950Y1167D02*
X3005Y1167D01*
X458Y1166D02*
X512Y1166D01*
X2951Y1166D02*
X3006Y1166D01*
X457Y1165D02*
X512Y1165D01*
X2951Y1165D02*
X3006Y1165D01*
X457Y1164D02*
X512Y1164D01*
X2951Y1164D02*
X3006Y1164D01*
X457Y1163D02*
X512Y1163D01*
X2951Y1163D02*
X3006Y1163D01*
X457Y1162D02*
X512Y1162D01*
X2952Y1162D02*
X3006Y1162D01*
X457Y1161D02*
X512Y1161D01*
X2952Y1161D02*
X3007Y1161D01*
X457Y1160D02*
X512Y1160D01*
X2952Y1160D02*
X3007Y1160D01*
X457Y1159D02*
X512Y1159D01*
X2952Y1159D02*
X3007Y1159D01*
X457Y1158D02*
X511Y1158D01*
X2952Y1158D02*
X3007Y1158D01*
X457Y1157D02*
X511Y1157D01*
X2953Y1157D02*
X3007Y1157D01*
X457Y1156D02*
X511Y1156D01*
X2953Y1156D02*
X3008Y1156D01*
X457Y1155D02*
X511Y1155D01*
X2953Y1155D02*
X3008Y1155D01*
X456Y1154D02*
X511Y1154D01*
X2953Y1154D02*
X3008Y1154D01*
X456Y1153D02*
X511Y1153D01*
X2953Y1153D02*
X3008Y1153D01*
X456Y1152D02*
X511Y1152D01*
X2953Y1152D02*
X3008Y1152D01*
X456Y1151D02*
X511Y1151D01*
X2954Y1151D02*
X3008Y1151D01*
X456Y1150D02*
X511Y1150D01*
X2954Y1150D02*
X3009Y1150D01*
X456Y1149D02*
X511Y1149D01*
X2954Y1149D02*
X3009Y1149D01*
X456Y1148D02*
X511Y1148D01*
X2954Y1148D02*
X3009Y1148D01*
X456Y1147D02*
X511Y1147D01*
X2954Y1147D02*
X3009Y1147D01*
X456Y1146D02*
X511Y1146D01*
X2954Y1146D02*
X3009Y1146D01*
X456Y1145D02*
X510Y1145D01*
X2955Y1145D02*
X3009Y1145D01*
X456Y1144D02*
X510Y1144D01*
X2955Y1144D02*
X3009Y1144D01*
X456Y1143D02*
X510Y1143D01*
X2955Y1143D02*
X3009Y1143D01*
X456Y1142D02*
X510Y1142D01*
X2955Y1142D02*
X3010Y1142D01*
X456Y1141D02*
X510Y1141D01*
X2955Y1141D02*
X3010Y1141D01*
X456Y1140D02*
X510Y1140D01*
X2955Y1140D02*
X3010Y1140D01*
X456Y1139D02*
X510Y1139D01*
X2955Y1139D02*
X3010Y1139D01*
X455Y1138D02*
X510Y1138D01*
X2955Y1138D02*
X3010Y1138D01*
X455Y1137D02*
X510Y1137D01*
X2955Y1137D02*
X3010Y1137D01*
X455Y1136D02*
X510Y1136D01*
X2955Y1136D02*
X3010Y1136D01*
X455Y1135D02*
X510Y1135D01*
X2956Y1135D02*
X3010Y1135D01*
X455Y1134D02*
X510Y1134D01*
X2956Y1134D02*
X3010Y1134D01*
X455Y1133D02*
X510Y1133D01*
X2956Y1133D02*
X3010Y1133D01*
X455Y1132D02*
X510Y1132D01*
X2956Y1132D02*
X3011Y1132D01*
X455Y1131D02*
X510Y1131D01*
X2956Y1131D02*
X3011Y1131D01*
X455Y1130D02*
X510Y1130D01*
X2956Y1130D02*
X3011Y1130D01*
X455Y1129D02*
X510Y1129D01*
X2956Y1129D02*
X3011Y1129D01*
X455Y1128D02*
X510Y1128D01*
X2956Y1128D02*
X3011Y1128D01*
X455Y1127D02*
X510Y1127D01*
X2956Y1127D02*
X3011Y1127D01*
X455Y1126D02*
X510Y1126D01*
X2956Y1126D02*
X3011Y1126D01*
X455Y1125D02*
X510Y1125D01*
X2956Y1125D02*
X3011Y1125D01*
X455Y1124D02*
X510Y1124D01*
X2956Y1124D02*
X3011Y1124D01*
X455Y1123D02*
X510Y1123D01*
X2956Y1123D02*
X3011Y1123D01*
X455Y1122D02*
X510Y1122D01*
X2956Y1122D02*
X3011Y1122D01*
X455Y1121D02*
X510Y1121D01*
X2956Y1121D02*
X3011Y1121D01*
X455Y1120D02*
X510Y1120D01*
X2956Y1120D02*
X3011Y1120D01*
X455Y1119D02*
X510Y1119D01*
X2956Y1119D02*
X3011Y1119D01*
X455Y1118D02*
X510Y1118D01*
X2956Y1118D02*
X3011Y1118D01*
X455Y1117D02*
X510Y1117D01*
X2956Y1117D02*
X3011Y1117D01*
X455Y1116D02*
X510Y1116D01*
X2956Y1116D02*
X3011Y1116D01*
X455Y1115D02*
X510Y1115D01*
X2956Y1115D02*
X3011Y1115D01*
X455Y1114D02*
X510Y1114D01*
X2956Y1114D02*
X3011Y1114D01*
X455Y1113D02*
X510Y1113D01*
X2956Y1113D02*
X3011Y1113D01*
X455Y1112D02*
X510Y1112D01*
X2956Y1112D02*
X3011Y1112D01*
X455Y1111D02*
X510Y1111D01*
X2956Y1111D02*
X3011Y1111D01*
X455Y1110D02*
X510Y1110D01*
X2956Y1110D02*
X3011Y1110D01*
X455Y1109D02*
X510Y1109D01*
X2956Y1109D02*
X3011Y1109D01*
X455Y1108D02*
X510Y1108D01*
X2956Y1108D02*
X3011Y1108D01*
X455Y1107D02*
X510Y1107D01*
X2956Y1107D02*
X3011Y1107D01*
X455Y1106D02*
X510Y1106D01*
X2956Y1106D02*
X3011Y1106D01*
X455Y1105D02*
X510Y1105D01*
X2956Y1105D02*
X3011Y1105D01*
X455Y1104D02*
X510Y1104D01*
X2956Y1104D02*
X3011Y1104D01*
X455Y1103D02*
X510Y1103D01*
X2956Y1103D02*
X3011Y1103D01*
X455Y1102D02*
X510Y1102D01*
X2956Y1102D02*
X3011Y1102D01*
X455Y1101D02*
X510Y1101D01*
X2956Y1101D02*
X3011Y1101D01*
X455Y1100D02*
X510Y1100D01*
X2956Y1100D02*
X3011Y1100D01*
X455Y1099D02*
X510Y1099D01*
X2956Y1099D02*
X3011Y1099D01*
X455Y1098D02*
X510Y1098D01*
X2956Y1098D02*
X3011Y1098D01*
X455Y1097D02*
X510Y1097D01*
X2956Y1097D02*
X3010Y1097D01*
X455Y1096D02*
X510Y1096D01*
X2956Y1096D02*
X3010Y1096D01*
X456Y1095D02*
X510Y1095D01*
X2956Y1095D02*
X3010Y1095D01*
X456Y1094D02*
X510Y1094D01*
X2956Y1094D02*
X3010Y1094D01*
X456Y1093D02*
X510Y1093D01*
X2955Y1093D02*
X3010Y1093D01*
X456Y1092D02*
X510Y1092D01*
X2955Y1092D02*
X3010Y1092D01*
X456Y1091D02*
X511Y1091D01*
X2955Y1091D02*
X3010Y1091D01*
X456Y1090D02*
X511Y1090D01*
X2955Y1090D02*
X3010Y1090D01*
X456Y1089D02*
X511Y1089D01*
X2955Y1089D02*
X3010Y1089D01*
X456Y1088D02*
X511Y1088D01*
X2955Y1088D02*
X3010Y1088D01*
X456Y1087D02*
X511Y1087D01*
X2955Y1087D02*
X3009Y1087D01*
X456Y1086D02*
X511Y1086D01*
X2955Y1086D02*
X3009Y1086D01*
X456Y1085D02*
X511Y1085D01*
X2954Y1085D02*
X3009Y1085D01*
X456Y1084D02*
X511Y1084D01*
X2954Y1084D02*
X3009Y1084D01*
X456Y1083D02*
X511Y1083D01*
X2954Y1083D02*
X3009Y1083D01*
X456Y1082D02*
X511Y1082D01*
X2954Y1082D02*
X3009Y1082D01*
X457Y1081D02*
X511Y1081D01*
X2954Y1081D02*
X3009Y1081D01*
X457Y1080D02*
X511Y1080D01*
X2954Y1080D02*
X3009Y1080D01*
X457Y1079D02*
X511Y1079D01*
X2954Y1079D02*
X3008Y1079D01*
X457Y1078D02*
X512Y1078D01*
X2953Y1078D02*
X3008Y1078D01*
X457Y1077D02*
X512Y1077D01*
X2953Y1077D02*
X3008Y1077D01*
X457Y1076D02*
X512Y1076D01*
X2953Y1076D02*
X3008Y1076D01*
X457Y1075D02*
X512Y1075D01*
X2953Y1075D02*
X3008Y1075D01*
X457Y1074D02*
X512Y1074D01*
X2953Y1074D02*
X3008Y1074D01*
X456Y1073D02*
X512Y1073D01*
X2952Y1073D02*
X3007Y1073D01*
X453Y1072D02*
X512Y1072D01*
X2952Y1072D02*
X3007Y1072D01*
X450Y1071D02*
X512Y1071D01*
X2952Y1071D02*
X3007Y1071D01*
X447Y1070D02*
X512Y1070D01*
X2952Y1070D02*
X3007Y1070D01*
X444Y1069D02*
X512Y1069D01*
X2952Y1069D02*
X3007Y1069D01*
X441Y1068D02*
X513Y1068D01*
X2951Y1068D02*
X3006Y1068D01*
X439Y1067D02*
X513Y1067D01*
X2951Y1067D02*
X3006Y1067D01*
X436Y1066D02*
X513Y1066D01*
X2951Y1066D02*
X3006Y1066D01*
X433Y1065D02*
X513Y1065D01*
X2951Y1065D02*
X3006Y1065D01*
X430Y1064D02*
X513Y1064D01*
X2950Y1064D02*
X3006Y1064D01*
X428Y1063D02*
X513Y1063D01*
X2950Y1063D02*
X3005Y1063D01*
X425Y1062D02*
X513Y1062D01*
X2950Y1062D02*
X3005Y1062D01*
X422Y1061D02*
X513Y1061D01*
X2950Y1061D02*
X3005Y1061D01*
X420Y1060D02*
X513Y1060D01*
X2949Y1060D02*
X3005Y1060D01*
X417Y1059D02*
X513Y1059D01*
X2949Y1059D02*
X3004Y1059D01*
X415Y1058D02*
X514Y1058D01*
X2949Y1058D02*
X3004Y1058D01*
X412Y1057D02*
X514Y1057D01*
X2949Y1057D02*
X3004Y1057D01*
X409Y1056D02*
X514Y1056D01*
X2948Y1056D02*
X3004Y1056D01*
X407Y1055D02*
X514Y1055D01*
X2948Y1055D02*
X3003Y1055D01*
X405Y1054D02*
X514Y1054D01*
X2948Y1054D02*
X3003Y1054D01*
X402Y1053D02*
X514Y1053D01*
X2947Y1053D02*
X3003Y1053D01*
X400Y1052D02*
X514Y1052D01*
X2947Y1052D02*
X3002Y1052D01*
X397Y1051D02*
X514Y1051D01*
X2947Y1051D02*
X3002Y1051D01*
X395Y1050D02*
X514Y1050D01*
X2947Y1050D02*
X3002Y1050D01*
X392Y1049D02*
X511Y1049D01*
X2946Y1049D02*
X3002Y1049D01*
X390Y1048D02*
X508Y1048D01*
X2946Y1048D02*
X3001Y1048D01*
X388Y1047D02*
X505Y1047D01*
X2946Y1047D02*
X3001Y1047D01*
X385Y1046D02*
X501Y1046D01*
X2945Y1046D02*
X3001Y1046D01*
X383Y1045D02*
X498Y1045D01*
X2945Y1045D02*
X3000Y1045D01*
X381Y1044D02*
X495Y1044D01*
X2944Y1044D02*
X3000Y1044D01*
X378Y1043D02*
X492Y1043D01*
X2944Y1043D02*
X3000Y1043D01*
X376Y1042D02*
X489Y1042D01*
X2944Y1042D02*
X2999Y1042D01*
X374Y1041D02*
X486Y1041D01*
X2943Y1041D02*
X2999Y1041D01*
X372Y1040D02*
X483Y1040D01*
X2943Y1040D02*
X2999Y1040D01*
X369Y1039D02*
X480Y1039D01*
X2943Y1039D02*
X2998Y1039D01*
X367Y1038D02*
X477Y1038D01*
X2942Y1038D02*
X2998Y1038D01*
X365Y1037D02*
X474Y1037D01*
X2942Y1037D02*
X2998Y1037D01*
X363Y1036D02*
X471Y1036D01*
X2941Y1036D02*
X2997Y1036D01*
X361Y1035D02*
X469Y1035D01*
X2941Y1035D02*
X2997Y1035D01*
X359Y1034D02*
X466Y1034D01*
X2941Y1034D02*
X2997Y1034D01*
X356Y1033D02*
X463Y1033D01*
X2940Y1033D02*
X2996Y1033D01*
X354Y1032D02*
X460Y1032D01*
X2940Y1032D02*
X2996Y1032D01*
X352Y1031D02*
X457Y1031D01*
X2939Y1031D02*
X2996Y1031D01*
X350Y1030D02*
X455Y1030D01*
X2939Y1030D02*
X2995Y1030D01*
X348Y1029D02*
X452Y1029D01*
X2938Y1029D02*
X2995Y1029D01*
X346Y1028D02*
X449Y1028D01*
X2938Y1028D02*
X2994Y1028D01*
X344Y1027D02*
X447Y1027D01*
X2937Y1027D02*
X2994Y1027D01*
X342Y1026D02*
X444Y1026D01*
X2937Y1026D02*
X2994Y1026D01*
X340Y1025D02*
X441Y1025D01*
X2937Y1025D02*
X2993Y1025D01*
X338Y1024D02*
X439Y1024D01*
X2936Y1024D02*
X2993Y1024D01*
X336Y1023D02*
X436Y1023D01*
X2936Y1023D02*
X2992Y1023D01*
X334Y1022D02*
X434Y1022D01*
X2935Y1022D02*
X2992Y1022D01*
X332Y1021D02*
X431Y1021D01*
X2935Y1021D02*
X2991Y1021D01*
X330Y1020D02*
X429Y1020D01*
X2934Y1020D02*
X2991Y1020D01*
X328Y1019D02*
X426Y1019D01*
X2934Y1019D02*
X2991Y1019D01*
X326Y1018D02*
X424Y1018D01*
X2933Y1018D02*
X2990Y1018D01*
X324Y1017D02*
X422Y1017D01*
X2933Y1017D02*
X2990Y1017D01*
X322Y1016D02*
X419Y1016D01*
X2932Y1016D02*
X2989Y1016D01*
X320Y1015D02*
X417Y1015D01*
X2931Y1015D02*
X2989Y1015D01*
X319Y1014D02*
X414Y1014D01*
X2931Y1014D02*
X2988Y1014D01*
X317Y1013D02*
X412Y1013D01*
X2930Y1013D02*
X2988Y1013D01*
X315Y1012D02*
X410Y1012D01*
X2930Y1012D02*
X2987Y1012D01*
X313Y1011D02*
X407Y1011D01*
X2929Y1011D02*
X2987Y1011D01*
X311Y1010D02*
X405Y1010D01*
X2929Y1010D02*
X2986Y1010D01*
X309Y1009D02*
X403Y1009D01*
X2928Y1009D02*
X2986Y1009D01*
X308Y1008D02*
X401Y1008D01*
X2928Y1008D02*
X2985Y1008D01*
X306Y1007D02*
X398Y1007D01*
X2927Y1007D02*
X2985Y1007D01*
X304Y1006D02*
X396Y1006D01*
X2926Y1006D02*
X2984Y1006D01*
X302Y1005D02*
X394Y1005D01*
X2926Y1005D02*
X2984Y1005D01*
X300Y1004D02*
X392Y1004D01*
X2925Y1004D02*
X2983Y1004D01*
X299Y1003D02*
X390Y1003D01*
X2925Y1003D02*
X2983Y1003D01*
X297Y1002D02*
X387Y1002D01*
X2924Y1002D02*
X2982Y1002D01*
X295Y1001D02*
X385Y1001D01*
X2923Y1001D02*
X2982Y1001D01*
X293Y1000D02*
X383Y1000D01*
X2923Y1000D02*
X2981Y1000D01*
X292Y999D02*
X381Y999D01*
X2922Y999D02*
X2981Y999D01*
X290Y998D02*
X379Y998D01*
X2921Y998D02*
X2980Y998D01*
X288Y997D02*
X377Y997D01*
X2921Y997D02*
X2980Y997D01*
X287Y996D02*
X375Y996D01*
X2920Y996D02*
X2979Y996D01*
X285Y995D02*
X373Y995D01*
X2919Y995D02*
X2978Y995D01*
X283Y994D02*
X371Y994D01*
X2919Y994D02*
X2978Y994D01*
X281Y993D02*
X369Y993D01*
X2918Y993D02*
X2977Y993D01*
X280Y992D02*
X367Y992D01*
X2917Y992D02*
X2977Y992D01*
X278Y991D02*
X365Y991D01*
X2917Y991D02*
X2976Y991D01*
X277Y990D02*
X363Y990D01*
X2916Y990D02*
X2975Y990D01*
X275Y989D02*
X361Y989D01*
X2915Y989D02*
X2975Y989D01*
X273Y988D02*
X359Y988D01*
X2914Y988D02*
X2974Y988D01*
X272Y987D02*
X357Y987D01*
X2914Y987D02*
X2974Y987D01*
X270Y986D02*
X355Y986D01*
X2913Y986D02*
X2973Y986D01*
X268Y985D02*
X353Y985D01*
X2912Y985D02*
X2972Y985D01*
X267Y984D02*
X351Y984D01*
X2912Y984D02*
X2972Y984D01*
X265Y983D02*
X349Y983D01*
X2911Y983D02*
X2971Y983D01*
X264Y982D02*
X348Y982D01*
X2910Y982D02*
X2971Y982D01*
X262Y981D02*
X346Y981D01*
X2909Y981D02*
X2970Y981D01*
X261Y980D02*
X344Y980D01*
X2908Y980D02*
X2969Y980D01*
X259Y979D02*
X342Y979D01*
X2908Y979D02*
X2969Y979D01*
X258Y978D02*
X340Y978D01*
X2907Y978D02*
X2968Y978D01*
X256Y977D02*
X338Y977D01*
X2906Y977D02*
X2967Y977D01*
X254Y976D02*
X337Y976D01*
X2905Y976D02*
X2967Y976D01*
X253Y975D02*
X335Y975D01*
X2905Y975D02*
X2966Y975D01*
X251Y974D02*
X333Y974D01*
X2904Y974D02*
X2965Y974D01*
X250Y973D02*
X331Y973D01*
X2903Y973D02*
X2964Y973D01*
X248Y972D02*
X330Y972D01*
X2902Y972D02*
X2964Y972D01*
X247Y971D02*
X328Y971D01*
X2901Y971D02*
X2963Y971D01*
X246Y970D02*
X326Y970D01*
X2900Y970D02*
X2962Y970D01*
X244Y969D02*
X324Y969D01*
X2899Y969D02*
X2962Y969D01*
X243Y968D02*
X323Y968D01*
X2899Y968D02*
X2961Y968D01*
X241Y967D02*
X321Y967D01*
X2898Y967D02*
X2960Y967D01*
X240Y966D02*
X319Y966D01*
X2897Y966D02*
X2959Y966D01*
X238Y965D02*
X318Y965D01*
X2896Y965D02*
X2959Y965D01*
X237Y964D02*
X316Y964D01*
X2895Y964D02*
X2958Y964D01*
X235Y963D02*
X314Y963D01*
X2894Y963D02*
X2957Y963D01*
X234Y962D02*
X313Y962D01*
X2893Y962D02*
X2956Y962D01*
X233Y961D02*
X311Y961D01*
X2892Y961D02*
X2956Y961D01*
X231Y960D02*
X309Y960D01*
X2892Y960D02*
X2955Y960D01*
X230Y959D02*
X308Y959D01*
X2891Y959D02*
X2954Y959D01*
X228Y958D02*
X306Y958D01*
X2890Y958D02*
X2954Y958D01*
X227Y957D02*
X305Y957D01*
X2889Y957D02*
X2959Y957D01*
X226Y956D02*
X303Y956D01*
X2888Y956D02*
X2963Y956D01*
X224Y955D02*
X301Y955D01*
X2887Y955D02*
X2968Y955D01*
X223Y954D02*
X300Y954D01*
X2886Y954D02*
X2973Y954D01*
X222Y953D02*
X298Y953D01*
X2885Y953D02*
X2977Y953D01*
X220Y952D02*
X297Y952D01*
X2884Y952D02*
X2982Y952D01*
X219Y951D02*
X295Y951D01*
X2883Y951D02*
X2986Y951D01*
X217Y950D02*
X294Y950D01*
X2882Y950D02*
X2990Y950D01*
X216Y949D02*
X292Y949D01*
X2881Y949D02*
X2995Y949D01*
X215Y948D02*
X291Y948D01*
X2880Y948D02*
X2999Y948D01*
X214Y947D02*
X289Y947D01*
X2879Y947D02*
X3003Y947D01*
X212Y946D02*
X288Y946D01*
X2878Y946D02*
X3007Y946D01*
X211Y945D02*
X286Y945D01*
X2877Y945D02*
X3010Y945D01*
X210Y944D02*
X285Y944D01*
X2876Y944D02*
X3014Y944D01*
X208Y943D02*
X283Y943D01*
X2875Y943D02*
X3018Y943D01*
X207Y942D02*
X282Y942D01*
X2875Y942D02*
X3022Y942D01*
X206Y941D02*
X280Y941D01*
X2874Y941D02*
X3025Y941D01*
X204Y940D02*
X279Y940D01*
X2873Y940D02*
X3029Y940D01*
X203Y939D02*
X277Y939D01*
X2872Y939D02*
X3032Y939D01*
X202Y938D02*
X276Y938D01*
X2871Y938D02*
X3036Y938D01*
X201Y937D02*
X275Y937D01*
X2870Y937D02*
X3039Y937D01*
X199Y936D02*
X273Y936D01*
X2869Y936D02*
X3042Y936D01*
X198Y935D02*
X272Y935D01*
X2868Y935D02*
X3046Y935D01*
X197Y934D02*
X270Y934D01*
X2867Y934D02*
X3049Y934D01*
X196Y933D02*
X269Y933D01*
X2869Y933D02*
X3052Y933D01*
X194Y932D02*
X268Y932D01*
X2876Y932D02*
X3055Y932D01*
X193Y931D02*
X266Y931D01*
X2882Y931D02*
X3059Y931D01*
X192Y930D02*
X265Y930D01*
X2888Y930D02*
X3062Y930D01*
X191Y929D02*
X264Y929D01*
X2895Y929D02*
X3065Y929D01*
X190Y928D02*
X262Y928D01*
X2901Y928D02*
X3068Y928D01*
X188Y927D02*
X261Y927D01*
X2907Y927D02*
X3071Y927D01*
X187Y926D02*
X259Y926D01*
X2913Y926D02*
X3074Y926D01*
X186Y925D02*
X258Y925D01*
X2919Y925D02*
X3077Y925D01*
X185Y924D02*
X257Y924D01*
X2925Y924D02*
X3079Y924D01*
X184Y923D02*
X256Y923D01*
X2930Y923D02*
X3082Y923D01*
X182Y922D02*
X254Y922D01*
X2935Y922D02*
X3085Y922D01*
X181Y921D02*
X253Y921D01*
X2941Y921D02*
X3088Y921D01*
X180Y920D02*
X252Y920D01*
X2946Y920D02*
X3091Y920D01*
X179Y919D02*
X250Y919D01*
X2950Y919D02*
X3093Y919D01*
X178Y918D02*
X249Y918D01*
X2955Y918D02*
X3096Y918D01*
X177Y917D02*
X248Y917D01*
X2960Y917D02*
X3099Y917D01*
X176Y916D02*
X246Y916D01*
X2964Y916D02*
X3101Y916D01*
X174Y915D02*
X245Y915D01*
X2969Y915D02*
X3104Y915D01*
X173Y914D02*
X244Y914D01*
X2973Y914D02*
X3106Y914D01*
X172Y913D02*
X243Y913D01*
X2977Y913D02*
X3109Y913D01*
X171Y912D02*
X241Y912D01*
X2982Y912D02*
X3112Y912D01*
X170Y911D02*
X240Y911D01*
X2986Y911D02*
X3114Y911D01*
X169Y910D02*
X239Y910D01*
X2990Y910D02*
X3117Y910D01*
X168Y909D02*
X238Y909D01*
X2993Y909D02*
X3119Y909D01*
X167Y908D02*
X236Y908D01*
X2997Y908D02*
X3121Y908D01*
X165Y907D02*
X235Y907D01*
X3001Y907D02*
X3124Y907D01*
X164Y906D02*
X234Y906D01*
X3005Y906D02*
X3126Y906D01*
X163Y905D02*
X233Y905D01*
X3008Y905D02*
X3129Y905D01*
X162Y904D02*
X232Y904D01*
X3012Y904D02*
X3131Y904D01*
X161Y903D02*
X230Y903D01*
X3015Y903D02*
X3133Y903D01*
X160Y902D02*
X229Y902D01*
X3019Y902D02*
X3136Y902D01*
X159Y901D02*
X228Y901D01*
X3022Y901D02*
X3138Y901D01*
X158Y900D02*
X227Y900D01*
X3026Y900D02*
X3140Y900D01*
X157Y899D02*
X226Y899D01*
X3029Y899D02*
X3142Y899D01*
X156Y898D02*
X225Y898D01*
X3032Y898D02*
X3145Y898D01*
X155Y897D02*
X223Y897D01*
X3035Y897D02*
X3147Y897D01*
X154Y896D02*
X222Y896D01*
X3038Y896D02*
X3149Y896D01*
X153Y895D02*
X221Y895D01*
X3042Y895D02*
X3151Y895D01*
X152Y894D02*
X220Y894D01*
X3045Y894D02*
X3153Y894D01*
X151Y893D02*
X219Y893D01*
X3048Y893D02*
X3155Y893D01*
X150Y892D02*
X218Y892D01*
X3051Y892D02*
X3158Y892D01*
X149Y891D02*
X217Y891D01*
X3053Y891D02*
X3160Y891D01*
X148Y890D02*
X215Y890D01*
X3056Y890D02*
X3162Y890D01*
X147Y889D02*
X214Y889D01*
X3059Y889D02*
X3164Y889D01*
X146Y888D02*
X213Y888D01*
X3062Y888D02*
X3166Y888D01*
X145Y887D02*
X212Y887D01*
X3065Y887D02*
X3168Y887D01*
X144Y886D02*
X211Y886D01*
X3068Y886D02*
X3170Y886D01*
X143Y885D02*
X210Y885D01*
X3070Y885D02*
X3172Y885D01*
X142Y884D02*
X209Y884D01*
X3073Y884D02*
X3174Y884D01*
X141Y883D02*
X208Y883D01*
X3076Y883D02*
X3176Y883D01*
X140Y882D02*
X207Y882D01*
X3078Y882D02*
X3178Y882D01*
X139Y881D02*
X206Y881D01*
X3081Y881D02*
X3180Y881D01*
X138Y880D02*
X205Y880D01*
X3083Y880D02*
X3182Y880D01*
X137Y879D02*
X203Y879D01*
X3086Y879D02*
X3184Y879D01*
X136Y878D02*
X202Y878D01*
X3088Y878D02*
X3186Y878D01*
X135Y877D02*
X201Y877D01*
X3091Y877D02*
X3187Y877D01*
X134Y876D02*
X200Y876D01*
X3093Y876D02*
X3189Y876D01*
X133Y875D02*
X199Y875D01*
X3096Y875D02*
X3191Y875D01*
X132Y874D02*
X198Y874D01*
X3098Y874D02*
X3193Y874D01*
X131Y873D02*
X197Y873D01*
X3100Y873D02*
X3195Y873D01*
X130Y872D02*
X196Y872D01*
X3103Y872D02*
X3197Y872D01*
X129Y871D02*
X195Y871D01*
X3105Y871D02*
X3199Y871D01*
X128Y870D02*
X194Y870D01*
X3107Y870D02*
X3200Y870D01*
X127Y869D02*
X193Y869D01*
X3110Y869D02*
X3202Y869D01*
X126Y868D02*
X192Y868D01*
X3112Y868D02*
X3204Y868D01*
X125Y867D02*
X191Y867D01*
X3114Y867D02*
X3206Y867D01*
X124Y866D02*
X190Y866D01*
X3116Y866D02*
X3207Y866D01*
X123Y865D02*
X189Y865D01*
X3119Y865D02*
X3209Y865D01*
X123Y864D02*
X188Y864D01*
X3121Y864D02*
X3211Y864D01*
X122Y863D02*
X187Y863D01*
X3123Y863D02*
X3213Y863D01*
X121Y862D02*
X186Y862D01*
X3125Y862D02*
X3214Y862D01*
X120Y861D02*
X185Y861D01*
X3127Y861D02*
X3216Y861D01*
X119Y860D02*
X184Y860D01*
X3129Y860D02*
X3218Y860D01*
X118Y859D02*
X183Y859D01*
X3131Y859D02*
X3219Y859D01*
X117Y858D02*
X182Y858D01*
X3133Y858D02*
X3221Y858D01*
X116Y857D02*
X181Y857D01*
X3135Y857D02*
X3223Y857D01*
X115Y856D02*
X180Y856D01*
X3137Y856D02*
X3224Y856D01*
X115Y855D02*
X179Y855D01*
X3140Y855D02*
X3226Y855D01*
X114Y854D02*
X178Y854D01*
X3141Y854D02*
X3228Y854D01*
X113Y853D02*
X177Y853D01*
X3143Y853D02*
X3229Y853D01*
X112Y852D02*
X176Y852D01*
X3145Y852D02*
X3231Y852D01*
X111Y851D02*
X175Y851D01*
X3147Y851D02*
X3233Y851D01*
X110Y850D02*
X175Y850D01*
X3149Y850D02*
X3234Y850D01*
X109Y849D02*
X174Y849D01*
X3151Y849D02*
X3236Y849D01*
X109Y848D02*
X173Y848D01*
X3153Y848D02*
X3237Y848D01*
X108Y847D02*
X172Y847D01*
X3155Y847D02*
X3239Y847D01*
X107Y846D02*
X171Y846D01*
X3157Y846D02*
X3240Y846D01*
X106Y845D02*
X170Y845D01*
X3159Y845D02*
X3242Y845D01*
X105Y844D02*
X169Y844D01*
X3161Y844D02*
X3243Y844D01*
X104Y843D02*
X168Y843D01*
X3162Y843D02*
X3245Y843D01*
X104Y842D02*
X167Y842D01*
X3164Y842D02*
X3246Y842D01*
X103Y841D02*
X166Y841D01*
X3166Y841D02*
X3248Y841D01*
X102Y840D02*
X165Y840D01*
X3168Y840D02*
X3249Y840D01*
X101Y839D02*
X165Y839D01*
X3169Y839D02*
X3251Y839D01*
X100Y838D02*
X164Y838D01*
X3171Y838D02*
X3252Y838D01*
X100Y837D02*
X163Y837D01*
X3173Y837D02*
X3254Y837D01*
X99Y836D02*
X162Y836D01*
X3175Y836D02*
X3255Y836D01*
X98Y835D02*
X161Y835D01*
X3176Y835D02*
X3257Y835D01*
X97Y834D02*
X160Y834D01*
X3178Y834D02*
X3258Y834D01*
X96Y833D02*
X159Y833D01*
X3180Y833D02*
X3260Y833D01*
X96Y832D02*
X158Y832D01*
X3182Y832D02*
X3261Y832D01*
X95Y831D02*
X158Y831D01*
X3183Y831D02*
X3263Y831D01*
X94Y830D02*
X157Y830D01*
X3185Y830D02*
X3264Y830D01*
X93Y829D02*
X156Y829D01*
X3187Y829D02*
X3265Y829D01*
X92Y828D02*
X155Y828D01*
X3188Y828D02*
X3267Y828D01*
X92Y827D02*
X154Y827D01*
X3190Y827D02*
X3268Y827D01*
X91Y826D02*
X153Y826D01*
X3191Y826D02*
X3270Y826D01*
X90Y825D02*
X152Y825D01*
X3193Y825D02*
X3271Y825D01*
X89Y824D02*
X152Y824D01*
X3195Y824D02*
X3272Y824D01*
X89Y823D02*
X151Y823D01*
X3196Y823D02*
X3274Y823D01*
X88Y822D02*
X150Y822D01*
X3198Y822D02*
X3275Y822D01*
X87Y821D02*
X149Y821D01*
X3199Y821D02*
X3276Y821D01*
X86Y820D02*
X148Y820D01*
X3201Y820D02*
X3278Y820D01*
X86Y819D02*
X148Y819D01*
X3202Y819D02*
X3279Y819D01*
X85Y818D02*
X147Y818D01*
X3204Y818D02*
X3280Y818D01*
X84Y817D02*
X146Y817D01*
X3205Y817D02*
X3282Y817D01*
X84Y816D02*
X145Y816D01*
X3207Y816D02*
X3283Y816D01*
X83Y815D02*
X144Y815D01*
X3208Y815D02*
X3284Y815D01*
X82Y814D02*
X144Y814D01*
X3210Y814D02*
X3286Y814D01*
X81Y813D02*
X143Y813D01*
X3211Y813D02*
X3287Y813D01*
X81Y812D02*
X142Y812D01*
X3213Y812D02*
X3288Y812D01*
X80Y811D02*
X141Y811D01*
X3214Y811D02*
X3290Y811D01*
X79Y810D02*
X140Y810D01*
X3216Y810D02*
X3291Y810D01*
X79Y809D02*
X140Y809D01*
X3217Y809D02*
X3292Y809D01*
X78Y808D02*
X139Y808D01*
X3219Y808D02*
X3293Y808D01*
X77Y807D02*
X138Y807D01*
X3220Y807D02*
X3295Y807D01*
X77Y806D02*
X137Y806D01*
X3222Y806D02*
X3296Y806D01*
X76Y805D02*
X137Y805D01*
X3223Y805D02*
X3297Y805D01*
X75Y804D02*
X136Y804D01*
X3224Y804D02*
X3298Y804D01*
X75Y803D02*
X135Y803D01*
X3226Y803D02*
X3300Y803D01*
X74Y802D02*
X134Y802D01*
X3227Y802D02*
X3301Y802D01*
X73Y801D02*
X134Y801D01*
X3229Y801D02*
X3302Y801D01*
X73Y800D02*
X133Y800D01*
X3230Y800D02*
X3303Y800D01*
X72Y799D02*
X132Y799D01*
X3231Y799D02*
X3304Y799D01*
X71Y798D02*
X131Y798D01*
X3233Y798D02*
X3306Y798D01*
X71Y797D02*
X131Y797D01*
X3234Y797D02*
X3307Y797D01*
X70Y796D02*
X130Y796D01*
X3235Y796D02*
X3308Y796D01*
X69Y795D02*
X129Y795D01*
X3237Y795D02*
X3309Y795D01*
X69Y794D02*
X129Y794D01*
X3238Y794D02*
X3310Y794D01*
X68Y793D02*
X128Y793D01*
X3239Y793D02*
X3311Y793D01*
X67Y792D02*
X127Y792D01*
X3241Y792D02*
X3313Y792D01*
X67Y791D02*
X127Y791D01*
X3242Y791D02*
X3314Y791D01*
X66Y790D02*
X126Y790D01*
X3243Y790D02*
X3315Y790D01*
X65Y789D02*
X125Y789D01*
X3245Y789D02*
X3316Y789D01*
X65Y788D02*
X124Y788D01*
X3246Y788D02*
X3317Y788D01*
X64Y787D02*
X124Y787D01*
X3247Y787D02*
X3318Y787D01*
X64Y786D02*
X123Y786D01*
X3248Y786D02*
X3319Y786D01*
X63Y785D02*
X122Y785D01*
X3250Y785D02*
X3321Y785D01*
X62Y784D02*
X122Y784D01*
X3251Y784D02*
X3322Y784D01*
X62Y783D02*
X121Y783D01*
X3252Y783D02*
X3323Y783D01*
X61Y782D02*
X120Y782D01*
X3253Y782D02*
X3324Y782D01*
X61Y781D02*
X120Y781D01*
X3255Y781D02*
X3325Y781D01*
X60Y780D02*
X119Y780D01*
X3256Y780D02*
X3326Y780D01*
X59Y779D02*
X118Y779D01*
X3257Y779D02*
X3327Y779D01*
X59Y778D02*
X118Y778D01*
X3258Y778D02*
X3328Y778D01*
X58Y777D02*
X117Y777D01*
X3260Y777D02*
X3329Y777D01*
X58Y776D02*
X116Y776D01*
X3261Y776D02*
X3330Y776D01*
X57Y775D02*
X116Y775D01*
X3262Y775D02*
X3332Y775D01*
X56Y774D02*
X115Y774D01*
X3263Y774D02*
X3333Y774D01*
X56Y773D02*
X115Y773D01*
X3264Y773D02*
X3334Y773D01*
X55Y772D02*
X114Y772D01*
X3266Y772D02*
X3335Y772D01*
X55Y771D02*
X113Y771D01*
X3267Y771D02*
X3336Y771D01*
X54Y770D02*
X113Y770D01*
X3268Y770D02*
X3337Y770D01*
X54Y769D02*
X112Y769D01*
X3269Y769D02*
X3338Y769D01*
X53Y768D02*
X111Y768D01*
X3270Y768D02*
X3339Y768D01*
X52Y767D02*
X111Y767D01*
X3271Y767D02*
X3340Y767D01*
X52Y766D02*
X110Y766D01*
X3273Y766D02*
X3341Y766D01*
X51Y765D02*
X110Y765D01*
X3274Y765D02*
X3342Y765D01*
X51Y764D02*
X109Y764D01*
X3275Y764D02*
X3343Y764D01*
X50Y763D02*
X108Y763D01*
X3276Y763D02*
X3344Y763D01*
X50Y762D02*
X108Y762D01*
X3277Y762D02*
X3345Y762D01*
X49Y761D02*
X107Y761D01*
X3278Y761D02*
X3346Y761D01*
X49Y760D02*
X107Y760D01*
X3279Y760D02*
X3347Y760D01*
X48Y759D02*
X106Y759D01*
X3280Y759D02*
X3348Y759D01*
X48Y758D02*
X106Y758D01*
X3282Y758D02*
X3349Y758D01*
X47Y757D02*
X105Y757D01*
X3283Y757D02*
X3350Y757D01*
X47Y756D02*
X104Y756D01*
X3284Y756D02*
X3351Y756D01*
X46Y755D02*
X104Y755D01*
X3285Y755D02*
X3352Y755D01*
X46Y754D02*
X103Y754D01*
X3286Y754D02*
X3353Y754D01*
X45Y753D02*
X103Y753D01*
X3287Y753D02*
X3354Y753D01*
X45Y752D02*
X102Y752D01*
X3288Y752D02*
X3355Y752D01*
X44Y751D02*
X102Y751D01*
X3289Y751D02*
X3355Y751D01*
X44Y750D02*
X101Y750D01*
X3290Y750D02*
X3356Y750D01*
X43Y749D02*
X101Y749D01*
X3291Y749D02*
X3357Y749D01*
X43Y748D02*
X100Y748D01*
X3292Y748D02*
X3358Y748D01*
X42Y747D02*
X99Y747D01*
X3293Y747D02*
X3359Y747D01*
X42Y746D02*
X99Y746D01*
X3294Y746D02*
X3360Y746D01*
X41Y745D02*
X98Y745D01*
X3295Y745D02*
X3361Y745D01*
X41Y744D02*
X98Y744D01*
X3296Y744D02*
X3362Y744D01*
X40Y743D02*
X97Y743D01*
X3297Y743D02*
X3363Y743D01*
X40Y742D02*
X97Y742D01*
X3298Y742D02*
X3364Y742D01*
X39Y741D02*
X96Y741D01*
X3299Y741D02*
X3365Y741D01*
X39Y740D02*
X96Y740D01*
X3300Y740D02*
X3365Y740D01*
X38Y739D02*
X95Y739D01*
X3301Y739D02*
X3366Y739D01*
X38Y738D02*
X95Y738D01*
X3302Y738D02*
X3367Y738D01*
X37Y737D02*
X94Y737D01*
X3303Y737D02*
X3368Y737D01*
X37Y736D02*
X94Y736D01*
X3304Y736D02*
X3369Y736D01*
X36Y735D02*
X93Y735D01*
X3305Y735D02*
X3370Y735D01*
X36Y734D02*
X93Y734D01*
X3306Y734D02*
X3371Y734D01*
X36Y733D02*
X92Y733D01*
X3307Y733D02*
X3372Y733D01*
X35Y732D02*
X92Y732D01*
X3308Y732D02*
X3372Y732D01*
X35Y731D02*
X91Y731D01*
X3309Y731D02*
X3373Y731D01*
X34Y730D02*
X91Y730D01*
X3310Y730D02*
X3374Y730D01*
X34Y729D02*
X90Y729D01*
X3311Y729D02*
X3375Y729D01*
X33Y728D02*
X90Y728D01*
X3312Y728D02*
X3376Y728D01*
X33Y727D02*
X90Y727D01*
X3313Y727D02*
X3377Y727D01*
X32Y726D02*
X89Y726D01*
X3314Y726D02*
X3377Y726D01*
X32Y725D02*
X89Y725D01*
X3315Y725D02*
X3378Y725D01*
X32Y724D02*
X88Y724D01*
X3316Y724D02*
X3379Y724D01*
X31Y723D02*
X88Y723D01*
X3317Y723D02*
X3380Y723D01*
X31Y722D02*
X87Y722D01*
X3318Y722D02*
X3381Y722D01*
X30Y721D02*
X87Y721D01*
X3318Y721D02*
X3381Y721D01*
X30Y720D02*
X86Y720D01*
X3319Y720D02*
X3382Y720D01*
X30Y719D02*
X86Y719D01*
X3320Y719D02*
X3383Y719D01*
X29Y718D02*
X85Y718D01*
X3321Y718D02*
X3384Y718D01*
X29Y717D02*
X85Y717D01*
X3322Y717D02*
X3385Y717D01*
X28Y716D02*
X85Y716D01*
X3323Y716D02*
X3385Y716D01*
X28Y715D02*
X84Y715D01*
X3324Y715D02*
X3386Y715D01*
X28Y714D02*
X84Y714D01*
X3325Y714D02*
X3387Y714D01*
X27Y713D02*
X83Y713D01*
X3326Y713D02*
X3388Y713D01*
X27Y712D02*
X83Y712D01*
X3326Y712D02*
X3388Y712D01*
X26Y711D02*
X83Y711D01*
X3327Y711D02*
X3389Y711D01*
X26Y710D02*
X82Y710D01*
X3328Y710D02*
X3390Y710D01*
X26Y709D02*
X82Y709D01*
X3329Y709D02*
X3391Y709D01*
X25Y708D02*
X81Y708D01*
X3330Y708D02*
X3391Y708D01*
X25Y707D02*
X81Y707D01*
X3331Y707D02*
X3392Y707D01*
X25Y706D02*
X81Y706D01*
X3331Y706D02*
X3393Y706D01*
X24Y705D02*
X80Y705D01*
X3332Y705D02*
X3394Y705D01*
X24Y704D02*
X80Y704D01*
X3333Y704D02*
X3394Y704D01*
X24Y703D02*
X79Y703D01*
X3334Y703D02*
X3395Y703D01*
X23Y702D02*
X79Y702D01*
X3335Y702D02*
X3396Y702D01*
X23Y701D02*
X79Y701D01*
X3335Y701D02*
X3396Y701D01*
X22Y700D02*
X78Y700D01*
X3336Y700D02*
X3397Y700D01*
X22Y699D02*
X78Y699D01*
X3337Y699D02*
X3398Y699D01*
X22Y698D02*
X77Y698D01*
X3338Y698D02*
X3399Y698D01*
X21Y697D02*
X77Y697D01*
X3339Y697D02*
X3399Y697D01*
X21Y696D02*
X77Y696D01*
X3339Y696D02*
X3400Y696D01*
X21Y695D02*
X76Y695D01*
X3340Y695D02*
X3401Y695D01*
X20Y694D02*
X76Y694D01*
X3341Y694D02*
X3401Y694D01*
X20Y693D02*
X76Y693D01*
X3342Y693D02*
X3402Y693D01*
X20Y692D02*
X75Y692D01*
X3342Y692D02*
X3403Y692D01*
X19Y691D02*
X75Y691D01*
X3343Y691D02*
X3403Y691D01*
X19Y690D02*
X75Y690D01*
X3344Y690D02*
X3404Y690D01*
X19Y689D02*
X74Y689D01*
X3345Y689D02*
X3405Y689D01*
X18Y688D02*
X74Y688D01*
X3345Y688D02*
X3405Y688D01*
X18Y687D02*
X74Y687D01*
X3346Y687D02*
X3406Y687D01*
X18Y686D02*
X73Y686D01*
X3347Y686D02*
X3407Y686D01*
X18Y685D02*
X73Y685D01*
X3348Y685D02*
X3407Y685D01*
X17Y684D02*
X73Y684D01*
X3348Y684D02*
X3408Y684D01*
X17Y683D02*
X72Y683D01*
X3349Y683D02*
X3409Y683D01*
X17Y682D02*
X72Y682D01*
X3350Y682D02*
X3409Y682D01*
X16Y681D02*
X72Y681D01*
X3350Y681D02*
X3410Y681D01*
X16Y680D02*
X71Y680D01*
X3351Y680D02*
X3410Y680D01*
X16Y679D02*
X71Y679D01*
X3352Y679D02*
X3411Y679D01*
X15Y678D02*
X71Y678D01*
X3352Y678D02*
X3412Y678D01*
X15Y677D02*
X70Y677D01*
X3353Y677D02*
X3412Y677D01*
X15Y676D02*
X70Y676D01*
X3354Y676D02*
X3413Y676D01*
X15Y675D02*
X70Y675D01*
X3354Y675D02*
X3413Y675D01*
X14Y674D02*
X70Y674D01*
X3355Y674D02*
X3414Y674D01*
X14Y673D02*
X69Y673D01*
X3356Y673D02*
X3415Y673D01*
X14Y672D02*
X69Y672D01*
X3356Y672D02*
X3415Y672D01*
X14Y671D02*
X69Y671D01*
X3357Y671D02*
X3416Y671D01*
X13Y670D02*
X68Y670D01*
X3358Y670D02*
X3416Y670D01*
X13Y669D02*
X68Y669D01*
X3358Y669D02*
X3417Y669D01*
X13Y668D02*
X68Y668D01*
X3359Y668D02*
X3418Y668D01*
X12Y667D02*
X68Y667D01*
X3360Y667D02*
X3418Y667D01*
X12Y666D02*
X67Y666D01*
X3360Y666D02*
X3419Y666D01*
X12Y665D02*
X67Y665D01*
X3361Y665D02*
X3419Y665D01*
X12Y664D02*
X67Y664D01*
X3362Y664D02*
X3420Y664D01*
X11Y663D02*
X67Y663D01*
X3362Y663D02*
X3420Y663D01*
X11Y662D02*
X66Y662D01*
X3363Y662D02*
X3421Y662D01*
X11Y661D02*
X66Y661D01*
X3363Y661D02*
X3421Y661D01*
X11Y660D02*
X66Y660D01*
X3364Y660D02*
X3422Y660D01*
X11Y659D02*
X66Y659D01*
X3365Y659D02*
X3423Y659D01*
X10Y658D02*
X65Y658D01*
X3365Y658D02*
X3423Y658D01*
X10Y657D02*
X65Y657D01*
X3366Y657D02*
X3424Y657D01*
X10Y656D02*
X65Y656D01*
X3366Y656D02*
X3424Y656D01*
X10Y655D02*
X65Y655D01*
X3367Y655D02*
X3425Y655D01*
X9Y654D02*
X64Y654D01*
X3368Y654D02*
X3425Y654D01*
X9Y653D02*
X64Y653D01*
X3368Y653D02*
X3426Y653D01*
X9Y652D02*
X64Y652D01*
X3369Y652D02*
X3426Y652D01*
X9Y651D02*
X64Y651D01*
X3369Y651D02*
X3427Y651D01*
X9Y650D02*
X63Y650D01*
X3370Y650D02*
X3427Y650D01*
X8Y649D02*
X63Y649D01*
X3370Y649D02*
X3428Y649D01*
X8Y648D02*
X63Y648D01*
X3371Y648D02*
X3428Y648D01*
X8Y647D02*
X63Y647D01*
X3372Y647D02*
X3429Y647D01*
X8Y646D02*
X63Y646D01*
X3372Y646D02*
X3429Y646D01*
X8Y645D02*
X62Y645D01*
X3373Y645D02*
X3430Y645D01*
X7Y644D02*
X62Y644D01*
X3373Y644D02*
X3430Y644D01*
X7Y643D02*
X62Y643D01*
X3374Y643D02*
X3431Y643D01*
X7Y642D02*
X62Y642D01*
X3374Y642D02*
X3431Y642D01*
X7Y641D02*
X62Y641D01*
X3375Y641D02*
X3432Y641D01*
X7Y640D02*
X61Y640D01*
X3375Y640D02*
X3432Y640D01*
X6Y639D02*
X61Y639D01*
X3376Y639D02*
X3433Y639D01*
X6Y638D02*
X61Y638D01*
X3376Y638D02*
X3433Y638D01*
X6Y637D02*
X61Y637D01*
X3377Y637D02*
X3434Y637D01*
X6Y636D02*
X61Y636D01*
X3377Y636D02*
X3434Y636D01*
X6Y635D02*
X60Y635D01*
X3378Y635D02*
X3434Y635D01*
X6Y634D02*
X60Y634D01*
X3378Y634D02*
X3435Y634D01*
X5Y633D02*
X60Y633D01*
X3379Y633D02*
X3435Y633D01*
X5Y632D02*
X60Y632D01*
X3379Y632D02*
X3436Y632D01*
X5Y631D02*
X60Y631D01*
X3380Y631D02*
X3436Y631D01*
X5Y630D02*
X60Y630D01*
X3380Y630D02*
X3437Y630D01*
X5Y629D02*
X59Y629D01*
X3381Y629D02*
X3437Y629D01*
X5Y628D02*
X59Y628D01*
X3381Y628D02*
X3438Y628D01*
X4Y627D02*
X59Y627D01*
X3382Y627D02*
X3438Y627D01*
X4Y626D02*
X59Y626D01*
X3382Y626D02*
X3438Y626D01*
X4Y625D02*
X59Y625D01*
X3383Y625D02*
X3439Y625D01*
X4Y624D02*
X59Y624D01*
X3383Y624D02*
X3439Y624D01*
X4Y623D02*
X59Y623D01*
X3383Y623D02*
X3440Y623D01*
X4Y622D02*
X58Y622D01*
X3384Y622D02*
X3440Y622D01*
X4Y621D02*
X58Y621D01*
X3384Y621D02*
X3440Y621D01*
X3Y620D02*
X58Y620D01*
X3385Y620D02*
X3441Y620D01*
X3Y619D02*
X58Y619D01*
X3385Y619D02*
X3441Y619D01*
X3Y618D02*
X58Y618D01*
X3386Y618D02*
X3442Y618D01*
X3Y617D02*
X58Y617D01*
X3386Y617D02*
X3442Y617D01*
X3Y616D02*
X58Y616D01*
X3386Y616D02*
X3442Y616D01*
X3Y615D02*
X58Y615D01*
X3387Y615D02*
X3443Y615D01*
X3Y614D02*
X57Y614D01*
X3387Y614D02*
X3443Y614D01*
X3Y613D02*
X57Y613D01*
X3388Y613D02*
X3444Y613D01*
X2Y612D02*
X57Y612D01*
X3388Y612D02*
X3444Y612D01*
X2Y611D02*
X57Y611D01*
X3388Y611D02*
X3444Y611D01*
X2Y610D02*
X57Y610D01*
X3389Y610D02*
X3445Y610D01*
X2Y609D02*
X57Y609D01*
X3389Y609D02*
X3445Y609D01*
X2Y608D02*
X57Y608D01*
X3390Y608D02*
X3445Y608D01*
X2Y607D02*
X57Y607D01*
X3390Y607D02*
X3446Y607D01*
X2Y606D02*
X57Y606D01*
X3390Y606D02*
X3446Y606D01*
X2Y605D02*
X56Y605D01*
X3391Y605D02*
X3446Y605D01*
X2Y604D02*
X56Y604D01*
X3391Y604D02*
X3447Y604D01*
X2Y603D02*
X56Y603D01*
X3392Y603D02*
X3447Y603D01*
X1Y602D02*
X56Y602D01*
X3392Y602D02*
X3447Y602D01*
X1Y601D02*
X56Y601D01*
X3392Y601D02*
X3448Y601D01*
X1Y600D02*
X56Y600D01*
X3393Y600D02*
X3448Y600D01*
X1Y599D02*
X56Y599D01*
X3393Y599D02*
X3448Y599D01*
X1Y598D02*
X56Y598D01*
X3393Y598D02*
X3449Y598D01*
X1Y597D02*
X56Y597D01*
X3394Y597D02*
X3449Y597D01*
X1Y596D02*
X56Y596D01*
X3394Y596D02*
X3449Y596D01*
X1Y595D02*
X56Y595D01*
X3394Y595D02*
X3450Y595D01*
X1Y594D02*
X56Y594D01*
X3395Y594D02*
X3450Y594D01*
X1Y593D02*
X55Y593D01*
X3395Y593D02*
X3450Y593D01*
X1Y592D02*
X55Y592D01*
X3395Y592D02*
X3451Y592D01*
X1Y591D02*
X55Y591D01*
X3396Y591D02*
X3451Y591D01*
X1Y590D02*
X55Y590D01*
X3396Y590D02*
X3451Y590D01*
X1Y589D02*
X55Y589D01*
X3396Y589D02*
X3452Y589D01*
X1Y588D02*
X55Y588D01*
X3397Y588D02*
X3452Y588D01*
X0Y587D02*
X55Y587D01*
X3397Y587D02*
X3452Y587D01*
X0Y586D02*
X55Y586D01*
X3397Y586D02*
X3452Y586D01*
X0Y585D02*
X55Y585D01*
X3398Y585D02*
X3453Y585D01*
X0Y584D02*
X55Y584D01*
X3398Y584D02*
X3453Y584D01*
X0Y583D02*
X55Y583D01*
X3398Y583D02*
X3453Y583D01*
X0Y582D02*
X55Y582D01*
X3398Y582D02*
X3454Y582D01*
X0Y581D02*
X55Y581D01*
X3399Y581D02*
X3454Y581D01*
X0Y580D02*
X55Y580D01*
X3399Y580D02*
X3454Y580D01*
X0Y579D02*
X55Y579D01*
X3399Y579D02*
X3454Y579D01*
X0Y578D02*
X55Y578D01*
X3400Y578D02*
X3455Y578D01*
X0Y577D02*
X55Y577D01*
X3400Y577D02*
X3455Y577D01*
X0Y576D02*
X55Y576D01*
X3400Y576D02*
X3455Y576D01*
X0Y575D02*
X55Y575D01*
X3400Y575D02*
X3455Y575D01*
X0Y574D02*
X55Y574D01*
X3401Y574D02*
X3456Y574D01*
X0Y573D02*
X55Y573D01*
X3401Y573D02*
X3456Y573D01*
X0Y572D02*
X55Y572D01*
X3401Y572D02*
X3456Y572D01*
X0Y571D02*
X55Y571D01*
X3401Y571D02*
X3456Y571D01*
X0Y570D02*
X55Y570D01*
X3402Y570D02*
X3457Y570D01*
X0Y569D02*
X55Y569D01*
X3402Y569D02*
X3457Y569D01*
X0Y568D02*
X55Y568D01*
X3402Y568D02*
X3457Y568D01*
X0Y567D02*
X55Y567D01*
X3402Y567D02*
X3457Y567D01*
X0Y566D02*
X55Y566D01*
X3403Y566D02*
X3458Y566D01*
X0Y565D02*
X55Y565D01*
X3403Y565D02*
X3458Y565D01*
X0Y564D02*
X55Y564D01*
X3403Y564D02*
X3458Y564D01*
X0Y563D02*
X55Y563D01*
X3403Y563D02*
X3458Y563D01*
X0Y562D02*
X55Y562D01*
X3404Y562D02*
X3458Y562D01*
X0Y561D02*
X55Y561D01*
X3404Y561D02*
X3459Y561D01*
X0Y560D02*
X55Y560D01*
X3404Y560D02*
X3459Y560D01*
X0Y559D02*
X55Y559D01*
X3404Y559D02*
X3459Y559D01*
X0Y558D02*
X55Y558D01*
X3404Y558D02*
X3459Y558D01*
X0Y557D02*
X55Y557D01*
X3405Y557D02*
X3459Y557D01*
X0Y556D02*
X55Y556D01*
X3405Y556D02*
X3460Y556D01*
X0Y555D02*
X55Y555D01*
X3405Y555D02*
X3460Y555D01*
X0Y554D02*
X55Y554D01*
X3405Y554D02*
X3460Y554D01*
X0Y553D02*
X55Y553D01*
X3405Y553D02*
X3460Y553D01*
X0Y552D02*
X55Y552D01*
X3406Y552D02*
X3460Y552D01*
X0Y551D02*
X55Y551D01*
X3406Y551D02*
X3461Y551D01*
X0Y550D02*
X55Y550D01*
X3406Y550D02*
X3461Y550D01*
X0Y549D02*
X55Y549D01*
X3406Y549D02*
X3461Y549D01*
X0Y548D02*
X55Y548D01*
X3406Y548D02*
X3461Y548D01*
X1Y547D02*
X55Y547D01*
X3406Y547D02*
X3461Y547D01*
X1Y546D02*
X55Y546D01*
X3407Y546D02*
X3461Y546D01*
X1Y545D02*
X55Y545D01*
X3407Y545D02*
X3462Y545D01*
X1Y544D02*
X55Y544D01*
X3407Y544D02*
X3462Y544D01*
X1Y543D02*
X55Y543D01*
X3407Y543D02*
X3462Y543D01*
X1Y542D02*
X55Y542D01*
X3407Y542D02*
X3462Y542D01*
X1Y541D02*
X55Y541D01*
X3407Y541D02*
X3462Y541D01*
X1Y540D02*
X56Y540D01*
X3408Y540D02*
X3462Y540D01*
X1Y539D02*
X56Y539D01*
X3408Y539D02*
X3462Y539D01*
X1Y538D02*
X56Y538D01*
X3408Y538D02*
X3463Y538D01*
X1Y537D02*
X56Y537D01*
X3408Y537D02*
X3463Y537D01*
X1Y536D02*
X56Y536D01*
X3408Y536D02*
X3463Y536D01*
X1Y535D02*
X56Y535D01*
X3408Y535D02*
X3463Y535D01*
X1Y534D02*
X56Y534D01*
X3408Y534D02*
X3463Y534D01*
X1Y533D02*
X56Y533D01*
X3409Y533D02*
X3463Y533D01*
X2Y532D02*
X56Y532D01*
X3409Y532D02*
X3463Y532D01*
X2Y531D02*
X56Y531D01*
X3409Y531D02*
X3464Y531D01*
X2Y530D02*
X56Y530D01*
X3409Y530D02*
X3464Y530D01*
X2Y529D02*
X56Y529D01*
X3409Y529D02*
X3464Y529D01*
X2Y528D02*
X57Y528D01*
X3409Y528D02*
X3464Y528D01*
X2Y527D02*
X57Y527D01*
X3409Y527D02*
X3464Y527D01*
X2Y526D02*
X57Y526D01*
X3409Y526D02*
X3464Y526D01*
X2Y525D02*
X57Y525D01*
X3410Y525D02*
X3464Y525D01*
X2Y524D02*
X57Y524D01*
X3410Y524D02*
X3464Y524D01*
X2Y523D02*
X57Y523D01*
X3410Y523D02*
X3464Y523D01*
X2Y522D02*
X57Y522D01*
X3410Y522D02*
X3464Y522D01*
X3Y521D02*
X57Y521D01*
X3410Y521D02*
X3465Y521D01*
X3Y520D02*
X57Y520D01*
X3410Y520D02*
X3465Y520D01*
X3Y519D02*
X58Y519D01*
X3410Y519D02*
X3465Y519D01*
X3Y518D02*
X58Y518D01*
X3410Y518D02*
X3465Y518D01*
X3Y517D02*
X58Y517D01*
X3410Y517D02*
X3465Y517D01*
X3Y516D02*
X58Y516D01*
X3410Y516D02*
X3465Y516D01*
X3Y515D02*
X58Y515D01*
X3410Y515D02*
X3465Y515D01*
X3Y514D02*
X58Y514D01*
X3410Y514D02*
X3465Y514D01*
X4Y513D02*
X58Y513D01*
X3411Y513D02*
X3465Y513D01*
X4Y512D02*
X58Y512D01*
X3411Y512D02*
X3465Y512D01*
X4Y511D02*
X59Y511D01*
X3411Y511D02*
X3465Y511D01*
X4Y510D02*
X59Y510D01*
X3411Y510D02*
X3465Y510D01*
X4Y509D02*
X59Y509D01*
X3411Y509D02*
X3465Y509D01*
X4Y508D02*
X59Y508D01*
X3411Y508D02*
X3465Y508D01*
X4Y507D02*
X59Y507D01*
X3411Y507D02*
X3466Y507D01*
X5Y506D02*
X59Y506D01*
X3411Y506D02*
X3466Y506D01*
X5Y505D02*
X59Y505D01*
X3411Y505D02*
X3466Y505D01*
X5Y504D02*
X60Y504D01*
X3411Y504D02*
X3466Y504D01*
X5Y503D02*
X60Y503D01*
X3411Y503D02*
X3466Y503D01*
X5Y502D02*
X60Y502D01*
X3411Y502D02*
X3466Y502D01*
X5Y501D02*
X60Y501D01*
X3411Y501D02*
X3466Y501D01*
X5Y500D02*
X60Y500D01*
X3411Y500D02*
X3466Y500D01*
X6Y499D02*
X60Y499D01*
X3411Y499D02*
X3466Y499D01*
X6Y498D02*
X61Y498D01*
X3411Y498D02*
X3466Y498D01*
X6Y497D02*
X61Y497D01*
X3411Y497D02*
X3466Y497D01*
X6Y496D02*
X61Y496D01*
X3411Y496D02*
X3466Y496D01*
X6Y495D02*
X61Y495D01*
X3411Y495D02*
X3466Y495D01*
X6Y494D02*
X61Y494D01*
X3411Y494D02*
X3466Y494D01*
X7Y493D02*
X61Y493D01*
X3411Y493D02*
X3466Y493D01*
X7Y492D02*
X62Y492D01*
X3411Y492D02*
X3466Y492D01*
X7Y491D02*
X62Y491D01*
X3411Y491D02*
X3466Y491D01*
X7Y490D02*
X62Y490D01*
X3411Y490D02*
X3466Y490D01*
X7Y489D02*
X62Y489D01*
X3411Y489D02*
X3466Y489D01*
X8Y488D02*
X62Y488D01*
X3411Y488D02*
X3466Y488D01*
X8Y487D02*
X63Y487D01*
X3411Y487D02*
X3466Y487D01*
X8Y486D02*
X63Y486D01*
X3411Y486D02*
X3466Y486D01*
X8Y485D02*
X63Y485D01*
X3411Y485D02*
X3466Y485D01*
X8Y484D02*
X63Y484D01*
X3411Y484D02*
X3466Y484D01*
X9Y483D02*
X63Y483D01*
X3411Y483D02*
X3466Y483D01*
X9Y482D02*
X64Y482D01*
X3411Y482D02*
X3466Y482D01*
X9Y481D02*
X64Y481D01*
X3411Y481D02*
X3466Y481D01*
X9Y480D02*
X64Y480D01*
X3411Y480D02*
X3466Y480D01*
X9Y479D02*
X64Y479D01*
X3411Y479D02*
X3466Y479D01*
X10Y478D02*
X65Y478D01*
X3411Y478D02*
X3466Y478D01*
X10Y477D02*
X65Y477D01*
X3411Y477D02*
X3466Y477D01*
X10Y476D02*
X65Y476D01*
X3411Y476D02*
X3466Y476D01*
X10Y475D02*
X65Y475D01*
X3411Y475D02*
X3466Y475D01*
X11Y474D02*
X65Y474D01*
X3411Y474D02*
X3466Y474D01*
X11Y473D02*
X66Y473D01*
X3411Y473D02*
X3466Y473D01*
X11Y472D02*
X66Y472D01*
X3411Y472D02*
X3466Y472D01*
X11Y471D02*
X66Y471D01*
X3411Y471D02*
X3466Y471D01*
X11Y470D02*
X66Y470D01*
X3411Y470D02*
X3465Y470D01*
X12Y469D02*
X67Y469D01*
X3411Y469D02*
X3465Y469D01*
X12Y468D02*
X67Y468D01*
X3411Y468D02*
X3465Y468D01*
X12Y467D02*
X67Y467D01*
X3411Y467D02*
X3465Y467D01*
X13Y466D02*
X68Y466D01*
X3411Y466D02*
X3465Y466D01*
X13Y465D02*
X68Y465D01*
X3410Y465D02*
X3465Y465D01*
X13Y464D02*
X68Y464D01*
X3410Y464D02*
X3465Y464D01*
X13Y463D02*
X68Y463D01*
X3410Y463D02*
X3465Y463D01*
X14Y462D02*
X69Y462D01*
X3410Y462D02*
X3465Y462D01*
X14Y461D02*
X69Y461D01*
X3410Y461D02*
X3465Y461D01*
X14Y460D02*
X69Y460D01*
X3410Y460D02*
X3465Y460D01*
X14Y459D02*
X69Y459D01*
X3410Y459D02*
X3465Y459D01*
X15Y458D02*
X70Y458D01*
X3410Y458D02*
X3465Y458D01*
X15Y457D02*
X70Y457D01*
X3410Y457D02*
X3465Y457D01*
X15Y456D02*
X70Y456D01*
X3410Y456D02*
X3464Y456D01*
X15Y455D02*
X71Y455D01*
X3410Y455D02*
X3464Y455D01*
X16Y454D02*
X71Y454D01*
X3410Y454D02*
X3464Y454D01*
X16Y453D02*
X71Y453D01*
X3409Y453D02*
X3464Y453D01*
X16Y452D02*
X71Y452D01*
X3409Y452D02*
X3464Y452D01*
X17Y451D02*
X72Y451D01*
X3409Y451D02*
X3464Y451D01*
X17Y450D02*
X72Y450D01*
X3409Y450D02*
X3464Y450D01*
X17Y449D02*
X72Y449D01*
X3409Y449D02*
X3464Y449D01*
X18Y448D02*
X73Y448D01*
X3409Y448D02*
X3464Y448D01*
X18Y447D02*
X73Y447D01*
X3409Y447D02*
X3464Y447D01*
X18Y446D02*
X73Y446D01*
X3409Y446D02*
X3463Y446D01*
X18Y445D02*
X74Y445D01*
X3409Y445D02*
X3463Y445D01*
X19Y444D02*
X74Y444D01*
X3408Y444D02*
X3463Y444D01*
X19Y443D02*
X74Y443D01*
X3408Y443D02*
X3463Y443D01*
X19Y442D02*
X75Y442D01*
X3408Y442D02*
X3463Y442D01*
X20Y441D02*
X75Y441D01*
X3408Y441D02*
X3463Y441D01*
X20Y440D02*
X75Y440D01*
X3408Y440D02*
X3463Y440D01*
X20Y439D02*
X76Y439D01*
X3408Y439D02*
X3462Y439D01*
X21Y438D02*
X76Y438D01*
X3408Y438D02*
X3462Y438D01*
X21Y437D02*
X76Y437D01*
X3407Y437D02*
X3462Y437D01*
X21Y436D02*
X77Y436D01*
X3407Y436D02*
X3462Y436D01*
X22Y435D02*
X77Y435D01*
X3407Y435D02*
X3462Y435D01*
X22Y434D02*
X78Y434D01*
X3407Y434D02*
X3462Y434D01*
X22Y433D02*
X78Y433D01*
X3407Y433D02*
X3462Y433D01*
X23Y432D02*
X78Y432D01*
X3407Y432D02*
X3461Y432D01*
X23Y431D02*
X79Y431D01*
X3407Y431D02*
X3461Y431D01*
X23Y430D02*
X79Y430D01*
X3406Y430D02*
X3461Y430D01*
X24Y429D02*
X79Y429D01*
X3406Y429D02*
X3461Y429D01*
X24Y428D02*
X80Y428D01*
X3406Y428D02*
X3461Y428D01*
X24Y427D02*
X80Y427D01*
X3406Y427D02*
X3461Y427D01*
X25Y426D02*
X80Y426D01*
X3406Y426D02*
X3460Y426D01*
X25Y425D02*
X81Y425D01*
X3405Y425D02*
X3460Y425D01*
X26Y424D02*
X81Y424D01*
X3405Y424D02*
X3460Y424D01*
X26Y423D02*
X82Y423D01*
X3405Y423D02*
X3460Y423D01*
X26Y422D02*
X82Y422D01*
X3405Y422D02*
X3460Y422D01*
X27Y421D02*
X82Y421D01*
X3405Y421D02*
X3459Y421D01*
X27Y420D02*
X83Y420D01*
X3404Y420D02*
X3459Y420D01*
X27Y419D02*
X83Y419D01*
X3404Y419D02*
X3459Y419D01*
X28Y418D02*
X84Y418D01*
X3404Y418D02*
X3459Y418D01*
X28Y417D02*
X84Y417D01*
X3404Y417D02*
X3459Y417D01*
X29Y416D02*
X85Y416D01*
X3404Y416D02*
X3458Y416D01*
X29Y415D02*
X85Y415D01*
X3403Y415D02*
X3458Y415D01*
X29Y414D02*
X85Y414D01*
X3403Y414D02*
X3458Y414D01*
X30Y413D02*
X86Y413D01*
X3403Y413D02*
X3458Y413D01*
X30Y412D02*
X86Y412D01*
X3403Y412D02*
X3458Y412D01*
X31Y411D02*
X87Y411D01*
X3403Y411D02*
X3457Y411D01*
X31Y410D02*
X87Y410D01*
X3402Y410D02*
X3457Y410D01*
X32Y409D02*
X88Y409D01*
X3402Y409D02*
X3457Y409D01*
X32Y408D02*
X88Y408D01*
X3402Y408D02*
X3457Y408D01*
X32Y407D02*
X88Y407D01*
X3402Y407D02*
X3456Y407D01*
X33Y406D02*
X89Y406D01*
X3401Y406D02*
X3456Y406D01*
X33Y405D02*
X89Y405D01*
X3401Y405D02*
X3456Y405D01*
X34Y404D02*
X90Y404D01*
X3401Y404D02*
X3456Y404D01*
X34Y403D02*
X90Y403D01*
X3401Y403D02*
X3456Y403D01*
X34Y402D02*
X91Y402D01*
X3400Y402D02*
X3455Y402D01*
X35Y401D02*
X91Y401D01*
X974Y401D02*
X1001Y401D01*
X1026Y401D02*
X1056Y401D01*
X3400Y401D02*
X3455Y401D01*
X35Y400D02*
X92Y400D01*
X974Y400D02*
X1003Y400D01*
X1025Y400D02*
X1057Y400D01*
X3400Y400D02*
X3455Y400D01*
X36Y399D02*
X92Y399D01*
X974Y399D02*
X1004Y399D01*
X1024Y399D02*
X1058Y399D01*
X1406Y399D02*
X1421Y399D01*
X1456Y399D02*
X1457Y399D01*
X1484Y399D02*
X1485Y399D01*
X1504Y399D02*
X1537Y399D01*
X1556Y399D02*
X1581Y399D01*
X1606Y399D02*
X1631Y399D01*
X3399Y399D02*
X3455Y399D01*
X36Y398D02*
X93Y398D01*
X883Y398D02*
X886Y398D01*
X974Y398D02*
X1005Y398D01*
X1024Y398D02*
X1058Y398D01*
X1405Y398D02*
X1424Y398D01*
X1455Y398D02*
X1459Y398D01*
X1482Y398D02*
X1486Y398D01*
X1504Y398D02*
X1537Y398D01*
X1555Y398D02*
X1584Y398D01*
X1605Y398D02*
X1634Y398D01*
X3399Y398D02*
X3454Y398D01*
X37Y397D02*
X93Y397D01*
X882Y397D02*
X887Y397D01*
X974Y397D02*
X1006Y397D01*
X1024Y397D02*
X1058Y397D01*
X1404Y397D02*
X1425Y397D01*
X1454Y397D02*
X1459Y397D01*
X1482Y397D02*
X1487Y397D01*
X1504Y397D02*
X1537Y397D01*
X1554Y397D02*
X1585Y397D01*
X1604Y397D02*
X1635Y397D01*
X3399Y397D02*
X3454Y397D01*
X37Y396D02*
X94Y396D01*
X881Y396D02*
X887Y396D01*
X974Y396D02*
X1007Y396D01*
X1025Y396D02*
X1057Y396D01*
X1404Y396D02*
X1426Y396D01*
X1454Y396D02*
X1460Y396D01*
X1481Y396D02*
X1487Y396D01*
X1504Y396D02*
X1537Y396D01*
X1554Y396D02*
X1586Y396D01*
X1604Y396D02*
X1636Y396D01*
X3399Y396D02*
X3454Y396D01*
X38Y395D02*
X94Y395D01*
X881Y395D02*
X887Y395D01*
X974Y395D02*
X1007Y395D01*
X1026Y395D02*
X1056Y395D01*
X1404Y395D02*
X1427Y395D01*
X1454Y395D02*
X1460Y395D01*
X1481Y395D02*
X1487Y395D01*
X1504Y395D02*
X1537Y395D01*
X1554Y395D02*
X1587Y395D01*
X1604Y395D02*
X1637Y395D01*
X3398Y395D02*
X3453Y395D01*
X38Y394D02*
X95Y394D01*
X881Y394D02*
X887Y394D01*
X974Y394D02*
X980Y394D01*
X1000Y394D02*
X1008Y394D01*
X1038Y394D02*
X1044Y394D01*
X1404Y394D02*
X1428Y394D01*
X1454Y394D02*
X1460Y394D01*
X1481Y394D02*
X1487Y394D01*
X1504Y394D02*
X1537Y394D01*
X1554Y394D02*
X1587Y394D01*
X1604Y394D02*
X1637Y394D01*
X3398Y394D02*
X3453Y394D01*
X39Y393D02*
X95Y393D01*
X881Y393D02*
X887Y393D01*
X974Y393D02*
X980Y393D01*
X1001Y393D02*
X1008Y393D01*
X1038Y393D02*
X1044Y393D01*
X1405Y393D02*
X1429Y393D01*
X1454Y393D02*
X1460Y393D01*
X1481Y393D02*
X1487Y393D01*
X1504Y393D02*
X1537Y393D01*
X1555Y393D02*
X1587Y393D01*
X1605Y393D02*
X1637Y393D01*
X3398Y393D02*
X3453Y393D01*
X39Y392D02*
X96Y392D01*
X881Y392D02*
X887Y392D01*
X974Y392D02*
X980Y392D01*
X1002Y392D02*
X1008Y392D01*
X1038Y392D02*
X1044Y392D01*
X1410Y392D02*
X1417Y392D01*
X1421Y392D02*
X1429Y392D01*
X1454Y392D02*
X1460Y392D01*
X1481Y392D02*
X1487Y392D01*
X1504Y392D02*
X1510Y392D01*
X1517Y392D02*
X1524Y392D01*
X1531Y392D02*
X1537Y392D01*
X1581Y392D02*
X1587Y392D01*
X1631Y392D02*
X1637Y392D01*
X3397Y392D02*
X3453Y392D01*
X39Y391D02*
X96Y391D01*
X881Y391D02*
X887Y391D01*
X974Y391D02*
X980Y391D01*
X1002Y391D02*
X1008Y391D01*
X1038Y391D02*
X1044Y391D01*
X1411Y391D02*
X1417Y391D01*
X1423Y391D02*
X1430Y391D01*
X1454Y391D02*
X1460Y391D01*
X1481Y391D02*
X1487Y391D01*
X1504Y391D02*
X1510Y391D01*
X1517Y391D02*
X1523Y391D01*
X1531Y391D02*
X1537Y391D01*
X1581Y391D02*
X1587Y391D01*
X1631Y391D02*
X1637Y391D01*
X3397Y391D02*
X3452Y391D01*
X40Y390D02*
X97Y390D01*
X881Y390D02*
X887Y390D01*
X974Y390D02*
X980Y390D01*
X1002Y390D02*
X1008Y390D01*
X1038Y390D02*
X1044Y390D01*
X1411Y390D02*
X1417Y390D01*
X1423Y390D02*
X1430Y390D01*
X1454Y390D02*
X1460Y390D01*
X1481Y390D02*
X1487Y390D01*
X1504Y390D02*
X1510Y390D01*
X1517Y390D02*
X1523Y390D01*
X1531Y390D02*
X1537Y390D01*
X1581Y390D02*
X1587Y390D01*
X1631Y390D02*
X1637Y390D01*
X3397Y390D02*
X3452Y390D01*
X40Y389D02*
X97Y389D01*
X881Y389D02*
X887Y389D01*
X974Y389D02*
X980Y389D01*
X1002Y389D02*
X1008Y389D01*
X1038Y389D02*
X1044Y389D01*
X1411Y389D02*
X1417Y389D01*
X1424Y389D02*
X1431Y389D01*
X1454Y389D02*
X1460Y389D01*
X1481Y389D02*
X1487Y389D01*
X1504Y389D02*
X1510Y389D01*
X1517Y389D02*
X1523Y389D01*
X1531Y389D02*
X1537Y389D01*
X1581Y389D02*
X1587Y389D01*
X1631Y389D02*
X1637Y389D01*
X3397Y389D02*
X3452Y389D01*
X41Y388D02*
X98Y388D01*
X881Y388D02*
X887Y388D01*
X974Y388D02*
X980Y388D01*
X1002Y388D02*
X1008Y388D01*
X1038Y388D02*
X1044Y388D01*
X1411Y388D02*
X1417Y388D01*
X1424Y388D02*
X1431Y388D01*
X1454Y388D02*
X1460Y388D01*
X1481Y388D02*
X1487Y388D01*
X1504Y388D02*
X1509Y388D01*
X1517Y388D02*
X1523Y388D01*
X1532Y388D02*
X1537Y388D01*
X1581Y388D02*
X1587Y388D01*
X1631Y388D02*
X1637Y388D01*
X3396Y388D02*
X3451Y388D01*
X41Y387D02*
X98Y387D01*
X881Y387D02*
X887Y387D01*
X974Y387D02*
X980Y387D01*
X1002Y387D02*
X1008Y387D01*
X1038Y387D02*
X1044Y387D01*
X1411Y387D02*
X1417Y387D01*
X1425Y387D02*
X1432Y387D01*
X1454Y387D02*
X1460Y387D01*
X1481Y387D02*
X1487Y387D01*
X1505Y387D02*
X1508Y387D01*
X1517Y387D02*
X1523Y387D01*
X1533Y387D02*
X1536Y387D01*
X1581Y387D02*
X1587Y387D01*
X1631Y387D02*
X1637Y387D01*
X3396Y387D02*
X3451Y387D01*
X42Y386D02*
X99Y386D01*
X876Y386D02*
X903Y386D01*
X933Y386D02*
X949Y386D01*
X974Y386D02*
X980Y386D01*
X1002Y386D02*
X1008Y386D01*
X1038Y386D02*
X1044Y386D01*
X1411Y386D02*
X1417Y386D01*
X1425Y386D02*
X1432Y386D01*
X1454Y386D02*
X1460Y386D01*
X1481Y386D02*
X1487Y386D01*
X1517Y386D02*
X1523Y386D01*
X1581Y386D02*
X1587Y386D01*
X1631Y386D02*
X1637Y386D01*
X3396Y386D02*
X3451Y386D01*
X42Y385D02*
X99Y385D01*
X875Y385D02*
X904Y385D01*
X931Y385D02*
X951Y385D01*
X974Y385D02*
X980Y385D01*
X1002Y385D02*
X1008Y385D01*
X1038Y385D02*
X1044Y385D01*
X1411Y385D02*
X1417Y385D01*
X1426Y385D02*
X1433Y385D01*
X1454Y385D02*
X1460Y385D01*
X1481Y385D02*
X1487Y385D01*
X1517Y385D02*
X1523Y385D01*
X1581Y385D02*
X1587Y385D01*
X1631Y385D02*
X1637Y385D01*
X3395Y385D02*
X3451Y385D01*
X43Y384D02*
X100Y384D01*
X875Y384D02*
X904Y384D01*
X930Y384D02*
X952Y384D01*
X974Y384D02*
X980Y384D01*
X1002Y384D02*
X1008Y384D01*
X1038Y384D02*
X1044Y384D01*
X1411Y384D02*
X1417Y384D01*
X1426Y384D02*
X1433Y384D01*
X1454Y384D02*
X1460Y384D01*
X1481Y384D02*
X1487Y384D01*
X1517Y384D02*
X1523Y384D01*
X1581Y384D02*
X1587Y384D01*
X1631Y384D02*
X1637Y384D01*
X3395Y384D02*
X3450Y384D01*
X43Y383D02*
X100Y383D01*
X875Y383D02*
X904Y383D01*
X929Y383D02*
X953Y383D01*
X974Y383D02*
X980Y383D01*
X1002Y383D02*
X1008Y383D01*
X1038Y383D02*
X1044Y383D01*
X1411Y383D02*
X1417Y383D01*
X1427Y383D02*
X1434Y383D01*
X1454Y383D02*
X1460Y383D01*
X1481Y383D02*
X1487Y383D01*
X1517Y383D02*
X1523Y383D01*
X1581Y383D02*
X1587Y383D01*
X1631Y383D02*
X1637Y383D01*
X3395Y383D02*
X3450Y383D01*
X44Y382D02*
X101Y382D01*
X875Y382D02*
X904Y382D01*
X928Y382D02*
X954Y382D01*
X974Y382D02*
X980Y382D01*
X1002Y382D02*
X1008Y382D01*
X1038Y382D02*
X1044Y382D01*
X1411Y382D02*
X1417Y382D01*
X1427Y382D02*
X1434Y382D01*
X1454Y382D02*
X1460Y382D01*
X1481Y382D02*
X1487Y382D01*
X1517Y382D02*
X1523Y382D01*
X1581Y382D02*
X1587Y382D01*
X1631Y382D02*
X1637Y382D01*
X3394Y382D02*
X3450Y382D01*
X44Y381D02*
X101Y381D01*
X875Y381D02*
X904Y381D01*
X927Y381D02*
X955Y381D01*
X974Y381D02*
X980Y381D01*
X1002Y381D02*
X1008Y381D01*
X1038Y381D02*
X1044Y381D01*
X1411Y381D02*
X1417Y381D01*
X1428Y381D02*
X1435Y381D01*
X1454Y381D02*
X1460Y381D01*
X1481Y381D02*
X1487Y381D01*
X1517Y381D02*
X1523Y381D01*
X1581Y381D02*
X1587Y381D01*
X1631Y381D02*
X1637Y381D01*
X3394Y381D02*
X3449Y381D01*
X45Y380D02*
X102Y380D01*
X877Y380D02*
X902Y380D01*
X926Y380D02*
X956Y380D01*
X974Y380D02*
X980Y380D01*
X1002Y380D02*
X1008Y380D01*
X1038Y380D02*
X1044Y380D01*
X1411Y380D02*
X1417Y380D01*
X1428Y380D02*
X1435Y380D01*
X1454Y380D02*
X1460Y380D01*
X1481Y380D02*
X1487Y380D01*
X1517Y380D02*
X1523Y380D01*
X1581Y380D02*
X1587Y380D01*
X1631Y380D02*
X1637Y380D01*
X3394Y380D02*
X3449Y380D01*
X45Y379D02*
X103Y379D01*
X881Y379D02*
X887Y379D01*
X926Y379D02*
X934Y379D01*
X948Y379D02*
X957Y379D01*
X974Y379D02*
X980Y379D01*
X1002Y379D02*
X1008Y379D01*
X1038Y379D02*
X1044Y379D01*
X1411Y379D02*
X1417Y379D01*
X1429Y379D02*
X1436Y379D01*
X1454Y379D02*
X1460Y379D01*
X1481Y379D02*
X1487Y379D01*
X1517Y379D02*
X1523Y379D01*
X1581Y379D02*
X1587Y379D01*
X1631Y379D02*
X1637Y379D01*
X3393Y379D02*
X3449Y379D01*
X46Y378D02*
X103Y378D01*
X881Y378D02*
X887Y378D01*
X925Y378D02*
X933Y378D01*
X950Y378D02*
X957Y378D01*
X974Y378D02*
X980Y378D01*
X1002Y378D02*
X1008Y378D01*
X1038Y378D02*
X1044Y378D01*
X1411Y378D02*
X1417Y378D01*
X1429Y378D02*
X1436Y378D01*
X1454Y378D02*
X1460Y378D01*
X1481Y378D02*
X1487Y378D01*
X1517Y378D02*
X1523Y378D01*
X1581Y378D02*
X1587Y378D01*
X1631Y378D02*
X1637Y378D01*
X3393Y378D02*
X3448Y378D01*
X46Y377D02*
X104Y377D01*
X881Y377D02*
X887Y377D01*
X925Y377D02*
X932Y377D01*
X951Y377D02*
X958Y377D01*
X974Y377D02*
X980Y377D01*
X1002Y377D02*
X1008Y377D01*
X1038Y377D02*
X1044Y377D01*
X1411Y377D02*
X1417Y377D01*
X1430Y377D02*
X1436Y377D01*
X1454Y377D02*
X1460Y377D01*
X1481Y377D02*
X1487Y377D01*
X1517Y377D02*
X1523Y377D01*
X1581Y377D02*
X1587Y377D01*
X1631Y377D02*
X1637Y377D01*
X3393Y377D02*
X3448Y377D01*
X47Y376D02*
X104Y376D01*
X881Y376D02*
X887Y376D01*
X925Y376D02*
X931Y376D01*
X951Y376D02*
X958Y376D01*
X974Y376D02*
X980Y376D01*
X1001Y376D02*
X1008Y376D01*
X1038Y376D02*
X1044Y376D01*
X1411Y376D02*
X1417Y376D01*
X1430Y376D02*
X1437Y376D01*
X1454Y376D02*
X1460Y376D01*
X1481Y376D02*
X1487Y376D01*
X1517Y376D02*
X1523Y376D01*
X1581Y376D02*
X1587Y376D01*
X1631Y376D02*
X1637Y376D01*
X3392Y376D02*
X3448Y376D01*
X47Y375D02*
X105Y375D01*
X881Y375D02*
X887Y375D01*
X924Y375D02*
X930Y375D01*
X952Y375D02*
X958Y375D01*
X974Y375D02*
X981Y375D01*
X999Y375D02*
X1007Y375D01*
X1038Y375D02*
X1044Y375D01*
X1411Y375D02*
X1417Y375D01*
X1431Y375D02*
X1437Y375D01*
X1454Y375D02*
X1487Y375D01*
X1517Y375D02*
X1523Y375D01*
X1558Y375D02*
X1587Y375D01*
X1608Y375D02*
X1637Y375D01*
X3392Y375D02*
X3447Y375D01*
X48Y374D02*
X105Y374D01*
X881Y374D02*
X887Y374D01*
X924Y374D02*
X930Y374D01*
X952Y374D02*
X958Y374D01*
X974Y374D02*
X1007Y374D01*
X1038Y374D02*
X1044Y374D01*
X1411Y374D02*
X1417Y374D01*
X1431Y374D02*
X1437Y374D01*
X1454Y374D02*
X1487Y374D01*
X1517Y374D02*
X1523Y374D01*
X1556Y374D02*
X1587Y374D01*
X1606Y374D02*
X1637Y374D01*
X3391Y374D02*
X3447Y374D01*
X48Y373D02*
X106Y373D01*
X881Y373D02*
X887Y373D01*
X924Y373D02*
X930Y373D01*
X952Y373D02*
X958Y373D01*
X974Y373D02*
X1006Y373D01*
X1038Y373D02*
X1044Y373D01*
X1411Y373D02*
X1417Y373D01*
X1431Y373D02*
X1437Y373D01*
X1454Y373D02*
X1487Y373D01*
X1517Y373D02*
X1523Y373D01*
X1555Y373D02*
X1587Y373D01*
X1605Y373D02*
X1637Y373D01*
X3391Y373D02*
X3447Y373D01*
X49Y372D02*
X106Y372D01*
X881Y372D02*
X887Y372D01*
X924Y372D02*
X930Y372D01*
X952Y372D02*
X958Y372D01*
X974Y372D02*
X1006Y372D01*
X1038Y372D02*
X1044Y372D01*
X1411Y372D02*
X1417Y372D01*
X1431Y372D02*
X1437Y372D01*
X1454Y372D02*
X1487Y372D01*
X1517Y372D02*
X1523Y372D01*
X1555Y372D02*
X1586Y372D01*
X1605Y372D02*
X1636Y372D01*
X3391Y372D02*
X3446Y372D01*
X50Y371D02*
X107Y371D01*
X881Y371D02*
X887Y371D01*
X924Y371D02*
X930Y371D01*
X952Y371D02*
X958Y371D01*
X974Y371D02*
X1005Y371D01*
X1038Y371D02*
X1044Y371D01*
X1411Y371D02*
X1417Y371D01*
X1431Y371D02*
X1437Y371D01*
X1454Y371D02*
X1487Y371D01*
X1517Y371D02*
X1523Y371D01*
X1554Y371D02*
X1585Y371D01*
X1604Y371D02*
X1635Y371D01*
X3390Y371D02*
X3446Y371D01*
X50Y370D02*
X108Y370D01*
X881Y370D02*
X887Y370D01*
X924Y370D02*
X930Y370D01*
X952Y370D02*
X958Y370D01*
X974Y370D02*
X1004Y370D01*
X1038Y370D02*
X1044Y370D01*
X1411Y370D02*
X1417Y370D01*
X1431Y370D02*
X1437Y370D01*
X1454Y370D02*
X1487Y370D01*
X1517Y370D02*
X1523Y370D01*
X1554Y370D02*
X1584Y370D01*
X1604Y370D02*
X1634Y370D01*
X3390Y370D02*
X3446Y370D01*
X51Y369D02*
X108Y369D01*
X881Y369D02*
X887Y369D01*
X924Y369D02*
X930Y369D01*
X952Y369D02*
X958Y369D01*
X974Y369D02*
X1002Y369D01*
X1038Y369D02*
X1044Y369D01*
X1411Y369D02*
X1417Y369D01*
X1431Y369D02*
X1437Y369D01*
X1454Y369D02*
X1487Y369D01*
X1517Y369D02*
X1523Y369D01*
X1554Y369D02*
X1583Y369D01*
X1604Y369D02*
X1633Y369D01*
X3390Y369D02*
X3445Y369D01*
X51Y368D02*
X109Y368D01*
X881Y368D02*
X887Y368D01*
X924Y368D02*
X930Y368D01*
X952Y368D02*
X958Y368D01*
X974Y368D02*
X998Y368D01*
X1038Y368D02*
X1044Y368D01*
X1411Y368D02*
X1417Y368D01*
X1430Y368D02*
X1437Y368D01*
X1454Y368D02*
X1460Y368D01*
X1481Y368D02*
X1487Y368D01*
X1517Y368D02*
X1523Y368D01*
X1554Y368D02*
X1560Y368D01*
X1604Y368D02*
X1610Y368D01*
X3389Y368D02*
X3445Y368D01*
X52Y367D02*
X109Y367D01*
X881Y367D02*
X887Y367D01*
X924Y367D02*
X930Y367D01*
X952Y367D02*
X958Y367D01*
X974Y367D02*
X980Y367D01*
X1038Y367D02*
X1044Y367D01*
X1411Y367D02*
X1417Y367D01*
X1430Y367D02*
X1436Y367D01*
X1454Y367D02*
X1460Y367D01*
X1481Y367D02*
X1487Y367D01*
X1517Y367D02*
X1523Y367D01*
X1554Y367D02*
X1560Y367D01*
X1604Y367D02*
X1610Y367D01*
X3389Y367D02*
X3444Y367D01*
X52Y366D02*
X110Y366D01*
X881Y366D02*
X887Y366D01*
X924Y366D02*
X930Y366D01*
X952Y366D02*
X958Y366D01*
X974Y366D02*
X980Y366D01*
X1038Y366D02*
X1044Y366D01*
X1411Y366D02*
X1417Y366D01*
X1429Y366D02*
X1436Y366D01*
X1454Y366D02*
X1460Y366D01*
X1481Y366D02*
X1487Y366D01*
X1517Y366D02*
X1523Y366D01*
X1554Y366D02*
X1560Y366D01*
X1604Y366D02*
X1610Y366D01*
X3388Y366D02*
X3444Y366D01*
X53Y365D02*
X111Y365D01*
X881Y365D02*
X887Y365D01*
X924Y365D02*
X930Y365D01*
X952Y365D02*
X958Y365D01*
X974Y365D02*
X980Y365D01*
X1038Y365D02*
X1044Y365D01*
X1411Y365D02*
X1417Y365D01*
X1429Y365D02*
X1436Y365D01*
X1454Y365D02*
X1460Y365D01*
X1481Y365D02*
X1487Y365D01*
X1517Y365D02*
X1523Y365D01*
X1554Y365D02*
X1560Y365D01*
X1604Y365D02*
X1610Y365D01*
X3388Y365D02*
X3444Y365D01*
X53Y364D02*
X111Y364D01*
X881Y364D02*
X887Y364D01*
X924Y364D02*
X930Y364D01*
X952Y364D02*
X958Y364D01*
X974Y364D02*
X980Y364D01*
X1038Y364D02*
X1044Y364D01*
X1411Y364D02*
X1417Y364D01*
X1428Y364D02*
X1435Y364D01*
X1454Y364D02*
X1460Y364D01*
X1481Y364D02*
X1487Y364D01*
X1517Y364D02*
X1523Y364D01*
X1554Y364D02*
X1560Y364D01*
X1604Y364D02*
X1610Y364D01*
X3388Y364D02*
X3443Y364D01*
X54Y363D02*
X112Y363D01*
X881Y363D02*
X887Y363D01*
X924Y363D02*
X930Y363D01*
X952Y363D02*
X958Y363D01*
X974Y363D02*
X980Y363D01*
X1038Y363D02*
X1044Y363D01*
X1411Y363D02*
X1417Y363D01*
X1428Y363D02*
X1435Y363D01*
X1454Y363D02*
X1460Y363D01*
X1481Y363D02*
X1487Y363D01*
X1517Y363D02*
X1523Y363D01*
X1554Y363D02*
X1560Y363D01*
X1604Y363D02*
X1610Y363D01*
X3387Y363D02*
X3443Y363D01*
X55Y362D02*
X112Y362D01*
X881Y362D02*
X887Y362D01*
X924Y362D02*
X930Y362D01*
X952Y362D02*
X958Y362D01*
X974Y362D02*
X980Y362D01*
X1038Y362D02*
X1044Y362D01*
X1411Y362D02*
X1417Y362D01*
X1427Y362D02*
X1434Y362D01*
X1454Y362D02*
X1460Y362D01*
X1481Y362D02*
X1487Y362D01*
X1517Y362D02*
X1523Y362D01*
X1554Y362D02*
X1560Y362D01*
X1604Y362D02*
X1610Y362D01*
X3387Y362D02*
X3443Y362D01*
X55Y361D02*
X113Y361D01*
X881Y361D02*
X887Y361D01*
X924Y361D02*
X930Y361D01*
X952Y361D02*
X958Y361D01*
X974Y361D02*
X980Y361D01*
X1038Y361D02*
X1044Y361D01*
X1411Y361D02*
X1417Y361D01*
X1427Y361D02*
X1434Y361D01*
X1454Y361D02*
X1460Y361D01*
X1481Y361D02*
X1487Y361D01*
X1517Y361D02*
X1523Y361D01*
X1554Y361D02*
X1560Y361D01*
X1604Y361D02*
X1610Y361D01*
X3386Y361D02*
X3442Y361D01*
X56Y360D02*
X114Y360D01*
X881Y360D02*
X887Y360D01*
X904Y360D02*
X906Y360D01*
X924Y360D02*
X930Y360D01*
X952Y360D02*
X958Y360D01*
X974Y360D02*
X980Y360D01*
X1038Y360D02*
X1044Y360D01*
X1411Y360D02*
X1417Y360D01*
X1426Y360D02*
X1433Y360D01*
X1454Y360D02*
X1460Y360D01*
X1481Y360D02*
X1487Y360D01*
X1517Y360D02*
X1523Y360D01*
X1554Y360D02*
X1560Y360D01*
X1604Y360D02*
X1610Y360D01*
X3386Y360D02*
X3442Y360D01*
X56Y359D02*
X114Y359D01*
X881Y359D02*
X887Y359D01*
X903Y359D02*
X907Y359D01*
X924Y359D02*
X931Y359D01*
X952Y359D02*
X958Y359D01*
X974Y359D02*
X980Y359D01*
X1038Y359D02*
X1044Y359D01*
X1411Y359D02*
X1417Y359D01*
X1426Y359D02*
X1433Y359D01*
X1454Y359D02*
X1460Y359D01*
X1481Y359D02*
X1487Y359D01*
X1517Y359D02*
X1523Y359D01*
X1554Y359D02*
X1560Y359D01*
X1604Y359D02*
X1610Y359D01*
X3386Y359D02*
X3441Y359D01*
X57Y358D02*
X115Y358D01*
X881Y358D02*
X887Y358D01*
X902Y358D02*
X908Y358D01*
X924Y358D02*
X931Y358D01*
X951Y358D02*
X958Y358D01*
X974Y358D02*
X980Y358D01*
X1038Y358D02*
X1044Y358D01*
X1411Y358D02*
X1417Y358D01*
X1425Y358D02*
X1432Y358D01*
X1454Y358D02*
X1460Y358D01*
X1481Y358D02*
X1487Y358D01*
X1517Y358D02*
X1523Y358D01*
X1554Y358D02*
X1560Y358D01*
X1604Y358D02*
X1610Y358D01*
X3385Y358D02*
X3441Y358D01*
X57Y357D02*
X116Y357D01*
X881Y357D02*
X887Y357D01*
X902Y357D02*
X908Y357D01*
X925Y357D02*
X932Y357D01*
X950Y357D02*
X958Y357D01*
X974Y357D02*
X980Y357D01*
X1038Y357D02*
X1044Y357D01*
X1411Y357D02*
X1417Y357D01*
X1425Y357D02*
X1432Y357D01*
X1454Y357D02*
X1460Y357D01*
X1481Y357D02*
X1487Y357D01*
X1517Y357D02*
X1523Y357D01*
X1554Y357D02*
X1560Y357D01*
X1604Y357D02*
X1610Y357D01*
X3385Y357D02*
X3441Y357D01*
X58Y356D02*
X116Y356D01*
X881Y356D02*
X888Y356D01*
X901Y356D02*
X908Y356D01*
X925Y356D02*
X933Y356D01*
X949Y356D02*
X957Y356D01*
X974Y356D02*
X980Y356D01*
X1038Y356D02*
X1044Y356D01*
X1411Y356D02*
X1417Y356D01*
X1424Y356D02*
X1431Y356D01*
X1454Y356D02*
X1460Y356D01*
X1481Y356D02*
X1487Y356D01*
X1517Y356D02*
X1523Y356D01*
X1554Y356D02*
X1560Y356D01*
X1604Y356D02*
X1610Y356D01*
X3384Y356D02*
X3440Y356D01*
X59Y355D02*
X117Y355D01*
X882Y355D02*
X889Y355D01*
X900Y355D02*
X908Y355D01*
X925Y355D02*
X934Y355D01*
X948Y355D02*
X957Y355D01*
X974Y355D02*
X980Y355D01*
X1038Y355D02*
X1044Y355D01*
X1411Y355D02*
X1417Y355D01*
X1424Y355D02*
X1431Y355D01*
X1454Y355D02*
X1460Y355D01*
X1481Y355D02*
X1487Y355D01*
X1517Y355D02*
X1523Y355D01*
X1554Y355D02*
X1560Y355D01*
X1604Y355D02*
X1610Y355D01*
X3384Y355D02*
X3440Y355D01*
X59Y354D02*
X117Y354D01*
X882Y354D02*
X907Y354D01*
X926Y354D02*
X956Y354D01*
X974Y354D02*
X980Y354D01*
X1026Y354D02*
X1056Y354D01*
X1411Y354D02*
X1417Y354D01*
X1423Y354D02*
X1430Y354D01*
X1454Y354D02*
X1460Y354D01*
X1481Y354D02*
X1487Y354D01*
X1517Y354D02*
X1523Y354D01*
X1554Y354D02*
X1560Y354D01*
X1604Y354D02*
X1610Y354D01*
X3383Y354D02*
X3439Y354D01*
X60Y353D02*
X118Y353D01*
X882Y353D02*
X907Y353D01*
X927Y353D02*
X955Y353D01*
X974Y353D02*
X980Y353D01*
X1025Y353D02*
X1057Y353D01*
X1411Y353D02*
X1417Y353D01*
X1423Y353D02*
X1430Y353D01*
X1454Y353D02*
X1460Y353D01*
X1481Y353D02*
X1487Y353D01*
X1517Y353D02*
X1523Y353D01*
X1554Y353D02*
X1560Y353D01*
X1604Y353D02*
X1610Y353D01*
X3383Y353D02*
X3439Y353D01*
X60Y352D02*
X119Y352D01*
X883Y352D02*
X906Y352D01*
X928Y352D02*
X954Y352D01*
X974Y352D02*
X980Y352D01*
X1025Y352D02*
X1058Y352D01*
X1410Y352D02*
X1417Y352D01*
X1421Y352D02*
X1429Y352D01*
X1454Y352D02*
X1460Y352D01*
X1481Y352D02*
X1487Y352D01*
X1517Y352D02*
X1523Y352D01*
X1554Y352D02*
X1560Y352D01*
X1604Y352D02*
X1610Y352D01*
X3383Y352D02*
X3439Y352D01*
X61Y351D02*
X119Y351D01*
X884Y351D02*
X905Y351D01*
X929Y351D02*
X953Y351D01*
X974Y351D02*
X980Y351D01*
X1024Y351D02*
X1058Y351D01*
X1405Y351D02*
X1429Y351D01*
X1454Y351D02*
X1460Y351D01*
X1481Y351D02*
X1487Y351D01*
X1517Y351D02*
X1523Y351D01*
X1554Y351D02*
X1586Y351D01*
X1604Y351D02*
X1636Y351D01*
X3382Y351D02*
X3438Y351D01*
X62Y350D02*
X120Y350D01*
X885Y350D02*
X904Y350D01*
X930Y350D02*
X952Y350D01*
X974Y350D02*
X980Y350D01*
X1024Y350D02*
X1058Y350D01*
X1404Y350D02*
X1428Y350D01*
X1454Y350D02*
X1460Y350D01*
X1481Y350D02*
X1487Y350D01*
X1517Y350D02*
X1523Y350D01*
X1554Y350D02*
X1587Y350D01*
X1604Y350D02*
X1637Y350D01*
X3382Y350D02*
X3438Y350D01*
X62Y349D02*
X121Y349D01*
X886Y349D02*
X903Y349D01*
X932Y349D02*
X951Y349D01*
X975Y349D02*
X980Y349D01*
X1025Y349D02*
X1057Y349D01*
X1404Y349D02*
X1427Y349D01*
X1454Y349D02*
X1460Y349D01*
X1481Y349D02*
X1487Y349D01*
X1517Y349D02*
X1523Y349D01*
X1554Y349D02*
X1587Y349D01*
X1604Y349D02*
X1637Y349D01*
X3381Y349D02*
X3437Y349D01*
X63Y348D02*
X122Y348D01*
X888Y348D02*
X901Y348D01*
X934Y348D02*
X949Y348D01*
X976Y348D02*
X979Y348D01*
X1026Y348D02*
X1056Y348D01*
X1404Y348D02*
X1427Y348D01*
X1454Y348D02*
X1460Y348D01*
X1481Y348D02*
X1487Y348D01*
X1517Y348D02*
X1523Y348D01*
X1554Y348D02*
X1587Y348D01*
X1604Y348D02*
X1637Y348D01*
X3381Y348D02*
X3437Y348D01*
X63Y347D02*
X122Y347D01*
X1404Y347D02*
X1425Y347D01*
X1454Y347D02*
X1459Y347D01*
X1482Y347D02*
X1487Y347D01*
X1518Y347D02*
X1523Y347D01*
X1554Y347D02*
X1587Y347D01*
X1604Y347D02*
X1637Y347D01*
X3380Y347D02*
X3437Y347D01*
X64Y346D02*
X123Y346D01*
X1405Y346D02*
X1424Y346D01*
X1455Y346D02*
X1459Y346D01*
X1482Y346D02*
X1486Y346D01*
X1518Y346D02*
X1522Y346D01*
X1554Y346D02*
X1586Y346D01*
X1604Y346D02*
X1636Y346D01*
X3380Y346D02*
X3436Y346D01*
X65Y345D02*
X124Y345D01*
X1407Y345D02*
X1420Y345D01*
X1457Y345D02*
X1457Y345D01*
X1484Y345D02*
X1484Y345D01*
X1520Y345D02*
X1520Y345D01*
X1554Y345D02*
X1584Y345D01*
X1604Y345D02*
X1634Y345D01*
X3379Y345D02*
X3436Y345D01*
X65Y344D02*
X124Y344D01*
X3379Y344D02*
X3435Y344D01*
X66Y343D02*
X125Y343D01*
X3378Y343D02*
X3435Y343D01*
X67Y342D02*
X126Y342D01*
X3378Y342D02*
X3434Y342D01*
X67Y341D02*
X126Y341D01*
X3377Y341D02*
X3434Y341D01*
X68Y340D02*
X127Y340D01*
X3377Y340D02*
X3433Y340D01*
X68Y339D02*
X128Y339D01*
X3376Y339D02*
X3433Y339D01*
X69Y338D02*
X128Y338D01*
X3376Y338D02*
X3432Y338D01*
X70Y337D02*
X129Y337D01*
X3375Y337D02*
X3432Y337D01*
X70Y336D02*
X130Y336D01*
X3375Y336D02*
X3432Y336D01*
X71Y335D02*
X131Y335D01*
X3374Y335D02*
X3431Y335D01*
X72Y334D02*
X131Y334D01*
X3374Y334D02*
X3431Y334D01*
X72Y333D02*
X132Y333D01*
X3373Y333D02*
X3430Y333D01*
X73Y332D02*
X133Y332D01*
X3373Y332D02*
X3430Y332D01*
X74Y331D02*
X133Y331D01*
X3372Y331D02*
X3429Y331D01*
X74Y330D02*
X134Y330D01*
X3372Y330D02*
X3429Y330D01*
X75Y329D02*
X135Y329D01*
X3371Y329D02*
X3428Y329D01*
X76Y328D02*
X136Y328D01*
X3370Y328D02*
X3428Y328D01*
X76Y327D02*
X137Y327D01*
X3370Y327D02*
X3427Y327D01*
X77Y326D02*
X137Y326D01*
X3369Y326D02*
X3427Y326D01*
X78Y325D02*
X138Y325D01*
X3369Y325D02*
X3426Y325D01*
X79Y324D02*
X139Y324D01*
X3368Y324D02*
X3426Y324D01*
X79Y323D02*
X140Y323D01*
X3368Y323D02*
X3425Y323D01*
X80Y322D02*
X140Y322D01*
X3367Y322D02*
X3424Y322D01*
X81Y321D02*
X141Y321D01*
X3367Y321D02*
X3424Y321D01*
X81Y320D02*
X142Y320D01*
X3366Y320D02*
X3423Y320D01*
X82Y319D02*
X143Y319D01*
X3365Y319D02*
X3423Y319D01*
X83Y318D02*
X144Y318D01*
X3365Y318D02*
X3422Y318D01*
X84Y317D02*
X144Y317D01*
X3364Y317D02*
X3422Y317D01*
X84Y316D02*
X145Y316D01*
X3364Y316D02*
X3421Y316D01*
X85Y315D02*
X146Y315D01*
X3363Y315D02*
X3421Y315D01*
X86Y314D02*
X147Y314D01*
X3362Y314D02*
X3420Y314D01*
X86Y313D02*
X148Y313D01*
X3362Y313D02*
X3420Y313D01*
X87Y312D02*
X148Y312D01*
X3361Y312D02*
X3419Y312D01*
X88Y311D02*
X149Y311D01*
X3360Y311D02*
X3418Y311D01*
X89Y310D02*
X150Y310D01*
X3360Y310D02*
X3418Y310D01*
X90Y309D02*
X151Y309D01*
X3359Y309D02*
X3417Y309D01*
X90Y308D02*
X152Y308D01*
X3359Y308D02*
X3417Y308D01*
X91Y307D02*
X153Y307D01*
X3358Y307D02*
X3416Y307D01*
X92Y306D02*
X153Y306D01*
X3357Y306D02*
X3416Y306D01*
X93Y305D02*
X154Y305D01*
X3357Y305D02*
X3415Y305D01*
X93Y304D02*
X155Y304D01*
X3356Y304D02*
X3414Y304D01*
X94Y303D02*
X156Y303D01*
X3355Y303D02*
X3414Y303D01*
X95Y302D02*
X157Y302D01*
X3355Y302D02*
X3413Y302D01*
X96Y301D02*
X158Y301D01*
X3354Y301D02*
X3413Y301D01*
X96Y300D02*
X159Y300D01*
X3353Y300D02*
X3412Y300D01*
X97Y299D02*
X160Y299D01*
X3353Y299D02*
X3411Y299D01*
X98Y298D02*
X160Y298D01*
X3352Y298D02*
X3411Y298D01*
X99Y297D02*
X161Y297D01*
X3351Y297D02*
X3410Y297D01*
X100Y296D02*
X162Y296D01*
X3350Y296D02*
X3410Y296D01*
X101Y295D02*
X163Y295D01*
X3350Y295D02*
X3409Y295D01*
X101Y294D02*
X164Y294D01*
X3349Y294D02*
X3408Y294D01*
X102Y293D02*
X165Y293D01*
X3348Y293D02*
X3408Y293D01*
X103Y292D02*
X166Y292D01*
X3348Y292D02*
X3407Y292D01*
X104Y291D02*
X167Y291D01*
X3347Y291D02*
X3406Y291D01*
X105Y290D02*
X168Y290D01*
X3346Y290D02*
X3406Y290D01*
X105Y289D02*
X169Y289D01*
X3345Y289D02*
X3405Y289D01*
X106Y288D02*
X170Y288D01*
X3345Y288D02*
X3404Y288D01*
X107Y287D02*
X171Y287D01*
X3344Y287D02*
X3404Y287D01*
X108Y286D02*
X171Y286D01*
X3343Y286D02*
X3403Y286D01*
X109Y285D02*
X172Y285D01*
X3342Y285D02*
X3402Y285D01*
X110Y284D02*
X173Y284D01*
X3342Y284D02*
X3402Y284D01*
X111Y283D02*
X174Y283D01*
X3341Y283D02*
X3401Y283D01*
X111Y282D02*
X175Y282D01*
X3340Y282D02*
X3400Y282D01*
X112Y281D02*
X176Y281D01*
X3339Y281D02*
X3400Y281D01*
X113Y280D02*
X177Y280D01*
X3339Y280D02*
X3399Y280D01*
X114Y279D02*
X178Y279D01*
X3338Y279D02*
X3398Y279D01*
X115Y278D02*
X179Y278D01*
X3337Y278D02*
X3398Y278D01*
X116Y277D02*
X180Y277D01*
X3336Y277D02*
X3397Y277D01*
X117Y276D02*
X181Y276D01*
X3335Y276D02*
X3396Y276D01*
X118Y275D02*
X182Y275D01*
X3335Y275D02*
X3395Y275D01*
X118Y274D02*
X183Y274D01*
X3334Y274D02*
X3395Y274D01*
X119Y273D02*
X184Y273D01*
X3333Y273D02*
X3394Y273D01*
X120Y272D02*
X185Y272D01*
X3332Y272D02*
X3393Y272D01*
X121Y271D02*
X186Y271D01*
X3331Y271D02*
X3392Y271D01*
X122Y270D02*
X187Y270D01*
X3331Y270D02*
X3392Y270D01*
X123Y269D02*
X188Y269D01*
X3330Y269D02*
X3391Y269D01*
X124Y268D02*
X189Y268D01*
X3329Y268D02*
X3390Y268D01*
X125Y267D02*
X190Y267D01*
X3328Y267D02*
X3389Y267D01*
X126Y266D02*
X191Y266D01*
X3327Y266D02*
X3389Y266D01*
X127Y265D02*
X192Y265D01*
X3326Y265D02*
X3388Y265D01*
X128Y264D02*
X194Y264D01*
X3325Y264D02*
X3387Y264D01*
X129Y263D02*
X195Y263D01*
X3325Y263D02*
X3386Y263D01*
X130Y262D02*
X196Y262D01*
X3324Y262D02*
X3386Y262D01*
X131Y261D02*
X197Y261D01*
X3323Y261D02*
X3385Y261D01*
X132Y260D02*
X198Y260D01*
X3322Y260D02*
X3384Y260D01*
X133Y259D02*
X199Y259D01*
X3321Y259D02*
X3383Y259D01*
X133Y258D02*
X200Y258D01*
X3320Y258D02*
X3383Y258D01*
X134Y257D02*
X201Y257D01*
X3319Y257D02*
X3382Y257D01*
X135Y256D02*
X202Y256D01*
X3318Y256D02*
X3381Y256D01*
X136Y255D02*
X203Y255D01*
X3317Y255D02*
X3380Y255D01*
X137Y254D02*
X204Y254D01*
X3317Y254D02*
X3379Y254D01*
X138Y253D02*
X206Y253D01*
X3316Y253D02*
X3379Y253D01*
X139Y252D02*
X207Y252D01*
X3315Y252D02*
X3378Y252D01*
X140Y251D02*
X208Y251D01*
X3314Y251D02*
X3377Y251D01*
X141Y250D02*
X209Y250D01*
X3313Y250D02*
X3376Y250D01*
X142Y249D02*
X210Y249D01*
X3312Y249D02*
X3375Y249D01*
X143Y248D02*
X211Y248D01*
X3311Y248D02*
X3374Y248D01*
X144Y247D02*
X212Y247D01*
X3310Y247D02*
X3374Y247D01*
X145Y246D02*
X213Y246D01*
X3309Y246D02*
X3373Y246D01*
X146Y245D02*
X215Y245D01*
X3308Y245D02*
X3372Y245D01*
X147Y244D02*
X216Y244D01*
X3307Y244D02*
X3371Y244D01*
X148Y243D02*
X217Y243D01*
X3306Y243D02*
X3370Y243D01*
X150Y242D02*
X218Y242D01*
X3305Y242D02*
X3369Y242D01*
X151Y241D02*
X219Y241D01*
X3304Y241D02*
X3368Y241D01*
X152Y240D02*
X221Y240D01*
X3303Y240D02*
X3368Y240D01*
X153Y239D02*
X222Y239D01*
X3302Y239D02*
X3367Y239D01*
X154Y238D02*
X223Y238D01*
X3301Y238D02*
X3366Y238D01*
X155Y237D02*
X224Y237D01*
X3300Y237D02*
X3365Y237D01*
X156Y236D02*
X225Y236D01*
X3299Y236D02*
X3364Y236D01*
X157Y235D02*
X226Y235D01*
X3298Y235D02*
X3363Y235D01*
X158Y234D02*
X228Y234D01*
X3297Y234D02*
X3362Y234D01*
X159Y233D02*
X229Y233D01*
X3296Y233D02*
X3361Y233D01*
X160Y232D02*
X230Y232D01*
X3295Y232D02*
X3360Y232D01*
X161Y231D02*
X231Y231D01*
X3294Y231D02*
X3359Y231D01*
X162Y230D02*
X233Y230D01*
X3293Y230D02*
X3358Y230D01*
X164Y229D02*
X234Y229D01*
X3292Y229D02*
X3358Y229D01*
X165Y228D02*
X235Y228D01*
X3291Y228D02*
X3357Y228D01*
X166Y227D02*
X236Y227D01*
X3290Y227D02*
X3356Y227D01*
X167Y226D02*
X238Y226D01*
X3288Y226D02*
X3355Y226D01*
X168Y225D02*
X239Y225D01*
X3287Y225D02*
X3354Y225D01*
X169Y224D02*
X240Y224D01*
X3286Y224D02*
X3353Y224D01*
X170Y223D02*
X241Y223D01*
X3285Y223D02*
X3352Y223D01*
X171Y222D02*
X243Y222D01*
X3284Y222D02*
X3351Y222D01*
X173Y221D02*
X244Y221D01*
X3283Y221D02*
X3350Y221D01*
X174Y220D02*
X245Y220D01*
X3282Y220D02*
X3349Y220D01*
X175Y219D02*
X247Y219D01*
X3281Y219D02*
X3348Y219D01*
X176Y218D02*
X248Y218D01*
X3280Y218D02*
X3347Y218D01*
X177Y217D02*
X249Y217D01*
X3278Y217D02*
X3346Y217D01*
X178Y216D02*
X251Y216D01*
X3277Y216D02*
X3345Y216D01*
X180Y215D02*
X252Y215D01*
X3276Y215D02*
X3344Y215D01*
X181Y214D02*
X253Y214D01*
X3275Y214D02*
X3343Y214D01*
X182Y213D02*
X255Y213D01*
X3274Y213D02*
X3342Y213D01*
X183Y212D02*
X256Y212D01*
X3273Y212D02*
X3341Y212D01*
X184Y211D02*
X257Y211D01*
X3272Y211D02*
X3340Y211D01*
X186Y210D02*
X259Y210D01*
X3270Y210D02*
X3339Y210D01*
X187Y209D02*
X260Y209D01*
X3269Y209D02*
X3338Y209D01*
X188Y208D02*
X261Y208D01*
X3268Y208D02*
X3337Y208D01*
X189Y207D02*
X263Y207D01*
X3267Y207D02*
X3336Y207D01*
X190Y206D02*
X264Y206D01*
X3266Y206D02*
X3335Y206D01*
X192Y205D02*
X265Y205D01*
X3264Y205D02*
X3334Y205D01*
X193Y204D02*
X267Y204D01*
X3263Y204D02*
X3333Y204D01*
X194Y203D02*
X268Y203D01*
X3262Y203D02*
X3331Y203D01*
X195Y202D02*
X270Y202D01*
X3261Y202D02*
X3330Y202D01*
X197Y201D02*
X271Y201D01*
X3259Y201D02*
X3329Y201D01*
X198Y200D02*
X273Y200D01*
X3258Y200D02*
X3328Y200D01*
X199Y199D02*
X274Y199D01*
X3257Y199D02*
X3327Y199D01*
X200Y198D02*
X275Y198D01*
X3256Y198D02*
X3326Y198D01*
X202Y197D02*
X277Y197D01*
X3254Y197D02*
X3325Y197D01*
X203Y196D02*
X278Y196D01*
X3253Y196D02*
X3324Y196D01*
X204Y195D02*
X280Y195D01*
X3252Y195D02*
X3323Y195D01*
X206Y194D02*
X281Y194D01*
X3250Y194D02*
X3322Y194D01*
X207Y193D02*
X283Y193D01*
X3249Y193D02*
X3320Y193D01*
X208Y192D02*
X284Y192D01*
X3248Y192D02*
X3319Y192D01*
X210Y191D02*
X286Y191D01*
X3247Y191D02*
X3318Y191D01*
X211Y190D02*
X287Y190D01*
X3245Y190D02*
X3317Y190D01*
X212Y189D02*
X289Y189D01*
X3244Y189D02*
X3316Y189D01*
X213Y188D02*
X290Y188D01*
X3243Y188D02*
X3315Y188D01*
X215Y187D02*
X292Y187D01*
X3241Y187D02*
X3314Y187D01*
X216Y186D02*
X293Y186D01*
X3240Y186D02*
X3312Y186D01*
X218Y185D02*
X295Y185D01*
X3239Y185D02*
X3311Y185D01*
X219Y184D02*
X296Y184D01*
X3237Y184D02*
X3310Y184D01*
X220Y183D02*
X298Y183D01*
X3236Y183D02*
X3309Y183D01*
X222Y182D02*
X299Y182D01*
X3234Y182D02*
X3308Y182D01*
X223Y181D02*
X301Y181D01*
X3233Y181D02*
X3306Y181D01*
X224Y180D02*
X302Y180D01*
X3232Y180D02*
X3305Y180D01*
X226Y179D02*
X304Y179D01*
X3230Y179D02*
X3304Y179D01*
X227Y178D02*
X305Y178D01*
X3229Y178D02*
X3303Y178D01*
X228Y177D02*
X307Y177D01*
X3227Y177D02*
X3302Y177D01*
X230Y176D02*
X309Y176D01*
X3226Y176D02*
X3300Y176D01*
X231Y175D02*
X310Y175D01*
X3225Y175D02*
X3299Y175D01*
X233Y174D02*
X312Y174D01*
X3223Y174D02*
X3298Y174D01*
X234Y173D02*
X313Y173D01*
X3222Y173D02*
X3297Y173D01*
X236Y172D02*
X315Y172D01*
X3220Y172D02*
X3295Y172D01*
X237Y171D02*
X317Y171D01*
X3219Y171D02*
X3294Y171D01*
X238Y170D02*
X318Y170D01*
X3217Y170D02*
X3293Y170D01*
X240Y169D02*
X320Y169D01*
X3216Y169D02*
X3291Y169D01*
X241Y168D02*
X322Y168D01*
X3214Y168D02*
X3290Y168D01*
X243Y167D02*
X323Y167D01*
X3213Y167D02*
X3289Y167D01*
X244Y166D02*
X325Y166D01*
X3211Y166D02*
X3288Y166D01*
X246Y165D02*
X327Y165D01*
X3210Y165D02*
X3286Y165D01*
X247Y164D02*
X328Y164D01*
X3208Y164D02*
X3285Y164D01*
X249Y163D02*
X330Y163D01*
X3207Y163D02*
X3284Y163D01*
X250Y162D02*
X332Y162D01*
X3205Y162D02*
X3282Y162D01*
X252Y161D02*
X333Y161D01*
X3204Y161D02*
X3281Y161D01*
X253Y160D02*
X335Y160D01*
X3202Y160D02*
X3280Y160D01*
X255Y159D02*
X337Y159D01*
X3201Y159D02*
X3278Y159D01*
X256Y158D02*
X338Y158D01*
X3199Y158D02*
X3277Y158D01*
X258Y157D02*
X340Y157D01*
X3198Y157D02*
X3276Y157D01*
X259Y156D02*
X342Y156D01*
X3196Y156D02*
X3274Y156D01*
X261Y155D02*
X344Y155D01*
X3194Y155D02*
X3273Y155D01*
X262Y154D02*
X346Y154D01*
X3193Y154D02*
X3272Y154D01*
X264Y153D02*
X347Y153D01*
X3191Y153D02*
X3270Y153D01*
X265Y152D02*
X349Y152D01*
X3190Y152D02*
X3269Y152D01*
X267Y151D02*
X351Y151D01*
X3188Y151D02*
X3267Y151D01*
X269Y150D02*
X353Y150D01*
X3186Y150D02*
X3266Y150D01*
X270Y149D02*
X355Y149D01*
X3185Y149D02*
X3265Y149D01*
X272Y148D02*
X356Y148D01*
X3183Y148D02*
X3263Y148D01*
X273Y147D02*
X358Y147D01*
X3181Y147D02*
X3262Y147D01*
X275Y146D02*
X360Y146D01*
X3180Y146D02*
X3260Y146D01*
X277Y145D02*
X362Y145D01*
X3178Y145D02*
X3259Y145D01*
X278Y144D02*
X364Y144D01*
X3176Y144D02*
X3257Y144D01*
X280Y143D02*
X366Y143D01*
X3175Y143D02*
X3256Y143D01*
X281Y142D02*
X368Y142D01*
X3173Y142D02*
X3254Y142D01*
X283Y141D02*
X370Y141D01*
X3171Y141D02*
X3253Y141D01*
X285Y140D02*
X372Y140D01*
X3170Y140D02*
X3251Y140D01*
X286Y139D02*
X374Y139D01*
X3168Y139D02*
X3250Y139D01*
X288Y138D02*
X376Y138D01*
X3166Y138D02*
X3248Y138D01*
X290Y137D02*
X377Y137D01*
X3164Y137D02*
X3247Y137D01*
X291Y136D02*
X379Y136D01*
X3162Y136D02*
X3245Y136D01*
X293Y135D02*
X381Y135D01*
X3161Y135D02*
X3244Y135D01*
X295Y134D02*
X383Y134D01*
X3159Y134D02*
X3242Y134D01*
X297Y133D02*
X385Y133D01*
X3157Y133D02*
X3241Y133D01*
X298Y132D02*
X388Y132D01*
X3155Y132D02*
X3239Y132D01*
X300Y131D02*
X390Y131D01*
X3153Y131D02*
X3238Y131D01*
X302Y130D02*
X392Y130D01*
X3151Y130D02*
X3236Y130D01*
X303Y129D02*
X394Y129D01*
X3150Y129D02*
X3234Y129D01*
X305Y128D02*
X396Y128D01*
X3148Y128D02*
X3233Y128D01*
X307Y127D02*
X398Y127D01*
X3146Y127D02*
X3231Y127D01*
X309Y126D02*
X400Y126D01*
X3144Y126D02*
X3230Y126D01*
X311Y125D02*
X402Y125D01*
X3142Y125D02*
X3228Y125D01*
X312Y124D02*
X404Y124D01*
X3140Y124D02*
X3226Y124D01*
X314Y123D02*
X407Y123D01*
X3138Y123D02*
X3225Y123D01*
X316Y122D02*
X409Y122D01*
X3136Y122D02*
X3223Y122D01*
X318Y121D02*
X411Y121D01*
X3134Y121D02*
X3222Y121D01*
X320Y120D02*
X413Y120D01*
X3132Y120D02*
X3220Y120D01*
X321Y119D02*
X415Y119D01*
X3130Y119D02*
X3218Y119D01*
X323Y118D02*
X418Y118D01*
X3128Y118D02*
X3217Y118D01*
X325Y117D02*
X420Y117D01*
X3126Y117D02*
X3215Y117D01*
X327Y116D02*
X422Y116D01*
X3124Y116D02*
X3213Y116D01*
X329Y115D02*
X425Y115D01*
X3122Y115D02*
X3211Y115D01*
X331Y114D02*
X427Y114D01*
X3120Y114D02*
X3210Y114D01*
X333Y113D02*
X429Y113D01*
X3118Y113D02*
X3208Y113D01*
X335Y112D02*
X432Y112D01*
X3115Y112D02*
X3206Y112D01*
X337Y111D02*
X434Y111D01*
X3113Y111D02*
X3205Y111D01*
X339Y110D02*
X436Y110D01*
X3111Y110D02*
X3203Y110D01*
X341Y109D02*
X439Y109D01*
X3109Y109D02*
X3201Y109D01*
X343Y108D02*
X441Y108D01*
X3107Y108D02*
X3199Y108D01*
X345Y107D02*
X444Y107D01*
X3104Y107D02*
X3197Y107D01*
X347Y106D02*
X446Y106D01*
X3102Y106D02*
X3196Y106D01*
X349Y105D02*
X449Y105D01*
X3100Y105D02*
X3194Y105D01*
X351Y104D02*
X451Y104D01*
X3097Y104D02*
X3192Y104D01*
X353Y103D02*
X454Y103D01*
X3095Y103D02*
X3190Y103D01*
X355Y102D02*
X457Y102D01*
X3093Y102D02*
X3188Y102D01*
X357Y101D02*
X459Y101D01*
X3090Y101D02*
X3186Y101D01*
X359Y100D02*
X462Y100D01*
X3088Y100D02*
X3184Y100D01*
X361Y99D02*
X465Y99D01*
X3086Y99D02*
X3183Y99D01*
X363Y98D02*
X467Y98D01*
X3083Y98D02*
X3181Y98D01*
X365Y97D02*
X470Y97D01*
X3081Y97D02*
X3179Y97D01*
X367Y96D02*
X473Y96D01*
X3078Y96D02*
X3177Y96D01*
X369Y95D02*
X476Y95D01*
X3076Y95D02*
X3175Y95D01*
X372Y94D02*
X478Y94D01*
X3073Y94D02*
X3173Y94D01*
X374Y93D02*
X481Y93D01*
X3070Y93D02*
X3171Y93D01*
X376Y92D02*
X484Y92D01*
X3068Y92D02*
X3169Y92D01*
X378Y91D02*
X487Y91D01*
X3065Y91D02*
X3167Y91D01*
X380Y90D02*
X490Y90D01*
X3062Y90D02*
X3165Y90D01*
X383Y89D02*
X493Y89D01*
X3060Y89D02*
X3163Y89D01*
X385Y88D02*
X496Y88D01*
X3057Y88D02*
X3161Y88D01*
X387Y87D02*
X499Y87D01*
X3054Y87D02*
X3159Y87D01*
X389Y86D02*
X502Y86D01*
X3051Y86D02*
X3157Y86D01*
X392Y85D02*
X505Y85D01*
X3048Y85D02*
X3155Y85D01*
X394Y84D02*
X509Y84D01*
X3046Y84D02*
X3152Y84D01*
X396Y83D02*
X512Y83D01*
X3043Y83D02*
X3150Y83D01*
X399Y82D02*
X515Y82D01*
X3040Y82D02*
X3148Y82D01*
X401Y81D02*
X519Y81D01*
X3037Y81D02*
X3146Y81D01*
X403Y80D02*
X522Y80D01*
X3034Y80D02*
X3144Y80D01*
X406Y79D02*
X525Y79D01*
X3030Y79D02*
X3142Y79D01*
X408Y78D02*
X529Y78D01*
X3027Y78D02*
X3139Y78D01*
X411Y77D02*
X532Y77D01*
X3024Y77D02*
X3137Y77D01*
X413Y76D02*
X536Y76D01*
X3021Y76D02*
X3135Y76D01*
X416Y75D02*
X540Y75D01*
X3017Y75D02*
X3133Y75D01*
X418Y74D02*
X543Y74D01*
X3014Y74D02*
X3130Y74D01*
X421Y73D02*
X547Y73D01*
X3011Y73D02*
X3128Y73D01*
X423Y72D02*
X551Y72D01*
X3007Y72D02*
X3126Y72D01*
X426Y71D02*
X555Y71D01*
X3004Y71D02*
X3123Y71D01*
X429Y70D02*
X559Y70D01*
X3000Y70D02*
X3121Y70D01*
X431Y69D02*
X563Y69D01*
X2996Y69D02*
X3118Y69D01*
X434Y68D02*
X567Y68D01*
X2992Y68D02*
X3116Y68D01*
X437Y67D02*
X571Y67D01*
X2989Y67D02*
X3114Y67D01*
X439Y66D02*
X576Y66D01*
X2985Y66D02*
X3111Y66D01*
X442Y65D02*
X580Y65D01*
X2981Y65D02*
X3109Y65D01*
X445Y64D02*
X585Y64D01*
X2976Y64D02*
X3106Y64D01*
X448Y63D02*
X589Y63D01*
X2972Y63D02*
X3104Y63D01*
X450Y62D02*
X594Y62D01*
X2968Y62D02*
X3101Y62D01*
X453Y61D02*
X599Y61D01*
X2963Y61D02*
X3098Y61D01*
X456Y60D02*
X604Y60D01*
X2959Y60D02*
X3096Y60D01*
X459Y59D02*
X609Y59D01*
X2954Y59D02*
X3093Y59D01*
X462Y58D02*
X614Y58D01*
X2949Y58D02*
X3090Y58D01*
X465Y57D02*
X620Y57D01*
X2944Y57D02*
X3088Y57D01*
X468Y56D02*
X625Y56D01*
X2939Y56D02*
X3085Y56D01*
X471Y55D02*
X631Y55D01*
X2934Y55D02*
X3082Y55D01*
X474Y54D02*
X637Y54D01*
X2928Y54D02*
X3079Y54D01*
X477Y53D02*
X644Y53D01*
X2922Y53D02*
X3077Y53D01*
X480Y52D02*
X650Y52D01*
X2916Y52D02*
X3074Y52D01*
X483Y51D02*
X657Y51D01*
X2910Y51D02*
X3071Y51D01*
X486Y50D02*
X664Y50D01*
X2904Y50D02*
X3068Y50D01*
X490Y49D02*
X672Y49D01*
X2897Y49D02*
X3065Y49D01*
X493Y48D02*
X680Y48D01*
X2889Y48D02*
X3062Y48D01*
X496Y47D02*
X688Y47D01*
X2881Y47D02*
X3059Y47D01*
X500Y46D02*
X698Y46D01*
X2873Y46D02*
X3056Y46D01*
X503Y45D02*
X708Y45D01*
X2863Y45D02*
X3053Y45D01*
X506Y44D02*
X719Y44D01*
X2853Y44D02*
X3049Y44D01*
X510Y43D02*
X732Y43D01*
X2841Y43D02*
X3046Y43D01*
X514Y42D02*
X747Y42D01*
X2827Y42D02*
X3043Y42D01*
X517Y41D02*
X767Y41D01*
X2809Y41D02*
X3040Y41D01*
X521Y40D02*
X799Y40D01*
X2779Y40D02*
X3036Y40D01*
X525Y39D02*
X3033Y39D01*
X528Y38D02*
X3029Y38D01*
X532Y37D02*
X3026Y37D01*
X536Y36D02*
X3022Y36D01*
X540Y35D02*
X3019Y35D01*
X544Y34D02*
X3015Y34D01*
X548Y33D02*
X3011Y33D01*
X552Y32D02*
X3007Y32D01*
X556Y31D02*
X3003Y31D01*
X561Y30D02*
X2999Y30D01*
X565Y29D02*
X2995Y29D01*
X570Y28D02*
X2991Y28D01*
X574Y27D02*
X2987Y27D01*
X579Y26D02*
X2983Y26D01*
X584Y25D02*
X2978Y25D01*
X589Y24D02*
X2974Y24D01*
X594Y23D02*
X2969Y23D01*
X599Y22D02*
X2964Y22D01*
X604Y21D02*
X2959Y21D01*
X610Y20D02*
X2954Y20D01*
X615Y19D02*
X2949Y19D01*
X621Y18D02*
X2944Y18D01*
X627Y17D02*
X2938Y17D01*
X633Y16D02*
X2932Y16D01*
X640Y15D02*
X2926Y15D01*
X647Y14D02*
X2920Y14D01*
X654Y13D02*
X2914Y13D01*
X661Y12D02*
X2907Y12D01*
X669Y11D02*
X2900Y11D01*
X677Y10D02*
X2892Y10D01*
X686Y9D02*
X2884Y9D01*
X695Y8D02*
X2875Y8D01*
X705Y7D02*
X2866Y7D01*
X716Y6D02*
X2856Y6D01*
X729Y5D02*
X2844Y5D01*
X743Y4D02*
X2830Y4D01*
X762Y3D02*
X2814Y3D01*
X789Y2D02*
X2789Y2D01*
D02*
G04 End of Silk1*
M02*